<svg width="45" height="45" fill="none" xmlns="http://www.w3.org/2000/svg">
    <path d="M35.958 5.574A18.909 18.909 0 0022.5 0c-5.084 0-9.864 1.98-13.458 5.574a18.91 18.91 0 00-5.575 13.46c0 10.283 9.725 18.837 14.949 23.433.725.638 1.353 1.19 1.852 1.656A3.262 3.262 0 0022.5 45c.803 0 1.606-.293 2.232-.877.5-.467 1.127-1.018 1.853-1.656 5.223-4.596 14.948-13.15 14.948-23.434a18.91 18.91 0 00-5.575-13.459zM22.5 26.701c-4.625 0-8.387-3.762-8.387-8.387s3.762-8.388 8.387-8.388 8.387 3.763 8.387 8.388S27.125 26.7 22.5 26.7z" fill="#FFC700"/>
    <path d="M41.533 19.033c0 10.284-9.725 18.838-14.948 23.434a87.535 87.535 0 00-1.853 1.656A3.266 3.266 0 0122.5 45V26.7c4.625 0 8.387-3.762 8.387-8.387S27.125 9.926 22.5 9.926V0a18.91 18.91 0 0113.458 5.574 18.91 18.91 0 015.575 13.46z" fill="#FFC700"/>
</svg>
