<svg width="51" height="40" fill="none" xmlns="http://www.w3.org/2000/svg">
    <path d="M36.936 25.747l-.688.595.716.561.502.394.342.552.144.581-.136.51-.27.444-.342.27-.493.166-.567-.004-.733-.333-.854-.724-.032-.027-.035-.023-.849-.57-.072-.048-.081-.03-.846-.319-.052-.02-.055-.011-1.04-.224-.052-.011-.053-.004-1.123-.078-.023-.002h-.023l-7.191-.06h-.025l-.025.002-1.362.079-.065.004-.063.015-1.278.3-.086.02-.08.04-1.217.61-.04.02-.037.026-1.08.712-.733.403-.809.247-.934-.157-.607-.299-.383-.593.091-.85.277-.755.37-.464.353-.262.88-.653-.927-.584-.556-.35-.314-.4-.147-.547.089-.762.432-.624.898-.288.986.45.95.756.034.027.037.023 1.085.677.092.057.104.03 1.132.315.09.025.094.002 1.579.036h.009l8.018.087h.023l.023-.001 1.581-.08.13-.007.12-.05 1.223-.509.07-.03.063-.042 1.262-.856h0l1.032-.7.733-.247.784.225.506.486.39.722.11.569-.195.682-.427.57-.354.308z" stroke="#CB7C06" stroke-width="1.5"/>
    <path d="M4.278 19.72a1.25 1.25 0 011.218-.97h40.008a1.25 1.25 0 011.218.97l3.266 14.224a.25.25 0 01-.244.306H1.256a.25.25 0 01-.244-.306L4.278 19.72z" stroke="#FFC700" stroke-width="1.5" stroke-linecap="round"/>
    <path d="M7.057 16c-.225-1.554.115-4.474 2.844-5.295.457-.137.638-.823.425-1.25-.268-.533-.06-1.064.674-1.787 1.184-1.168 2.944-.385 3.334 0 .39.384 2.729-6.794 9.875-6.666 6.852.123 10.12 4.722 10.837 6.458a.559.559 0 00.284.298c.65.296 1.687.86 1.873 1.32M35.124 11c.477-.77 2.002-2.231 4.288-1.923 2.86.384 5.588 2.307 5.588 6.41" stroke="#F8A900" stroke-width="1.5" stroke-linecap="round"/>
</svg>
