<svg width="54" height="53" fill="none" xmlns="http://www.w3.org/2000/svg">
    <path d="M22.946 14.357l6.123 10.605-6.123 10.604H10.701L4.58 24.962 10.7 14.357h12.245z" stroke="#FFC700" stroke-width="1.5" stroke-linecap="round"/>
    <path d="M41.03 3.507l6.123 10.604-6.123 10.604H28.785l-6.122-10.604 6.122-10.604H41.03z" stroke="#FFC700" stroke-width="1.5" stroke-linecap="round"/>
    <path d="M22.94 34.91l6.123-10.604h12.245l6.123 10.604-6.123 10.605H29.063L22.941 34.91z" stroke="#FFC700" stroke-width="1.5" stroke-linecap="round"/>
    <path d="M7.864 25.063L12.4 17.37M26.648 13.214l4.535-7.693" stroke="#FFA800" stroke-width="1.5" stroke-linecap="round"/>
    <path d="M39.139 42.692L43.674 35" stroke="#CB7C06" stroke-width="1.5" stroke-linecap="round"/>
    <path d="M41.237 3.713l1.809-2.26M47.115 14.111h2.26M1 24.51h3.165" stroke="#FFC700" stroke-width="1.5" stroke-linecap="round"/>
</svg>
