<svg width="43" height="46" fill="none" xmlns="http://www.w3.org/2000/svg">
    <path d="M4.068 7.53l3.86.088A16.926 16.926 0 0021.5 1.268a.398.398 0 01.629.008 15.864 15.864 0 0013.06 6.342l3.927-.091c1.59-.037 2.913 1.164 2.866 2.755-.204 7.037-2.553 25.438-20.855 34.312 0 0-18.558-9.919-20.035-34.058C.99 8.856 2.385 7.492 4.068 7.53z" stroke="#FFC700" stroke-width="1.5"/>
    <path d="M21.822 13.013v-2.776M12.105 22.036H9.329M33.621 22.036h-2.776M30.523 30.737l-2.454-2.454M15.253 15.467L12.8 13.013M15.253 28.977L12.8 31.431M30.523 13.707l-2.454 2.454M21.822 34.53v-2.777" stroke="#CB7C06" stroke-width="1.5" stroke-linecap="round"/>
    <circle cx="21.475" cy="22.383" r="8.62" stroke="#CB7C06" stroke-width="1.5"/>
    <circle cx="23.904" cy="23.424" r="2.72" stroke="#FFA800" stroke-width="1.5"/>
    <circle cx="17.657" cy="20.648" r="1.332" stroke="#FFC700" stroke-width="1.5"/>
</svg>
