<svg width="48" height="35" fill="none" xmlns="http://www.w3.org/2000/svg">
    <path d="M13.786 22.232h-3.37a4.52 4.52 0 01-3.197-1.324l-1.32-1.32a2.477 2.477 0 00-3.337-.15v0a2.477 2.477 0 00-.857 2.31l.53 3.175a5 5 0 01-.109 2.138l-.696 2.55c-.266.976.011 2.02.727 2.735v0a2.818 2.818 0 003.609.316l1.49-1.043a4.985 4.985 0 012.859-.901h28.027c.977 0 1.922.355 2.657.998l.813.711a2.79 2.79 0 003.652.019v0a2.79 2.79 0 00.806-3.071l-.63-1.734a5 5 0 01-.045-3.29l.774-2.321a2.6 2.6 0 00-.802-2.82v0a2.6 2.6 0 00-3.07-.19l-3.76 2.418a5 5 0 01-2.704.794h-1.36" stroke="#CB7C06" stroke-width="1.5"/>
    <path d="M11.843 19.403l2.6 4.226a4 4 0 003.407 1.903h2.442a4 4 0 003.124-1.501l.685-.856m0 0v-2.357m0 2.357l1.185 1.185a4 4 0 002.829 1.172h1.765a4 4 0 003.407-1.904l2.6-4.225" stroke="#FFC700" stroke-width="1.5" stroke-linecap="round"/>
    <path d="M19.611 15.512l4.09 4.833a.5.5 0 00.777-.018l3.718-4.833a.5.5 0 00-.396-.805h-7.807a.5.5 0 00-.382.823z" stroke="#FFA800" stroke-width="1.5"/>
    <path d="M12.786 6.86c3.457-2.986 12.635-7.166 21.686 0M8.072 17.046C2.414 10.446 3.357 1.96 3.357 1.96c2.986-1.1 9.806-2.169 13.2 2.357" stroke="#FFC700" stroke-width="1.5" stroke-linecap="round"/>
    <path d="M39.658 17.063c5.658-6.6 4.715-15.086 4.715-15.086-2.986-1.1-9.806-2.169-13.2 2.357" stroke="#FFC700" stroke-width="1.5" stroke-linecap="round"/>
    <path fill="#CB7C06" d="M16.086 10.446h1.886v1.886h-1.886zM29.287 10.446h1.886v1.886h-1.886z"/>
</svg>
