<svg width="49" height="51" fill="none" xmlns="http://www.w3.org/2000/svg">
    <path d="M11.924 29.7c8.876 1.365 11.607-2.048 11.607-2.048l1.265-1.15a3.53 3.53 0 014.87.116l.068.068c.619.618.966 1.457.966 2.331v0" stroke="#CB7C06" stroke-width="1.5"/>
    <path d="M23.19 36.869l8.802-8.803a3 3 0 014.243 0l11.193 11.192" stroke="#FFC700" stroke-width="1.5"/>
    <path d="M1 33.455c11.289-10.1 21.285 2.548 23.69 6.002.37.531.873.955 1.474 1.196l4.929 1.971a3 3 0 001.976.088l5.245-1.573a3.293 3.293 0 001.053-.551c3.76-2.887 6.456-2.456 7.792-1.89.546.232.57.906.13 1.304l-5.717 5.172a5.001 5.001 0 01-1.414.9l-5.01 2.11c-.459.193-.945.317-1.442.366l-8.284.829a5 5 0 01-2.338-.326l-13.078-5.177a5 5 0 00-4.235.26l-1.699.926" stroke="#FFA800" stroke-width="1.5"/>
    <mask id="a" fill="#fff">
        <path d="M26.789 9.549l3.08-3.08a2.614 2.614 0 013.696 3.696l-3.08 3.08 3.234 3.234a2.396 2.396 0 01-3.388 3.388l-3.234-3.234-3.08 3.08a2.614 2.614 0 11-3.697-3.696l3.08-3.08-2.925-2.926a2.396 2.396 0 013.388-3.389l2.926 2.927z"/>
    </mask>
    <path d="M26.789 9.549l-1.06 1.06 1.06 1.06 1.06-1.06-1.06-1.06zm3.696 3.696l-1.06-1.061-1.061 1.06 1.06 1.061 1.061-1.06zm-3.388 3.388l1.06-1.06-1.06-1.061-1.06 1.06 1.06 1.06zM23.4 12.937l1.06 1.06 1.061-1.06-1.06-1.061-1.061 1.06zm5.407-7.53l-3.08 3.08 2.121 2.122 3.08-3.08-2.12-2.121zm3.697 3.697l-3.08 3.08 2.12 2.121 3.08-3.08-2.12-2.121zm-3.08 5.201l3.234 3.235 2.12-2.122-3.233-3.234-2.122 2.121zm1.967 4.501l-3.235-3.234-2.12 2.122 3.233 3.234 2.122-2.122zm-5.356-3.234l-3.08 3.08 2.121 2.122 3.08-3.08-2.12-2.122zm-4.655 1.506l3.08-3.08-2.121-2.122-3.08 3.08 2.121 2.122zm3.08-5.202L21.535 8.95l-2.121 2.121 2.926 2.926 2.121-2.121zm-1.659-4.193l2.926 2.926 2.121-2.121-2.926-2.926-2.121 2.121zM21.535 8.95a.896.896 0 010-1.267l-2.121-2.121a3.896 3.896 0 000 5.51l2.121-2.122zm-.154 9.702a1.114 1.114 0 010-1.575l-2.121-2.12a4.114 4.114 0 000 5.817l2.121-2.122zM32.66 17.54c.35.35.35.918 0 1.267l2.12 2.122a3.896 3.896 0 000-5.51l-2.12 2.122zm-9.703 1.113a1.113 1.113 0 01-1.575 0l-2.121 2.122a4.114 4.114 0 005.817 0l-2.121-2.122zM32.505 7.53c.434.435.434 1.14 0 1.575l2.12 2.121a4.114 4.114 0 000-5.817l-2.12 2.121zm.154 11.277a.896.896 0 01-1.267 0l-2.122 2.122a3.896 3.896 0 005.51 0l-2.121-2.122zM21.535 7.683a.896.896 0 011.267 0l2.121-2.121a3.896 3.896 0 00-5.51 0l2.122 2.121zm9.395-.154a1.114 1.114 0 011.575 0l2.12-2.121a4.114 4.114 0 00-5.817 0l2.122 2.121z" fill="#CB7C06" mask="url(#a)"/>
    <path d="M33.431 30.724h.683M37.528 34.138h.682M30.017 34.138h.683M27.286 38.234h.683M38.893 38.234h.683M33.431 36.869h.683" stroke="#FFA800" stroke-width="2" stroke-linecap="round" stroke-linejoin="round"/>
</svg>
