<svg width="48" height="59" fill="none" xmlns="http://www.w3.org/2000/svg">
    <path d="M15.837 16.783v6.878a5 5 0 01-1.439 3.51l-9.842 9.987a4.749 4.749 0 00-1.367 3.334v0a4.75 4.75 0 004.75 4.749h28.445a4.749 4.749 0 004.749-4.75v0a4.75 4.75 0 00-1.367-3.333l-9.842-9.987a5 5 0 01-1.439-3.51v-6.878" stroke="#FFC700" stroke-width="1.5"/>
    <path d="M7.494 37.806l3.332-3.594c.947-1.02 2.275-1.631 3.66-1.757 1.981-.179 4.62-.478 5.121-.713a85.62 85.62 0 003.158-1.646c2.036-1.109 4.613-.894 6.318.677l8.138 7.498c.175.161.324.348.442.553.895 1.557-.229 3.498-2.023 3.498H7.714a1.607 1.607 0 01-1.5-2.182l.277-.724a5 5 0 011.002-1.61z" stroke="#FFA800" stroke-width="1.5"/>
    <rect x="13.425" y="10.236" width="17.472" height="5.797" rx="2.898" stroke="#FFA800" stroke-width="1.5"/>
    <circle cx="26.539" cy="4.378" r="2.169" stroke="#CB7C06" stroke-width="1.5"/>
    <circle cx="18.513" cy="2.189" r="1.439" stroke="#FFA800" stroke-width="1.5"/>
    <path d="M1 49.027l45.45-35.676" stroke="#CB7C06" stroke-width="1.5" stroke-linecap="round"/>
</svg>
