<svg width="41" height="53" fill="none" xmlns="http://www.w3.org/2000/svg">
    <path d="M7.5 6V1H34v5l5.5 14v31.5h-38V20l6-14z" stroke="#FFC700" stroke-width="1.5"/>
    <path d="M15.5 5.5H26" stroke="#FFA800" stroke-width="1.5" stroke-linecap="round"/>
    <path d="M28.235 24.889l-.089.905.906-.086.695-.065.697.183.565.36.284.521.122.567-.071.485-.271.514-.463.434-.841.29-1.213.069-.042.002-.042.007-1.087.185-.086.014-.08.034-.898.38-.051.02-.048.03-.98.597-.045.028-.041.034-.937.773-.018.014-.016.016-5.672 5.293-.018.017-.017.019-1.007 1.073-.045.048-.035.054-.777 1.184-.049.074-.03.083-.5 1.383-.014.041-.01.044-.316 1.361-.277.868-.46.811-.866.584-.72.224-.778-.188-.577-.756-.35-.812-.056-.654.083-.475.188-1.079-1.074.214-.705.141-.564-.083-.542-.331-.512-.683-.13-.844.508-.929 1.134-.391 1.313-.114.043-.004.043-.008 1.352-.276.106-.022.095-.05 1.12-.595.083-.043.07-.064 1.261-1.144h0l.007-.006 6.339-5.887.017-.015.015-.017 1.178-1.236.09-.095.053-.119.578-1.306.03-.07.017-.073.352-1.608h0l.29-1.322.402-.76.81-.422.78.005.86.28.526.378.366.7.092.78-.05.51z" stroke="#CB7C06" stroke-width="1.5"/>
</svg>
