<svg width="27" height="27" fill="none" xmlns="http://www.w3.org/2000/svg">
    <path d="M26.767.232a.79.79 0 00-1.118 0l-1.973 1.973c-.945-.066-3.293-.064-4.74 1.382-1.445 1.447-1.448 3.795-1.382 4.74l-.79.79c.015-.164.023-.33.023-.498 0-2.092-1.28-3.86-2.057-4.74l1.69-1.69a.791.791 0 10-1.119-1.118l-2.237 2.237-.03.034c-.406.382-2.56 2.54-2.574 5.252a8.334 8.334 0 00-.783-.835.791.791 0 00-1.056 0c-.107.096-2.62 2.38-2.636 5.309a8.33 8.33 0 00-.783-.835.791.791 0 00-1.055 0c-.108.097-2.636 2.395-2.636 5.335 0 2.095 1.282 3.863 2.06 4.742L.23 25.65a.79.79 0 101.12 1.118l3.338-3.338c.879.777 2.647 2.06 4.742 2.06 2.94 0 5.238-2.53 5.335-2.637a.79.79 0 000-1.055 8.355 8.355 0 00-.835-.783c2.928-.015 5.213-2.53 5.31-2.636a.79.79 0 000-1.056 8.328 8.328 0 00-.836-.783c2.009-.01 3.851-1.17 5.286-2.604l2.237-2.237a.791.791 0 10-1.118-1.119l-1.69 1.69c-.88-.777-2.648-2.057-4.74-2.057a5.21 5.21 0 00-.498.024l.79-.791c.166.011.373.021.612.021 1.127 0 2.934-.21 4.128-1.404 1.446-1.446 1.448-3.794 1.382-4.739l1.973-1.973a.791.791 0 000-1.118zM13.625 5.019c.625.726 1.58 2.084 1.58 3.6 0 1.508-.958 2.872-1.583 3.6-.625-.725-1.58-2.083-1.58-3.6 0-1.508.958-2.871 1.583-3.6zm-1.312 8.1c.364.44.663.725.756.811.086.093.37.392.81.756a5.776 5.776 0 00-1.921.355c.213-.593.351-1.24.355-1.921zM9.15 9.494c.624.726 1.58 2.085 1.58 3.6 0 1.509-.959 2.873-1.583 3.601-.625-.726-1.58-2.084-1.58-3.6-.001-1.508.958-2.872 1.583-3.6zm-1.313 8.101c.364.44.663.724.756.81.086.093.371.393.81.757a5.775 5.775 0 00-1.92.354 5.78 5.78 0 00.354-1.92zM4.673 21.17c-.625-.726-1.58-2.084-1.58-3.6 0-1.509.958-2.872 1.583-3.601.625.726 1.58 2.084 1.58 3.6 0 1.508-.958 2.872-1.583 3.6zm4.758 2.737c-1.508 0-2.872-.958-3.6-1.583.725-.625 2.083-1.58 3.6-1.58 1.508 0 2.871.958 3.6 1.583-.726.625-2.084 1.58-3.6 1.58zm4.474-4.474c-1.508 0-2.872-.959-3.6-1.584.726-.624 2.084-1.58 3.6-1.58 1.508 0 2.872.959 3.6 1.583-.726.625-2.084 1.58-3.6 1.58zm4.475-7.638c1.508 0 2.871.958 3.6 1.583-.726.625-2.084 1.58-3.6 1.58-1.508 0-2.872-.958-3.6-1.583.725-.625 2.083-1.58 3.6-1.58zm3.913-4.85c-.858.857-2.336.958-3.174.938-.018-.84.085-2.324.937-3.176.857-.858 2.336-.959 3.173-.938.019.84-.084 2.323-.936 3.175z" fill="#C4C4C4"/>
</svg>
