<svg width="194" height="166" fill="none" xmlns="http://www.w3.org/2000/svg">
    <path d="M165.916 58.657a78.818 78.818 0 00-48.828-38.232C75.056 9.106 31.806 34.004 20.487 76.037a78.818 78.818 0 008.708 61.357c.032.055.03.125.063.175.328.543.71 1.031 1.048 1.559.933 1.417 1.856 2.872 2.865 4.269.545.73 1.118 1.466 1.692 2.157.976 1.236 1.952 2.472 3 3.652.72.777 1.468 1.56 2.21 2.342.986 1.023 1.965 2.05 3.006 3.023.883.821 1.808 1.57 2.72 2.346.998.851 1.98 1.697 3.019 2.501 1.039.803 2.113 1.5 3.186 2.242 1.073.743 1.992 1.409 3.036 2.063 1.182.731 2.42 1.383 3.64 2.054 1.017.559 1.992 1.147 3.055 1.665 1.422.702 2.896 1.301 4.365 1.917.907.383 1.778.815 2.705 1.162a79.67 79.67 0 007.444 2.404c2.538.68 5.09 1.217 7.649 1.64.977.163 1.947.225 2.924.346 1.58.202 3.155.42 4.738.523 1.148.074 2.324.039 3.479.086 1.392.029 2.79.082 4.179.04 1.231-.043 2.445-.173 3.661-.268 1.215-.094 2.592-.181 3.88-.349 1.288-.168 2.576-.424 3.864-.657 1.178-.215 2.355-.402 3.529-.67 1.388-.323 2.75-.723 4.116-1.115 1.033-.307 2.059-.563 3.083-.925 1.499-.497 2.962-1.079 4.425-1.662.854-.355 1.704-.652 2.544-1.022 1.568-.689 3.088-1.46 4.616-2.264.556-.289 1.131-.52 1.686-.827.054-.026.088-.087.143-.119 38.157-20.952 52.103-68.869 31.151-107.025zm-39.553 98.664a65.337 65.337 0 01-3.719 1.682 67.155 67.155 0 01-8.395 2.886 272.98 272.98 0 01-3.356.851c-.99.213-1.99.395-2.994.569a61.17 61.17 0 01-3.175.48 57.154 57.154 0 01-3.286.287c-1.005.069-2.012.149-3.018.177-1.176.035-2.386-.003-3.586-.033-.937-.029-1.871-.029-2.81-.093-1.358-.096-2.722-.275-4.094-.449-.777-.104-1.56-.167-2.337-.294a68.68 68.68 0 01-6.435-1.38 68.31 68.31 0 01-6.262-2.022c-.736-.279-1.446-.615-2.171-.915-1.275-.534-2.546-1.061-3.77-1.657-.846-.414-1.654-.881-2.48-1.325a78.284 78.284 0 01-3.122-1.764c-.857-.527-1.69-1.1-2.525-1.663a77.54 77.54 0 01-2.703-1.891c-.876-.649-1.688-1.322-2.51-2.003a68.692 68.692 0 01-2.308-1.99 51.702 51.702 0 01-2.48-2.415 70.384 70.384 0 01-1.891-1.983 62.651 62.651 0 01-2.46-2.842 66.32 66.32 0 01-1.477-1.872 68.881 68.881 0 01-2.38-3.316c-.19-.244-.347-.531-.526-.801 5.207-18.456 21.487-31.622 40.625-32.852a33.42 33.42 0 0027.735 7.431c15.958 10.634 23.474 30.176 18.755 48.764-.284.145-.557.294-.845.433zM86.405 58.993c8.705-8.905 22.98-9.068 31.884-.363 8.905 8.704 9.067 22.98.363 31.884a22.549 22.549 0 01-10.536 6.083c-.027-.007-.06-.016-.101.008a23.874 23.874 0 01-5.068.707c-.305.006-.596.045-.914.036-.583-.005-1.181-.06-1.768-.112a22.828 22.828 0 01-3.282-.535l-.62-.167a22.84 22.84 0 01-3.11-1.177c-.519-.244-1.07-.497-1.587-.787-.27-.148-.496-.326-.774-.487a23.868 23.868 0 01-4.035-3.148l-.09-.059c-8.904-8.704-9.066-22.979-.362-31.884zm53.355 89.686a56.645 56.645 0 00-19.095-45.34c15.762-10.022 20.416-30.924 10.395-46.686-10.022-15.763-30.924-20.416-46.686-10.395-14.819 9.422-19.962 28.616-11.84 44.184a56.647 56.647 0 00-39.206 29.719c-12.998-35.003 4.84-73.915 39.843-86.913 35.002-12.998 73.915 4.84 86.913 39.842A67.606 67.606 0 01162 114.157a67.203 67.203 0 01-22.24 34.522z" fill="#9C9C9C" opacity=".1"/>
</svg>
