<svg width="29" height="27" fill="none" xmlns="http://www.w3.org/2000/svg">
    <path d="M10.542 10.625C8.268 7.215 13.598 2.681 16.501 1c7.333 9.167 3.666 10.542 2.75 11-1.392.696-2.75.459-4.126-.458-.916.917-3.666.458-4.583-.917zM13.185 18.896c.907-3.998-5.69-6.33-9.002-6.865C.604 23.211 4.52 23.188 5.54 23.29c1.548.153 2.733-.554 3.69-1.9 1.184.529 3.59-.881 3.955-2.493zM15.815 20.73c-.907-3.998 5.69-6.331 9.002-6.865 3.579 11.18-.337 11.156-1.357 11.257-1.548.154-2.733-.553-3.69-1.9-1.184.529-3.59-.88-3.955-2.492z" stroke="#C4C4C4" stroke-width="1.6" stroke-linejoin="round"/>
    <path d="M16.326 4.964a.8.8 0 10-1.485-.594l1.486.594zm-1.866 7.022a.8.8 0 101.331-.888l-1.331.888zm.381-7.616c-.3.75-.815 1.995-1.053 3.343-.238 1.343-.227 2.925.672 4.273l1.331-.888c-.568-.852-.633-1.943-.428-3.106.205-1.158.652-2.25.963-3.028l-1.485-.594zM5.76 15.672a.8.8 0 111.176-1.085L5.76 15.672zm4.25 5.893a.8.8 0 01-1.56-.354l1.56.354zm-3.074-6.978c.548.594 1.474 1.573 2.177 2.747.701 1.17 1.255 2.652.897 4.231l-1.56-.354c.226-.999-.102-2.041-.71-3.054-.604-1.009-1.412-1.87-1.98-2.485l1.176-1.085zM23.24 17.506a.8.8 0 10-1.176-1.086l1.176 1.085zm-4.25 5.893a.8.8 0 001.56-.354l-1.56.354zm3.074-6.979c-.548.594-1.474 1.573-2.177 2.747-.701 1.17-1.256 2.652-.897 4.232l1.56-.354c-.226-1 .102-2.042.71-3.055.604-1.008 1.412-1.87 1.98-2.484l-1.176-1.086z" fill="#C4C4C4"/>
</svg>
