<svg width="30" height="30" fill="none" xmlns="http://www.w3.org/2000/svg">
    <g clip-path="url(#clip0)">
        <path d="M21.72 29.973H8.28a7.023 7.023 0 01-6.981-6.23L.039 12.685C-.34 9.765 2.097 7.034 5.042 7.08c1.553.061 1.553 2.28 0 2.342a2.66 2.66 0 00-2.01.9 2.66 2.66 0 00-.666 2.098l1.26 11.057a4.682 4.682 0 004.654 4.154h13.44a4.682 4.682 0 004.654-4.153l1.26-11.058a2.66 2.66 0 00-.667-2.098 2.66 2.66 0 00-2.009-.9c-1.553-.062-1.554-2.28 0-2.342 2.944-.046 5.382 2.685 5.003 5.605l-1.26 11.058a7.023 7.023 0 01-6.981 6.23zm-10.94-19.03V6.612c.235-5.672 8.315-5.667 8.548 0v.468h-5.035c-1.554.062-1.553 2.281 0 2.343h6.206c.647 0 1.171-.525 1.171-1.171V6.61c-.364-8.78-12.871-8.773-13.232 0v4.333a1.171 1.171 0 102.342 0zm.644 6.09c0 .809-.656 1.464-1.464 1.464-1.942-.077-1.941-2.85 0-2.928.808 0 1.464.656 1.464 1.464zm3.571-1.464c-.808 0-1.463.656-1.463 1.464.077 1.942 2.85 1.941 2.927 0 0-.808-.655-1.464-1.464-1.464zm5.036 0c-.808 0-1.464.656-1.464 1.464.077 1.942 2.85 1.941 2.928 0 0-.808-.656-1.464-1.464-1.464zM9.96 20.605c-.808 0-1.464.655-1.464 1.464.077 1.942 2.85 1.941 2.928 0 0-.809-.656-1.464-1.464-1.464zm5.035 0c-.808 0-1.463.655-1.463 1.464.077 1.942 2.85 1.941 2.927 0 0-.809-.655-1.464-1.464-1.464zm5.036 0c-.808 0-1.464.655-1.464 1.464.077 1.942 2.85 1.941 2.928 0 0-.809-.656-1.464-1.464-1.464z" fill="#000"/>
    </g>
    <defs>
        <clipPath id="clip0">
            <path fill="#fff" d="M0 0h30v30H0z"/>
        </clipPath>
    </defs>
</svg>
