<svg width="20" height="23" fill="none" xmlns="http://www.w3.org/2000/svg">
    <mask id="a" fill="#fff">
        <path d="M20 9.842c0 4.428-2.971 8.173-7.059 9.41C12.011 19.532 10 23 10 23s-2.33-3.52-3.387-3.895C2.757 17.74 0 14.108 0 9.842 0 4.406 4.477 0 10 0s10 4.406 10 9.842z"/>
    </mask>
    <path d="M10 23l-1.668 1.104 1.78 2.689 1.618-2.79L10 23zm-3.387-3.895l-.668 1.886.668-1.886zm6.328.147l.58 1.914-.58-1.914zM2 9.842C2 5.541 5.552 2 10 2v-4C3.403-2-2 3.272-2 9.842h4zM10 2c4.448 0 8 3.54 8 7.842h4C22 3.272 16.597-2 10-2v4zm0 21a1168.65 1168.65 0 001.668-1.104l-.001-.001-.002-.003a1.935 1.935 0 00-.03-.044 38.27 38.27 0 00-.377-.55c-.246-.352-.589-.83-.971-1.326a18.682 18.682 0 00-1.255-1.485 7.624 7.624 0 00-.72-.668 3.609 3.609 0 00-1.031-.599l-1.336 3.77c-.178-.063-.23-.127-.133-.049.073.06.185.161.333.316.296.308.636.72.974 1.157a32.098 32.098 0 011.124 1.556l.069.103.016.025.004.005v.001L10 23zm-2.72-5.78C4.183 16.122 2 13.218 2 9.842h-4c0 5.155 3.332 9.514 7.945 11.149l1.336-3.77zM18 9.842c0 3.504-2.353 6.502-5.638 7.495l1.158 3.829C18.41 19.687 22 15.194 22 9.842h-4zm-5.638 7.495c-.507.154-.89.447-1.105.629-.248.21-.476.448-.672.672-.395.45-.784.983-1.112 1.461a32.344 32.344 0 00-1.175 1.849l-.02.034-.005.01a.302.302 0 00-.002.003v.001L10 23l1.73 1.004.003-.006.014-.024a20.79 20.79 0 01.284-.47c.193-.313.455-.725.74-1.14.29-.425.579-.811.823-1.09.123-.14.205-.22.245-.253.072-.061-.044.062-.319.145l-1.158-3.829z" fill="#FFC700" mask="url(#a)"/>
    <circle cx="10" cy="10" r="3" stroke="#fff" stroke-width="2"/>
</svg>
