<svg width="155" height="96" fill="none" xmlns="http://www.w3.org/2000/svg">
    <path d="M3.587 90v-8.402h3.06c.937 0 1.657.171 2.161.515s.756.828.756 1.453c0 .453-.154.85-.463 1.19-.305.34-.695.576-1.172.709v.023c.598.075 1.075.295 1.43.662.36.368.539.815.539 1.342 0 .77-.275 1.381-.826 1.834-.55.45-1.303.674-2.256.674H3.588zm1.893-7.008v1.992h.832c.39 0 .697-.093.92-.28.227-.192.34-.454.34-.786 0-.617-.461-.926-1.383-.926H5.48zm0 3.399v2.215h1.025c.438 0 .78-.102 1.026-.305.25-.203.375-.48.375-.832 0-.336-.123-.6-.37-.791-.241-.192-.581-.287-1.019-.287H5.48zM19.275 90h-2.062l-.598-1.87h-2.988L13.035 90h-2.05l3.058-8.402h2.244L19.275 90zm-3.093-3.322l-.903-2.825a3.678 3.678 0 01-.14-.755h-.047c-.02.246-.069.49-.147.732l-.914 2.848h2.15zM31.137 90H20.924v-8.402h1.893v6.785h2.267v-6.785h1.887v6.785h2.268v-6.785h1.898V90zm9.916 0h-2.062l-.598-1.87h-2.988L34.813 90h-2.05l3.058-8.402h2.244L41.054 90zm-3.093-3.322l-.903-2.825a3.678 3.678 0 01-.14-.755h-.047a3.2 3.2 0 01-.147.732l-.914 2.848h2.15zM53.603 90h-2.39l-2.45-3.65a3.497 3.497 0 01-.222-.463h-.03V90H46.62v-8.402h1.892v3.972h.03a6.38 6.38 0 01.234-.468l2.32-3.504h2.256l-2.93 4.008L53.604 90zm4.526.147c-1.203 0-2.184-.391-2.941-1.172-.758-.785-1.137-1.807-1.137-3.065 0-1.328.384-2.402 1.154-3.222.77-.82 1.79-1.231 3.059-1.231 1.199 0 2.168.393 2.906 1.178.742.785 1.113 1.82 1.113 3.105 0 1.32-.385 2.385-1.154 3.194-.766.808-1.766 1.213-3 1.213zm.082-7.061c-.664 0-1.191.25-1.582.75-.39.496-.586 1.154-.586 1.975 0 .832.195 1.49.586 1.974.39.484.902.727 1.535.727.652 0 1.17-.235 1.553-.703.383-.473.574-1.127.574-1.963 0-.871-.185-1.55-.557-2.034-.37-.484-.879-.726-1.523-.726zm7.965 4.02V90h-1.892v-8.402h2.964c2.118 0 3.176.892 3.176 2.677 0 .844-.305 1.528-.914 2.051-.605.52-1.416.78-2.431.78h-.903zm0-4.055v2.619h.744c1.008 0 1.512-.442 1.512-1.324 0-.864-.504-1.295-1.512-1.295h-.744zm5.434 6.638v-1.658c.668.45 1.428.674 2.28.674 1.054 0 1.582-.38 1.582-1.142 0-.774-.58-1.16-1.74-1.16h-1.079v-1.419h1.031c1.032 0 1.547-.363 1.547-1.09 0-.663-.44-.996-1.318-.996-.629 0-1.3.2-2.016.598V81.95c.719-.328 1.514-.492 2.385-.492.918 0 1.629.191 2.133.574.508.38.762.895.762 1.547 0 .512-.145.947-.434 1.307-.285.355-.693.596-1.225.72v.03c.598.078 1.065.295 1.4.65.34.352.51.79.51 1.313 0 .808-.292 1.435-.878 1.88-.586.446-1.43.669-2.532.669-1.046 0-1.85-.153-2.408-.458zm15.4.311h-1.786v-4.617c0-.531.02-.985.058-1.36h-.035c-.082.16-.222.393-.422.698L81.357 90h-1.905v-8.402h1.788v4.646c0 .574-.016.96-.047 1.154h.023c.02-.046.164-.275.434-.685l3.334-5.115h2.027V90zm9.806 0h-1.898v-3.422h-3.48V90h-1.894v-8.402h1.893v3.351h3.48v-3.351h1.899V90zm9.916 0h-2.062l-.598-1.87h-2.988l-.592 1.87h-2.05l3.058-8.402h2.244L106.732 90zm-3.093-3.322l-.903-2.825a3.687 3.687 0 01-.14-.755h-.047c-.02.246-.069.49-.147.732l-.914 2.848h2.151zM119.563 90h-1.892v-6.75h-3.481V90h-1.892v-8.402h7.265V90zm8.991-8.402l-2.631 5.76c-.492 1.078-.957 1.812-1.394 2.203-.438.39-.993.585-1.665.585-.445 0-.808-.064-1.089-.193v-1.728c.32.207.652.31.996.31.472 0 .888-.383 1.248-1.148l-2.76-5.79h2.156l1.395 3.364c.082.203.146.432.193.686h.012c.043-.212.109-.432.199-.663l1.348-3.386h1.992zm7.362 8.103c-.614.297-1.414.446-2.403.446-1.289 0-2.302-.38-3.041-1.137-.738-.758-1.107-1.768-1.107-3.03 0-1.343.414-2.433 1.242-3.27.832-.835 1.91-1.253 3.234-1.253.821 0 1.512.104 2.075.31v1.823c-.563-.336-1.204-.504-1.922-.504-.789 0-1.426.248-1.91.744-.485.496-.727 1.168-.727 2.016 0 .812.229 1.46.686 1.945.457.48 1.072.72 1.845.72a3.94 3.94 0 002.028-.538V89.7zm7.965-6.562h-2.397V90h-1.898v-6.861h-2.385v-1.541h6.68v1.54zM152.286 90h-2.063l-.598-1.87h-2.988l-.592 1.87h-2.05l3.058-8.402h2.244L152.286 90zm-3.094-3.322l-.903-2.825a3.687 3.687 0 01-.14-.755h-.047c-.02.246-.068.49-.147.732l-.914 2.848h2.151z" fill="#E5E5E5"/>
    <path d="M44.334 20.231a4 4 0 013.904-4.87h59.524a4 4 0 013.904 4.87l-6.497 29.14a9.001 9.001 0 01-8.785 7.041H59.616a9 9 0 01-8.785-7.04l-6.497-29.14z" stroke="#E5E5E5" stroke-width="2"/>
    <path stroke="#E5E5E5" stroke-width="2" stroke-linecap="round" stroke-linejoin="round" d="M79.371 28.722v14.33M89.763 28.722v14.33M91.225 1.708l4.451 16.614M64.944 1.707l-4.452 16.614M68.98 28.722v14.33"/>
</svg>
