<svg width="20" height="20" fill="none" xmlns="http://www.w3.org/2000/svg">
    <path d="M14.495 12.389l-.008.06c-1.81-.88-2-.997-2.234-.655-.162.237-.635.774-.777.933-.144.157-.287.169-.532.06-.247-.12-1.04-.373-1.979-1.192-.73-.639-1.222-1.422-1.367-1.663-.24-.406.264-.464.723-1.312.083-.169.04-.302-.02-.421-.062-.12-.554-1.301-.76-1.772-.197-.47-.4-.41-.553-.41-.474-.04-.82-.033-1.126.277-1.33 1.424-.994 2.894.143 4.457 2.235 2.853 3.426 3.378 5.603 4.108.588.182 1.124.156 1.548.097.473-.073 1.455-.58 1.66-1.145.21-.567.21-1.037.148-1.145-.06-.108-.222-.169-.47-.277z" fill="#fff"/>
    <path d="M17.1 2.874C10.692-3.32.088 1.173.084 9.911c0 1.747.458 3.45 1.33 4.954L0 20l5.28-1.377c6.587 3.559 14.717-1.166 14.72-8.707a9.828 9.828 0 00-2.913-7.009l.013-.033zm1.235 7.015c-.005 6.36-6.988 10.333-12.51 7.086l-.3-.178-3.125.812.837-3.037-.199-.313C-.398 8.79 3.55 1.64 10.06 1.64c2.212 0 4.287.862 5.85 2.425a8.157 8.157 0 012.425 5.825z" fill="#FFC700"/>
</svg>
