<svg width="17" height="17" fill="none" xmlns="http://www.w3.org/2000/svg">
    <g clip-path="url(#clip0)" fill="#fff">
        <path d="M16.983 4.998c-.04-.903-.186-1.524-.395-2.062a4.148 4.148 0 00-.983-1.508 4.185 4.185 0 00-1.504-.98C13.559.24 12.94.093 12.038.053 11.129.01 10.84 0 8.533 0 6.223 0 5.935.01 5.028.05c-.903.04-1.524.186-2.062.395a4.148 4.148 0 00-1.508.983c-.432.425-.767.94-.98 1.504-.21.542-.355 1.16-.395 2.063C.04 5.905.03 6.194.03 8.502s.01 2.597.05 3.503c.04.903.186 1.524.395 2.063.216.57.551 1.082.983 1.507.425.432.94.768 1.504.98.542.21 1.16.355 2.063.395.906.04 1.195.05 3.503.05s2.597-.01 3.504-.05c.903-.04 1.524-.186 2.062-.395a4.348 4.348 0 002.488-2.487c.209-.542.355-1.16.395-2.063.04-.906.05-1.195.05-3.503s-.004-2.597-.044-3.504zm-1.53 6.94c-.037.831-.177 1.28-.293 1.578a2.82 2.82 0 01-1.614 1.614c-.299.117-.75.256-1.577.292-.897.04-1.166.05-3.434.05-2.268 0-2.54-.01-3.434-.05-.83-.036-1.279-.175-1.578-.292a2.617 2.617 0 01-.976-.634 2.644 2.644 0 01-.634-.976c-.116-.3-.256-.75-.292-1.578-.04-.896-.05-1.165-.05-3.434 0-2.268.01-2.54.05-3.434.036-.83.176-1.278.292-1.577.136-.369.352-.704.638-.976.275-.283.607-.499.976-.635.299-.116.75-.255 1.577-.292.897-.04 1.166-.05 3.434-.05 2.272 0 2.54.01 3.434.05.83.037 1.279.176 1.578.292.368.136.704.352.976.635.282.275.498.607.634.976.116.299.256.75.293 1.577.04.897.05 1.166.05 3.434 0 2.269-.01 2.534-.05 3.43z"/>
        <path d="M8.532 4.135a4.368 4.368 0 000 8.734 4.368 4.368 0 000-8.734zm0 7.2a2.833 2.833 0 110-5.667 2.833 2.833 0 010 5.667zM14.09 3.962a1.02 1.02 0 11-2.038 0 1.02 1.02 0 012.039 0z"/>
    </g>
    <defs>
        <clipPath id="clip0">
            <path fill="#fff" d="M0 0h17v17H0z"/>
        </clipPath>
    </defs>
</svg>
