<svg width="28" height="28" fill="none" xmlns="http://www.w3.org/2000/svg">
    <mask id="a" maskUnits="userSpaceOnUse" x="0" y="0" width="28" height="28" fill="#000">
        <path fill="#fff" d="M0 0h28v28H0z"/>
        <path d="M26.588 1.867a.434.434 0 10-.043-.866 33 33 0 00-4.371.624 36.432 36.432 0 00-10.282 3.691l-.026.014a28.41 28.41 0 00-1.568.94c-3.145 2.034-5.663 6.068-7.491 11.99a51.344 51.344 0 00-1.804 8.257.434.434 0 10.86.099c.011-.099.785-6.562 3.337-12.285l3.611 2.71a1.865 1.865 0 00-.764.6C6.8 19.292 7.83 23.066 7.95 23.49a.434.434 0 00.85-.118c0-1.41.693-2.39 1.3-3.18.606.79 1.3 1.77 1.3 3.18a.433.433 0 00.85.12c.12-.425 1.15-4.2-.097-5.85a1.945 1.945 0 00-1.62-.77 1.066 1.066 0 00-.397.08L5.57 13.53c1.288-2.67 2.984-5.097 5.197-6.53.434-.28.872-.546 1.315-.796l3.172 2.195a1.87 1.87 0 00-.709.576c-1.246 1.652-.216 5.426-.096 5.85a.433.433 0 00.85-.118c0-1.41.693-2.39 1.3-3.18.606.79 1.3 1.77 1.3 3.18a.433.433 0 00.85.119c.12-.425 1.15-4.199-.097-5.85a1.946 1.946 0 00-1.62-.77c-.14.003-.28.032-.409.087l-3.689-2.554a35.863 35.863 0 019.14-3.206l1.061 1.811a1.883 1.883 0 00-1.223.73c-1.247 1.653-.217 5.427-.097 5.85a.433.433 0 00.85-.117c0-1.41.694-2.39 1.3-3.18.607.79 1.3 1.77 1.3 3.18a.433.433 0 00.85.119c.121-.425 1.15-4.199-.097-5.85a1.946 1.946 0 00-1.62-.77 1.054 1.054 0 00-.26.037l-1.165-1.99a30.91 30.91 0 013.614-.485zM8.393 21.287c-.147-1.166-.15-2.47.346-3.125.218-.289.567-.448.927-.423a.255.255 0 01.13.043l.035.027a.591.591 0 01.154.204l.018.04a1.347 1.347 0 01.049.147l.012.043c.009.043.016.087.021.135 0 .011.004.02.005.031.007.065.01.13.01.194a1.843 1.843 0 01-.347.614v.003l-.217.287a8.83 8.83 0 00-1.143 1.78zm3.068-3.125c.496.657.492 1.958.346 3.125a8.842 8.842 0 00-1.137-1.777l-.03-.04c.048-.072.09-.144.13-.216l.017-.033a1.833 1.833 0 00.101-.221 1.39 1.39 0 00.044-.14l.015-.06c.013-.065.02-.13.02-.195 0-.142-.011-.284-.035-.424-.006-.043-.02-.08-.029-.122a2.028 2.028 0 00-.067-.249c-.005-.015-.007-.032-.013-.046a1 1 0 01.638.396v.002zm3.432-5.54c-.147-1.168-.15-2.47.346-3.127a1.07 1.07 0 01.927-.423.25.25 0 01.111.032l.059.04a.599.599 0 01.149.202l.018.038a1.132 1.132 0 01.049.15l.012.043c.009.044.016.087.021.136 0 .01.004.02.005.03.006.065.01.13.01.194a1.843 1.843 0 01-.347.614v.003a18.99 18.99 0 01-.219.287 8.824 8.824 0 00-1.141 1.78zm3.068-3.127c.496.658.492 1.959.346 3.125a8.839 8.839 0 00-1.137-1.777l-.03-.039c.048-.073.09-.144.13-.217.006-.01.01-.021.017-.032a1.86 1.86 0 00.101-.222 1.36 1.36 0 00.044-.14l.015-.06c.013-.064.02-.13.02-.195 0-.142-.011-.283-.035-.424-.006-.043-.02-.08-.028-.121a2.038 2.038 0 00-.068-.25c-.005-.014-.007-.032-.013-.046a1 1 0 01.638.397v.001zm4.298-.773c-.147-1.168-.15-2.47.347-3.126.217-.29.566-.448.927-.424a.26.26 0 01.152.055l.003.002c.004.003.005.008.009.01a.602.602 0 01.154.207l.018.038a1.217 1.217 0 01.05.15l.011.043c.01.044.016.087.022.136 0 .01.003.02.004.03.007.065.01.13.01.195a1.842 1.842 0 01-.347.613v.004a20.11 20.11 0 01-.218.286 8.823 8.823 0 00-1.142 1.78zm3.068-3.126c.496.657.493 1.958.347 3.124a8.833 8.833 0 00-1.137-1.776l-.03-.04c.048-.073.09-.144.13-.216l.016-.033a1.805 1.805 0 00.102-.222c.017-.045.031-.092.043-.14.005-.02.012-.04.015-.06.013-.064.02-.13.02-.195 0-.142-.01-.283-.034-.423-.007-.044-.02-.081-.029-.122a2.02 2.02 0 00-.068-.25c-.005-.014-.007-.031-.012-.046a1 1 0 01.637.397v.002z"/>
    </mask>
    <path d="M26.588 1.867a.434.434 0 10-.043-.866 33 33 0 00-4.371.624 36.432 36.432 0 00-10.282 3.691l-.026.014a28.41 28.41 0 00-1.568.94c-3.145 2.034-5.663 6.068-7.491 11.99a51.344 51.344 0 00-1.804 8.257.434.434 0 10.86.099c.011-.099.785-6.562 3.337-12.285l3.611 2.71a1.865 1.865 0 00-.764.6C6.8 19.292 7.83 23.066 7.95 23.49a.434.434 0 00.85-.118c0-1.41.693-2.39 1.3-3.18.606.79 1.3 1.77 1.3 3.18a.433.433 0 00.85.12c.12-.425 1.15-4.2-.097-5.85a1.945 1.945 0 00-1.62-.77 1.066 1.066 0 00-.397.08L5.57 13.53c1.288-2.67 2.984-5.097 5.197-6.53.434-.28.872-.546 1.315-.796l3.172 2.195a1.87 1.87 0 00-.709.576c-1.246 1.652-.216 5.426-.096 5.85a.433.433 0 00.85-.118c0-1.41.693-2.39 1.3-3.18.606.79 1.3 1.77 1.3 3.18a.433.433 0 00.85.119c.12-.425 1.15-4.199-.097-5.85a1.946 1.946 0 00-1.62-.77c-.14.003-.28.032-.409.087l-3.689-2.554a35.863 35.863 0 019.14-3.206l1.061 1.811a1.883 1.883 0 00-1.223.73c-1.247 1.653-.217 5.427-.097 5.85a.433.433 0 00.85-.117c0-1.41.694-2.39 1.3-3.18.607.79 1.3 1.77 1.3 3.18a.433.433 0 00.85.119c.121-.425 1.15-4.199-.097-5.85a1.946 1.946 0 00-1.62-.77 1.054 1.054 0 00-.26.037l-1.165-1.99a30.91 30.91 0 013.614-.485zM8.393 21.287c-.147-1.166-.15-2.47.346-3.125.218-.289.567-.448.927-.423a.255.255 0 01.13.043l.035.027a.591.591 0 01.154.204l.018.04a1.347 1.347 0 01.049.147l.012.043c.009.043.016.087.021.135 0 .011.004.02.005.031.007.065.01.13.01.194a1.843 1.843 0 01-.347.614v.003l-.217.287a8.83 8.83 0 00-1.143 1.78zm3.068-3.125c.496.657.492 1.958.346 3.125a8.842 8.842 0 00-1.137-1.777l-.03-.04c.048-.072.09-.144.13-.216l.017-.033a1.833 1.833 0 00.101-.221 1.39 1.39 0 00.044-.14l.015-.06c.013-.065.02-.13.02-.195 0-.142-.011-.284-.035-.424-.006-.043-.02-.08-.029-.122a2.028 2.028 0 00-.067-.249c-.005-.015-.007-.032-.013-.046a1 1 0 01.638.396v.002zm3.432-5.54c-.147-1.168-.15-2.47.346-3.127a1.07 1.07 0 01.927-.423.25.25 0 01.111.032l.059.04a.599.599 0 01.149.202l.018.038a1.132 1.132 0 01.049.15l.012.043c.009.044.016.087.021.136 0 .01.004.02.005.03.006.065.01.13.01.194a1.843 1.843 0 01-.347.614v.003a18.99 18.99 0 01-.219.287 8.824 8.824 0 00-1.141 1.78zm3.068-3.127c.496.658.492 1.959.346 3.125a8.839 8.839 0 00-1.137-1.777l-.03-.039c.048-.073.09-.144.13-.217.006-.01.01-.021.017-.032a1.86 1.86 0 00.101-.222 1.36 1.36 0 00.044-.14l.015-.06c.013-.064.02-.13.02-.195 0-.142-.011-.283-.035-.424-.006-.043-.02-.08-.028-.121a2.038 2.038 0 00-.068-.25c-.005-.014-.007-.032-.013-.046a1 1 0 01.638.397v.001zm4.298-.773c-.147-1.168-.15-2.47.347-3.126.217-.29.566-.448.927-.424a.26.26 0 01.152.055l.003.002c.004.003.005.008.009.01a.602.602 0 01.154.207l.018.038a1.217 1.217 0 01.05.15l.011.043c.01.044.016.087.022.136 0 .01.003.02.004.03.007.065.01.13.01.195a1.842 1.842 0 01-.347.613v.004a20.11 20.11 0 01-.218.286 8.823 8.823 0 00-1.142 1.78zm3.068-3.126c.496.657.493 1.958.347 3.124a8.833 8.833 0 00-1.137-1.776l-.03-.04c.048-.073.09-.144.13-.216l.016-.033a1.805 1.805 0 00.102-.222c.017-.045.031-.092.043-.14.005-.02.012-.04.015-.06.013-.064.02-.13.02-.195 0-.142-.01-.283-.034-.423-.007-.044-.02-.081-.029-.122a2.02 2.02 0 00-.068-.25c-.005-.014-.007-.031-.012-.046a1 1 0 01.637.397v.002z" fill="#C4C4C4"/>
    <path d="M26.588 1.867a.434.434 0 10-.043-.866 33 33 0 00-4.371.624 36.432 36.432 0 00-10.282 3.691l-.026.014a28.41 28.41 0 00-1.568.94c-3.145 2.034-5.663 6.068-7.491 11.99a51.344 51.344 0 00-1.804 8.257.434.434 0 10.86.099c.011-.099.785-6.562 3.337-12.285l3.611 2.71a1.865 1.865 0 00-.764.6C6.8 19.292 7.83 23.066 7.95 23.49a.434.434 0 00.85-.118c0-1.41.693-2.39 1.3-3.18.606.79 1.3 1.77 1.3 3.18a.433.433 0 00.85.12c.12-.425 1.15-4.2-.097-5.85a1.945 1.945 0 00-1.62-.77 1.066 1.066 0 00-.397.08L5.57 13.53c1.288-2.67 2.984-5.097 5.197-6.53.434-.28.872-.546 1.315-.796l3.172 2.195a1.87 1.87 0 00-.709.576c-1.246 1.652-.216 5.426-.096 5.85a.433.433 0 00.85-.118c0-1.41.693-2.39 1.3-3.18.606.79 1.3 1.77 1.3 3.18a.433.433 0 00.85.119c.12-.425 1.15-4.199-.097-5.85a1.946 1.946 0 00-1.62-.77c-.14.003-.28.032-.409.087l-3.689-2.554a35.863 35.863 0 019.14-3.206l1.061 1.811a1.883 1.883 0 00-1.223.73c-1.247 1.653-.217 5.427-.097 5.85a.433.433 0 00.85-.117c0-1.41.694-2.39 1.3-3.18.607.79 1.3 1.77 1.3 3.18a.433.433 0 00.85.119c.121-.425 1.15-4.199-.097-5.85a1.946 1.946 0 00-1.62-.77 1.054 1.054 0 00-.26.037l-1.165-1.99a30.91 30.91 0 013.614-.485zM8.393 21.287c-.147-1.166-.15-2.47.346-3.125.218-.289.567-.448.927-.423a.255.255 0 01.13.043l.035.027a.591.591 0 01.154.204l.018.04a1.347 1.347 0 01.049.147l.012.043c.009.043.016.087.021.135 0 .011.004.02.005.031.007.065.01.13.01.194a1.843 1.843 0 01-.347.614v.003l-.217.287a8.83 8.83 0 00-1.143 1.78zm3.068-3.125c.496.657.492 1.958.346 3.125a8.842 8.842 0 00-1.137-1.777l-.03-.04c.048-.072.09-.144.13-.216l.017-.033a1.833 1.833 0 00.101-.221 1.39 1.39 0 00.044-.14l.015-.06c.013-.065.02-.13.02-.195 0-.142-.011-.284-.035-.424-.006-.043-.02-.08-.029-.122a2.028 2.028 0 00-.067-.249c-.005-.015-.007-.032-.013-.046a1 1 0 01.638.396v.002zm3.432-5.54c-.147-1.168-.15-2.47.346-3.127a1.07 1.07 0 01.927-.423.25.25 0 01.111.032l.059.04a.599.599 0 01.149.202l.018.038a1.132 1.132 0 01.049.15l.012.043c.009.044.016.087.021.136 0 .01.004.02.005.03.006.065.01.13.01.194a1.843 1.843 0 01-.347.614v.003a18.99 18.99 0 01-.219.287 8.824 8.824 0 00-1.141 1.78zm3.068-3.127c.496.658.492 1.959.346 3.125a8.839 8.839 0 00-1.137-1.777l-.03-.039c.048-.073.09-.144.13-.217.006-.01.01-.021.017-.032a1.86 1.86 0 00.101-.222 1.36 1.36 0 00.044-.14l.015-.06c.013-.064.02-.13.02-.195 0-.142-.011-.283-.035-.424-.006-.043-.02-.08-.028-.121a2.038 2.038 0 00-.068-.25c-.005-.014-.007-.032-.013-.046a1 1 0 01.638.397v.001zm4.298-.773c-.147-1.168-.15-2.47.347-3.126.217-.29.566-.448.927-.424a.26.26 0 01.152.055l.003.002c.004.003.005.008.009.01a.602.602 0 01.154.207l.018.038a1.217 1.217 0 01.05.15l.011.043c.01.044.016.087.022.136 0 .01.003.02.004.03.007.065.01.13.01.195a1.842 1.842 0 01-.347.613v.004a20.11 20.11 0 01-.218.286 8.823 8.823 0 00-1.142 1.78zm3.068-3.126c.496.657.493 1.958.347 3.124a8.833 8.833 0 00-1.137-1.776l-.03-.04c.048-.073.09-.144.13-.216l.016-.033a1.805 1.805 0 00.102-.222c.017-.045.031-.092.043-.14.005-.02.012-.04.015-.06.013-.064.02-.13.02-.195 0-.142-.01-.283-.034-.423-.007-.044-.02-.081-.029-.122a2.02 2.02 0 00-.068-.25c-.005-.014-.007-.031-.012-.046a1 1 0 01.637.397v.002z" stroke="#C4C4C4" stroke-width=".6" mask="url(#a)"/>
</svg>
