<svg width="23" height="29" fill="none" xmlns="http://www.w3.org/2000/svg">
    <path d="M21.525 29a1.133 1.133 0 01-1.132-1.133c0-4.435-3.608-8.043-8.043-8.043h-1.7c-4.435 0-8.043 3.608-8.043 8.043a1.133 1.133 0 01-2.265 0c0-5.684 4.624-10.308 10.308-10.308h1.7c5.684 0 10.308 4.624 10.308 10.308 0 .626-.507 1.133-1.133 1.133zM11.387 15.293c-4.217 0-7.647-3.43-7.647-7.647C3.74 3.43 7.17 0 11.387 0c4.216 0 7.646 3.43 7.646 7.646 0 4.217-3.43 7.647-7.646 7.647zm0-13.027a5.387 5.387 0 00-5.381 5.38 5.387 5.387 0 005.38 5.381 5.387 5.387 0 005.382-5.38 5.387 5.387 0 00-5.381-5.381z" fill="#000"/>
</svg>
