<svg width="27" height="33" fill="none" xmlns="http://www.w3.org/2000/svg">
    <path d="M25.845 1.934h.069a.967.967 0 100-1.934H3.649A3.56 3.56 0 00.094 3.556v25.889A3.56 3.56 0 003.649 33h19.676a3.56 3.56 0 003.556-3.555V8.733c0-.976-.396-1.862-1.036-2.505V1.934zm-22.196 0h20.262v3.293a3.573 3.573 0 00-.586-.05H3.649a1.624 1.624 0 01-1.622-1.621c0-.895.728-1.622 1.622-1.622zm21.298 27.51c0 .895-.728 1.622-1.622 1.622H3.649a1.624 1.624 0 01-1.622-1.621V6.719c.487.251 1.038.393 1.622.393h19.676a1.614 1.614 0 011.008.352c.374.298.614.756.614 1.27v20.71z" fill="#fff"/>
    <path d="M17.111 12.323c-.09 0-.18.003-.27.008a4.605 4.605 0 00-3.354-1.458 4.604 4.604 0 00-3.354 1.458 4.596 4.596 0 00-4.861 4.583 4.6 4.6 0 003.624 4.489v4.935c0 .534.433.966.967.966h7.248a.967.967 0 00.967-.966v-4.935a4.6 4.6 0 003.625-4.489 4.597 4.597 0 00-4.592-4.591zM10.83 25.37v-1.173h5.315v1.173H10.83zm6.281-5.8a.967.967 0 00-.967.968v1.725H10.83V20.54a.967.967 0 00-.966-.967 2.66 2.66 0 01-2.658-2.658 2.66 2.66 0 013.156-2.61c.37.07.746-.08.966-.386a2.666 2.666 0 012.16-1.111c.854 0 1.661.415 2.16 1.11.22.306.596.457.966.387a2.66 2.66 0 013.157 2.61 2.661 2.661 0 01-2.659 2.658z" fill="#fff"/>
</svg>
