<svg width="28" height="25" fill="none" xmlns="http://www.w3.org/2000/svg">
    <path d="M26.203 8.369a4.187 4.187 0 00-2.38-1.137l3.286-3.166-1.16-1.118-1.116 1.076a3.921 3.921 0 00-1.18-2.293L21.856 0l-2.098 2.021a3.907 3.907 0 000 5.665l.637.613-1.64 1.58a3.93 3.93 0 00-1.177-2.295l-1.797-1.731-2.098 2.021a3.907 3.907 0 000 5.665l.637.613-1.637 1.577a3.922 3.922 0 00-1.18-2.292l-1.797-1.732-2.098 2.022a3.907 3.907 0 000 5.664l.637.614-2.699 2.6c-1.11 1.07-2.917 1.07-4.027 0l-.359-.346L0 23.377l.358.345a4.563 4.563 0 003.174 1.265c1.15 0 2.3-.422 3.175-1.265l.528-.51.637.615A4.211 4.211 0 0010.812 25a4.21 4.21 0 002.94-1.173l2.098-2.022-1.797-1.73a4.187 4.187 0 00-2.38-1.137l1.637-1.578.637.614a4.211 4.211 0 002.94 1.173c1.11 0 2.155-.416 2.94-1.173l2.098-2.021-1.797-1.731a4.187 4.187 0 00-2.38-1.137l1.637-1.578.637.614a4.212 4.212 0 002.94 1.173c1.11 0 2.155-.416 2.94-1.173L28 10.1l-1.797-1.731zm-4.648-1.187l-.637-.614a2.365 2.365 0 010-3.429l.938-.903.637.613a2.365 2.365 0 010 3.429l-.938.904zm-6.712 5.239a2.365 2.365 0 010-3.43l.938-.903.637.614a2.365 2.365 0 010 3.428l-.938.904-.637-.613zm-6.075 5.853a2.365 2.365 0 010-3.43l.938-.903.637.613a2.365 2.365 0 010 3.429l-.938.904-.637-.613zm4.762 3.531l-.938.904a2.55 2.55 0 01-1.78.71 2.55 2.55 0 01-1.78-.71l-.636-.613.938-.904a2.55 2.55 0 011.78-.71c.672 0 1.304.252 1.78.71l.636.613zm6.075-5.852l-.938.903a2.55 2.55 0 01-1.78.71 2.549 2.549 0 01-1.78-.71l-.636-.613.938-.904a2.55 2.55 0 011.78-.71 2.55 2.55 0 011.78.71l.636.614zm5.137-4.95a2.55 2.55 0 01-1.78.71 2.55 2.55 0 01-1.78-.71l-.636-.613.938-.903a2.55 2.55 0 011.78-.71c.672 0 1.304.252 1.779.71l.637.613-.938.904z" fill="#C4C4C4"/>
</svg>
