<svg width="43" height="31" fill="none" xmlns="http://www.w3.org/2000/svg">
    <path d="M4.569 24.986c1.237.433 2.934.334 5.042-.296 1.456-.434 3.087-1.131 4.565-1.944 1.226 1.524 2.897 2.496 4.766 2.758 2.104.296 4.22-.334 5.959-1.771a.747.747 0 00.161-.966l-.03-.047c1.42-.193 2.795-.804 3.978-1.783a.747.747 0 00.162-.965l-.03-.047c1.42-.194 2.794-.804 3.978-1.783a.747.747 0 00.161-.966l-.03-.047c1.42-.194 2.793-.804 3.976-1.782a.747.747 0 00.162-.966 8.122 8.122 0 00-2.274-2.443c1.725-1.371 2.843-3.427 3.122-5.806a.747.747 0 00-.55-.81c-1.748-.464-3.502-.414-5.08.114-.508.17-.997.392-1.463.66a8.122 8.122 0 00-1.436-3.018.748.748 0 00-.958-.204c-1.345.743-2.416 1.798-3.117 3.046l-.034-.046a.748.748 0 00-.959-.205c-1.345.743-2.416 1.798-3.116 3.045l-.033-.045a.747.747 0 00-.958-.205c-1.347.744-2.418 1.798-3.118 3.046l-.033-.045a.748.748 0 00-.959-.205c-1.921 1.061-3.271 2.736-3.8 4.716-.49 1.836-.234 3.784.717 5.523-2.87 1.558-6.457 2.714-8.277 2.076a.747.747 0 10-.494 1.41zm27.57-9.287c-1.179-1.213-2.665-1.98-4.256-2.21l1.808-1.23c2.28-.513 4.578.392 6.042 2.341-1.099.745-2.347 1.128-3.594 1.1zm-.795-7.958c1.49-1.068 3.376-1.464 5.303-1.12-.388 1.923-1.45 3.533-2.989 4.525a7.14 7.14 0 00-2.89-.524c.393-.92.584-1.897.576-2.88zm-4.79-.26c.43-1.17 1.245-2.192 2.342-2.943 1.274 2.079 1.27 4.55-.046 6.484l-1.807 1.23c.37-1.566.205-3.23-.49-4.772zm5.072 9.914c-1.1.745-2.349 1.128-3.595 1.1-1.178-1.214-2.665-1.98-4.257-2.211l1.808-1.23c2.28-.512 4.578.392 6.043 2.341zm-9.18-7.119c.428-1.17 1.242-2.191 2.34-2.943 1.274 2.08 1.27 4.55-.046 6.485l-1.807 1.23c.37-1.566.206-3.23-.488-4.772zm5.07 9.915c-1.099.745-2.347 1.128-3.595 1.1-1.178-1.214-2.664-1.98-4.256-2.212l1.808-1.23c2.281-.512 4.58.392 6.044 2.342zm-9.18-7.119c.429-1.17 1.244-2.192 2.342-2.944 1.273 2.08 1.268 4.552-.047 6.486l-1.807 1.23c.37-1.566.205-3.23-.488-4.772zm5.07 9.915c-1.294.877-2.783 1.244-4.256 1.037-1.431-.201-2.721-.932-3.696-2.08l1.91-1.299c2.281-.512 4.58.392 6.043 2.342zm-9.338-6.626c.369-1.38 1.247-2.58 2.5-3.437 1.274 2.08 1.268 4.552-.047 6.486l-1.908 1.298c-.733-1.382-.928-2.911-.545-4.347z" fill="#C4C4C4"/>
</svg>
