<svg width="132" height="132" fill="none" xmlns="http://www.w3.org/2000/svg">
    <path d="M64.882 9.721a6.885 6.885 0 0110.039.781 6.885 6.885 0 008.14 2.017 6.885 6.885 0 019.24 3.998 6.885 6.885 0 007.044 4.55 6.885 6.885 0 017.443 6.783 6.884 6.884 0 005.184 6.59 6.885 6.885 0 014.837 8.832 6.886 6.886 0 002.763 7.917 6.885 6.885 0 011.708 9.923 6.885 6.885 0 00.043 8.386 6.885 6.885 0 01-1.607 9.94 6.886 6.886 0 00-2.683 7.945 6.885 6.885 0 01-4.747 8.88 6.885 6.885 0 00-5.117 6.643 6.885 6.885 0 01-7.373 6.857 6.885 6.885 0 00-6.997 4.622 6.885 6.885 0 01-9.2 4.092 6.885 6.885 0 00-8.119 2.1 6.886 6.886 0 01-10.03.882 6.886 6.886 0 00-8.36-.65 6.885 6.885 0 01-9.774-2.422 6.885 6.885 0 00-7.696-3.329 6.885 6.885 0 01-8.457-5.465 6.887 6.887 0 00-6.199-5.648 6.884 6.884 0 01-6.225-7.914 6.885 6.885 0 00-4.028-7.355 6.885 6.885 0 01-3.318-9.506 6.885 6.885 0 00-1.422-8.264 6.885 6.885 0 01-.051-10.07 6.885 6.885 0 001.338-8.277 6.885 6.885 0 013.22-9.54 6.885 6.885 0 003.954-7.396 6.885 6.885 0 016.144-7.977 6.885 6.885 0 006.14-5.71 6.885 6.885 0 018.402-5.55 6.885 6.885 0 007.662-3.408 6.885 6.885 0 019.749-2.522 6.885 6.885 0 008.353-.735z" fill="#fff"/>
    <path d="M65.416 15.22a5.77 5.77 0 018.412.654 6.769 6.769 0 008.002 1.983 5.77 5.77 0 017.744 3.35 6.77 6.77 0 006.925 4.474 5.77 5.77 0 016.236 5.683 6.77 6.77 0 005.097 6.48 5.769 5.769 0 014.053 7.4 6.769 6.769 0 002.717 7.784 5.77 5.77 0 011.431 8.315 6.77 6.77 0 00.041 8.244 5.769 5.769 0 01-1.346 8.329 6.769 6.769 0 00-2.637 7.81 5.769 5.769 0 01-3.978 7.441 6.77 6.77 0 00-5.031 6.532 5.77 5.77 0 01-6.178 5.746 6.769 6.769 0 00-6.879 4.544 5.768 5.768 0 01-7.709 3.428 6.77 6.77 0 00-7.982 2.065 5.77 5.77 0 01-8.404.739 6.77 6.77 0 00-8.22-.639 5.769 5.769 0 01-8.19-2.029 6.77 6.77 0 00-7.566-3.274 5.769 5.769 0 01-7.086-4.578 6.77 6.77 0 00-6.094-5.553 5.77 5.77 0 01-5.216-6.632 6.77 6.77 0 00-3.96-7.23 5.77 5.77 0 01-2.78-7.966 6.77 6.77 0 00-1.4-8.125 5.77 5.77 0 01-.042-8.437 6.77 6.77 0 001.316-8.139 5.77 5.77 0 012.698-7.994 6.77 6.77 0 003.887-7.27 5.77 5.77 0 015.149-6.684 6.77 6.77 0 006.037-5.615 5.77 5.77 0 017.04-4.65 6.77 6.77 0 007.532-3.35 5.77 5.77 0 018.169-2.113 6.77 6.77 0 008.212-.723z" fill="#fff" stroke="#E5E5E5"/>
</svg>
