<svg width="23" height="23" fill="none" xmlns="http://www.w3.org/2000/svg">
    <g clip-path="url(#clip0)">
        <path d="M22.795 16.644c-.062-.104-.444-.935-2.284-2.643-1.927-1.788-1.668-1.498.652-4.59 1.413-1.883 1.979-3.033 1.802-3.525-.168-.469-1.208-.345-1.208-.345l-3.456.02s-.256-.034-.447.08c-.185.111-.305.37-.305.37s-.547 1.458-1.278 2.697c-1.54 2.615-2.156 2.753-2.408 2.59-.585-.377-.438-1.52-.438-2.331 0-2.535.383-3.591-.75-3.865-.376-.09-.652-.15-1.614-.16-1.233-.013-2.278.004-2.87.293-.393.192-.696.622-.511.647.229.03.746.14 1.02.513.356.481.343 1.565.343 1.565s.204 2.984-.476 3.354c-.467.255-1.107-.264-2.48-2.638-.703-1.214-1.235-2.559-1.235-2.559s-.102-.25-.284-.383a1.433 1.433 0 00-.532-.215l-3.287.02s-.493.015-.674.23c-.16.19-.013.584-.013.584s2.573 6.02 5.486 9.054c2.673 2.782 5.706 2.6 5.706 2.6h1.374s.416-.047.627-.275c.196-.21.188-.604.188-.604s-.027-1.844.83-2.116c.844-.268 1.928 1.782 3.076 2.572.869.596 1.529.466 1.529.466l3.072-.044s1.607-.099.845-1.362z" fill="#fff"/>
    </g>
    <defs>
        <clipPath id="clip0">
            <path fill="#fff" d="M0 0h23v23H0z"/>
        </clipPath>
    </defs>
</svg>
