<svg width="31" height="31" fill="none" xmlns="http://www.w3.org/2000/svg">
    <path d="M20.068 20.691a.703.703 0 00.02-.633 4.996 4.996 0 00-.502-.81c3.355-.103 4.84-2.66 5.107-3.182a.702.702 0 00.02-.633c-.044-.095-.831-1.74-2.7-2.644.4-.243.799-.55 1.186-.938 2.478-2.478 1.69-5.443 1.507-6.013a.702.702 0 00-.433-.463c-.136-.05-3.373-1.191-6.057 1.493a6.312 6.312 0 00-.94 1.188c-.902-1.874-2.552-2.664-2.647-2.708a.703.703 0 00-.634.02c-.521.268-3.078 1.752-3.182 5.107a4.993 4.993 0 00-.81-.502.703.703 0 00-.633.02c-.532.274-3.186 1.814-3.186 5.319 0 2.028.883 3.395 1.727 4.238.312.313.618.552.872.727L5.532 23.53a.703.703 0 10.994.994l3.252-3.253c.176.256.418.565.733.88.843.844 2.211 1.728 4.239 1.728 3.504 0 5.045-2.654 5.318-3.187zm-9.736-1.963a4.678 4.678 0 01-.624.479c-.65-.413-2.119-1.602-2.118-3.895 0-2.259 1.425-3.447 2.12-3.893.407.262 1.14.833 1.627 1.788a4.606 4.606 0 01.49 2.104c-.001 1.434-.575 2.435-1.163 3.086l-.332.331zm4.625-4.625a4.68 4.68 0 01-.624.479 4.67 4.67 0 01-1.607-1.74c-.044-.1-.09-.196-.138-.29a4.641 4.641 0 01-.374-1.865c0-2.259 1.426-3.447 2.12-3.893.647.416 2.117 1.611 2.117 3.893l-.001.043a6.218 6.218 0 00-.01.271 4.45 4.45 0 01-1.151 2.771l-.332.332zm2.997-1.989a4.777 4.777 0 01-.1-1.258c.046-.876.35-1.988 1.355-2.994 1.62-1.62 3.497-1.424 4.249-1.258.177.806.345 2.655-1.253 4.253-.95.95-1.987 1.275-2.835 1.348a6.79 6.79 0 00-.47.017 4.714 4.714 0 01-.946-.108zm-1.839 2.825a4.448 4.448 0 012.849-1.312c.146 0 .297-.004.455-.015 2.261.018 3.438 1.469 3.849 2.113-.445.695-1.633 2.122-3.893 2.122-.73 0-1.347-.149-1.863-.372a5.574 5.574 0 00-.295-.141 4.668 4.668 0 01-1.737-1.605c.128-.202.333-.484.622-.777l.013-.013zm-1.365 7.533c-2.294 0-3.482-1.47-3.895-2.117.413-.644 1.61-2.12 3.895-2.12.731 0 1.35.15 1.867.375.093.048.19.094.289.138a4.672 4.672 0 011.737 1.602c-.445.695-1.633 2.122-3.893 2.122z" fill="#fff"/>
</svg>
