<?xml version="1.0" encoding="utf-8"?><svg xmlns="http://www.w3.org/2000/svg" xmlns:xlink="http://www.w3.org/1999/xlink"><symbol viewBox="0 0 6 8" id="angle-more" xmlns="http://www.w3.org/2000/svg"><path d="M1 1l4 3-4 3"/></symbol><symbol viewBox="0 0 6 8" id="angle-more-hover" xmlns="http://www.w3.org/2000/svg"><path d="M1 1l4 3-4 3"/></symbol><symbol viewBox="0 0 12 12" id="beautiful-list" xmlns="http://www.w3.org/2000/svg"><circle cx="6" cy="6" r="6"/><path d="M4.8 3.6L7.2 6 4.8 8.4"/></symbol><symbol viewBox="0 0 194 166" id="bubble-edit" xmlns="http://www.w3.org/2000/svg"><path d="M165.916 58.657a78.818 78.818 0 00-48.828-38.232C75.056 9.106 31.806 34.004 20.487 76.037a78.818 78.818 0 008.708 61.357c.032.055.03.125.063.175.328.543.71 1.031 1.048 1.559.933 1.417 1.856 2.872 2.865 4.269.545.73 1.118 1.466 1.692 2.157.976 1.236 1.952 2.472 3 3.652.72.777 1.468 1.56 2.21 2.342.986 1.023 1.965 2.05 3.006 3.023.883.821 1.808 1.57 2.72 2.346.998.851 1.98 1.697 3.019 2.501 1.039.803 2.113 1.5 3.186 2.242 1.073.743 1.992 1.409 3.036 2.063 1.182.731 2.42 1.383 3.64 2.054 1.017.559 1.992 1.147 3.055 1.665 1.422.702 2.896 1.301 4.365 1.917.907.383 1.778.815 2.705 1.162a79.67 79.67 0 007.444 2.404c2.538.68 5.09 1.217 7.649 1.64.977.163 1.947.225 2.924.346 1.58.202 3.155.42 4.738.523 1.148.074 2.324.039 3.479.086 1.392.029 2.79.082 4.179.04 1.231-.043 2.445-.173 3.661-.268 1.215-.094 2.592-.181 3.88-.349 1.288-.168 2.576-.424 3.864-.657 1.178-.215 2.355-.402 3.529-.67 1.388-.323 2.75-.723 4.116-1.115 1.033-.307 2.059-.563 3.083-.925 1.499-.497 2.962-1.079 4.425-1.662.854-.355 1.704-.652 2.544-1.022 1.568-.689 3.088-1.46 4.616-2.264.556-.289 1.131-.52 1.686-.827.054-.026.088-.087.143-.119 38.157-20.952 52.103-68.869 31.151-107.025zm-39.553 98.664a65.337 65.337 0 01-3.719 1.682 67.155 67.155 0 01-8.395 2.886 272.98 272.98 0 01-3.356.851c-.99.213-1.99.395-2.994.569a61.17 61.17 0 01-3.175.48 57.154 57.154 0 01-3.286.287c-1.005.069-2.012.149-3.018.177-1.176.035-2.386-.003-3.586-.033-.937-.029-1.871-.029-2.81-.093-1.358-.096-2.722-.275-4.094-.449-.777-.104-1.56-.167-2.337-.294a68.68 68.68 0 01-6.435-1.38 68.31 68.31 0 01-6.262-2.022c-.736-.279-1.446-.615-2.171-.915-1.275-.534-2.546-1.061-3.77-1.657-.846-.414-1.654-.881-2.48-1.325a78.284 78.284 0 01-3.122-1.764c-.857-.527-1.69-1.1-2.525-1.663a77.54 77.54 0 01-2.703-1.891c-.876-.649-1.688-1.322-2.51-2.003a68.692 68.692 0 01-2.308-1.99 51.702 51.702 0 01-2.48-2.415 70.384 70.384 0 01-1.891-1.983 62.651 62.651 0 01-2.46-2.842 66.32 66.32 0 01-1.477-1.872 68.881 68.881 0 01-2.38-3.316c-.19-.244-.347-.531-.526-.801 5.207-18.456 21.487-31.622 40.625-32.852a33.42 33.42 0 0027.735 7.431c15.958 10.634 23.474 30.176 18.755 48.764-.284.145-.557.294-.845.433zM86.405 58.993c8.705-8.905 22.98-9.068 31.884-.363 8.905 8.704 9.067 22.98.363 31.884a22.549 22.549 0 01-10.536 6.083c-.027-.007-.06-.016-.101.008a23.874 23.874 0 01-5.068.707c-.305.006-.596.045-.914.036-.583-.005-1.181-.06-1.768-.112a22.828 22.828 0 01-3.282-.535l-.62-.167a22.84 22.84 0 01-3.11-1.177c-.519-.244-1.07-.497-1.587-.787-.27-.148-.496-.326-.774-.487a23.868 23.868 0 01-4.035-3.148l-.09-.059c-8.904-8.704-9.066-22.979-.362-31.884zm53.355 89.686a56.645 56.645 0 00-19.095-45.34c15.762-10.022 20.416-30.924 10.395-46.686-10.022-15.763-30.924-20.416-46.686-10.395-14.819 9.422-19.962 28.616-11.84 44.184a56.647 56.647 0 00-39.206 29.719c-12.998-35.003 4.84-73.915 39.843-86.913 35.002-12.998 73.915 4.84 86.913 39.842A67.606 67.606 0 01162 114.157a67.203 67.203 0 01-22.24 34.522z" opacity=".1"/></symbol><symbol viewBox="0 0 30 30" id="cart" xmlns="http://www.w3.org/2000/svg"><g clip-path="url(#eclip0)"><path d="M21.72 29.973H8.28a7.023 7.023 0 01-6.981-6.23L.039 12.685C-.34 9.765 2.097 7.034 5.042 7.08c1.553.061 1.553 2.28 0 2.342a2.66 2.66 0 00-2.01.9 2.66 2.66 0 00-.666 2.098l1.26 11.057a4.682 4.682 0 004.654 4.154h13.44a4.682 4.682 0 004.654-4.153l1.26-11.058a2.66 2.66 0 00-.667-2.098 2.66 2.66 0 00-2.009-.9c-1.553-.062-1.554-2.28 0-2.342 2.944-.046 5.382 2.685 5.003 5.605l-1.26 11.058a7.023 7.023 0 01-6.981 6.23zm-10.94-19.03V6.612c.235-5.672 8.315-5.667 8.548 0v.468h-5.035c-1.554.062-1.553 2.281 0 2.343h6.206c.647 0 1.171-.525 1.171-1.171V6.61c-.364-8.78-12.871-8.773-13.232 0v4.333a1.171 1.171 0 102.342 0zm.644 6.09c0 .809-.656 1.464-1.464 1.464-1.942-.077-1.941-2.85 0-2.928.808 0 1.464.656 1.464 1.464zm3.571-1.464c-.808 0-1.463.656-1.463 1.464.077 1.942 2.85 1.941 2.927 0 0-.808-.655-1.464-1.464-1.464zm5.036 0c-.808 0-1.464.656-1.464 1.464.077 1.942 2.85 1.941 2.928 0 0-.808-.656-1.464-1.464-1.464zM9.96 20.605c-.808 0-1.464.655-1.464 1.464.077 1.942 2.85 1.941 2.928 0 0-.809-.656-1.464-1.464-1.464zm5.035 0c-.808 0-1.463.655-1.463 1.464.077 1.942 2.85 1.941 2.927 0 0-.809-.655-1.464-1.464-1.464zm5.036 0c-.808 0-1.464.655-1.464 1.464.077 1.942 2.85 1.941 2.928 0 0-.809-.656-1.464-1.464-1.464z"/></g><defs><clipPath id="eclip0"><path d="M0 0h30v30H0z"/></clipPath></defs></symbol><symbol viewBox="0 0 10 9" id="checked" xmlns="http://www.w3.org/2000/svg"><path d="M2.207 4.293A1 1 0 00.793 5.707l1.414-1.414zM4 7.5l-.707.707a1 1 0 001.53-.138L4 7.5zm5.322-5.93A1 1 0 007.678.43l1.644 1.14zM.792 5.706l2.5 2.5 1.415-1.414-2.5-2.5L.793 5.707zm4.03 2.362l4.5-6.5L7.678.431l-4.5 6.5 1.644 1.138z"/></symbol><symbol viewBox="0 0 13 13" id="close" xmlns="http://www.w3.org/2000/svg"><path d="M8.645 6.5l4.022-4.021a1.137 1.137 0 000-1.609L12.13.334a1.137 1.137 0 00-1.609 0L6.5 4.356 2.48.333a1.137 1.137 0 00-1.609 0L.333.87a1.137 1.137 0 000 1.609L4.356 6.5.334 10.522a1.137 1.137 0 000 1.609l.536.536a1.137 1.137 0 001.609 0L6.5 8.645l4.022 4.022a1.137 1.137 0 001.609 0l.536-.536a1.137 1.137 0 000-1.609L8.645 6.5z"/></symbol><symbol viewBox="0 0 155 96" id="empty-cart" xmlns="http://www.w3.org/2000/svg"><path d="M3.587 90v-8.402h3.06c.937 0 1.657.171 2.161.515s.756.828.756 1.453c0 .453-.154.85-.463 1.19-.305.34-.695.576-1.172.709v.023c.598.075 1.075.295 1.43.662.36.368.539.815.539 1.342 0 .77-.275 1.381-.826 1.834-.55.45-1.303.674-2.256.674H3.588zm1.893-7.008v1.992h.832c.39 0 .697-.093.92-.28.227-.192.34-.454.34-.786 0-.617-.461-.926-1.383-.926H5.48zm0 3.399v2.215h1.025c.438 0 .78-.102 1.026-.305.25-.203.375-.48.375-.832 0-.336-.123-.6-.37-.791-.241-.192-.581-.287-1.019-.287H5.48zM19.275 90h-2.062l-.598-1.87h-2.988L13.035 90h-2.05l3.058-8.402h2.244L19.275 90zm-3.093-3.322l-.903-2.825a3.678 3.678 0 01-.14-.755h-.047c-.02.246-.069.49-.147.732l-.914 2.848h2.15zM31.137 90H20.924v-8.402h1.893v6.785h2.267v-6.785h1.887v6.785h2.268v-6.785h1.898V90zm9.916 0h-2.062l-.598-1.87h-2.988L34.813 90h-2.05l3.058-8.402h2.244L41.054 90zm-3.093-3.322l-.903-2.825a3.678 3.678 0 01-.14-.755h-.047a3.2 3.2 0 01-.147.732l-.914 2.848h2.15zM53.603 90h-2.39l-2.45-3.65a3.497 3.497 0 01-.222-.463h-.03V90H46.62v-8.402h1.892v3.972h.03a6.38 6.38 0 01.234-.468l2.32-3.504h2.256l-2.93 4.008L53.604 90zm4.526.147c-1.203 0-2.184-.391-2.941-1.172-.758-.785-1.137-1.807-1.137-3.065 0-1.328.384-2.402 1.154-3.222.77-.82 1.79-1.231 3.059-1.231 1.199 0 2.168.393 2.906 1.178.742.785 1.113 1.82 1.113 3.105 0 1.32-.385 2.385-1.154 3.194-.766.808-1.766 1.213-3 1.213zm.082-7.061c-.664 0-1.191.25-1.582.75-.39.496-.586 1.154-.586 1.975 0 .832.195 1.49.586 1.974.39.484.902.727 1.535.727.652 0 1.17-.235 1.553-.703.383-.473.574-1.127.574-1.963 0-.871-.185-1.55-.557-2.034-.37-.484-.879-.726-1.523-.726zm7.965 4.02V90h-1.892v-8.402h2.964c2.118 0 3.176.892 3.176 2.677 0 .844-.305 1.528-.914 2.051-.605.52-1.416.78-2.431.78h-.903zm0-4.055v2.619h.744c1.008 0 1.512-.442 1.512-1.324 0-.864-.504-1.295-1.512-1.295h-.744zm5.434 6.638v-1.658c.668.45 1.428.674 2.28.674 1.054 0 1.582-.38 1.582-1.142 0-.774-.58-1.16-1.74-1.16h-1.079v-1.419h1.031c1.032 0 1.547-.363 1.547-1.09 0-.663-.44-.996-1.318-.996-.629 0-1.3.2-2.016.598V81.95c.719-.328 1.514-.492 2.385-.492.918 0 1.629.191 2.133.574.508.38.762.895.762 1.547 0 .512-.145.947-.434 1.307-.285.355-.693.596-1.225.72v.03c.598.078 1.065.295 1.4.65.34.352.51.79.51 1.313 0 .808-.292 1.435-.878 1.88-.586.446-1.43.669-2.532.669-1.046 0-1.85-.153-2.408-.458zm15.4.311h-1.786v-4.617c0-.531.02-.985.058-1.36h-.035a8.3 8.3 0 01-.422.698L81.357 90h-1.905v-8.402h1.788v4.646c0 .574-.016.96-.047 1.154h.023c.02-.046.164-.275.434-.685l3.334-5.115h2.027V90zm9.806 0h-1.898v-3.422h-3.48V90h-1.894v-8.402h1.893v3.351h3.48v-3.351h1.899V90zm9.916 0h-2.062l-.598-1.87h-2.988l-.592 1.87h-2.05l3.058-8.402h2.244L106.732 90zm-3.093-3.322l-.903-2.825a3.687 3.687 0 01-.14-.755h-.047c-.02.246-.069.49-.147.732l-.914 2.848h2.151zM119.563 90h-1.892v-6.75h-3.481V90h-1.892v-8.402h7.265V90zm8.991-8.402l-2.631 5.76c-.492 1.078-.957 1.812-1.394 2.203-.438.39-.993.585-1.665.585-.445 0-.808-.064-1.089-.193v-1.728c.32.207.652.31.996.31.472 0 .888-.383 1.248-1.148l-2.76-5.79h2.156l1.395 3.364c.082.203.146.432.193.686h.012a4.04 4.04 0 01.199-.663l1.348-3.386h1.992zm7.362 8.103c-.614.297-1.414.446-2.403.446-1.289 0-2.302-.38-3.041-1.137-.738-.758-1.107-1.768-1.107-3.03 0-1.343.414-2.433 1.242-3.27.832-.835 1.91-1.253 3.234-1.253.821 0 1.512.104 2.075.31v1.823c-.563-.336-1.204-.504-1.922-.504-.789 0-1.426.248-1.91.744-.485.496-.727 1.168-.727 2.016 0 .812.229 1.46.686 1.945.457.48 1.072.72 1.845.72a3.94 3.94 0 002.028-.538V89.7zm7.965-6.562h-2.397V90h-1.898v-6.861h-2.385v-1.541h6.68v1.54zM152.286 90h-2.063l-.598-1.87h-2.988l-.592 1.87h-2.05l3.058-8.402h2.244L152.286 90zm-3.094-3.322l-.903-2.825a3.687 3.687 0 01-.14-.755h-.047a3.18 3.18 0 01-.147.732l-.914 2.848h2.151zM44.334 20.231a4 4 0 013.904-4.87h59.524a4 4 0 013.904 4.87l-6.497 29.14a9.001 9.001 0 01-8.785 7.041H59.616a9 9 0 01-8.785-7.04l-6.497-29.14zM79.371 28.722v14.33m10.392-14.33v14.33m1.462-41.344l4.451 16.614M64.944 1.707l-4.452 16.614m8.488 10.401v14.33"/></symbol><symbol viewBox="0 0 63 63" id="form-success" xmlns="http://www.w3.org/2000/svg"><path d="M31.5 61C47.792 61 61 47.792 61 31.5S47.792 2 31.5 2 2 15.208 2 31.5 15.208 61 31.5 61z"/><path d="M18.09 32.804l9.593 9.593 19.289-20.114"/></symbol><symbol viewBox="0 0 17 17" id="instagram-1" xmlns="http://www.w3.org/2000/svg"><g clip-path="url(#jclip0)"><path d="M16.983 4.998c-.04-.903-.186-1.524-.395-2.062a4.148 4.148 0 00-.983-1.508 4.185 4.185 0 00-1.504-.98C13.559.24 12.94.093 12.038.053 11.129.01 10.84 0 8.533 0c-2.31 0-2.598.01-3.505.05-.903.04-1.524.186-2.062.395a4.148 4.148 0 00-1.508.983 4.19 4.19 0 00-.98 1.504c-.21.542-.355 1.16-.395 2.063C.04 5.905.03 6.194.03 8.502s.01 2.597.05 3.503c.04.903.186 1.524.395 2.063.216.57.551 1.082.983 1.507.425.432.94.768 1.504.98.542.21 1.16.355 2.063.395.906.04 1.195.05 3.503.05s2.597-.01 3.504-.05c.903-.04 1.524-.186 2.062-.395a4.348 4.348 0 002.488-2.487c.209-.542.355-1.16.395-2.063.04-.906.05-1.195.05-3.503s-.004-2.597-.044-3.504zm-1.53 6.94c-.037.831-.177 1.28-.293 1.578a2.82 2.82 0 01-1.614 1.614c-.299.117-.75.256-1.577.292-.897.04-1.166.05-3.434.05-2.268 0-2.54-.01-3.434-.05-.83-.036-1.279-.175-1.578-.292a2.617 2.617 0 01-.976-.634 2.644 2.644 0 01-.634-.976c-.116-.3-.256-.75-.292-1.578-.04-.896-.05-1.165-.05-3.434 0-2.268.01-2.54.05-3.434.036-.83.176-1.278.292-1.577a2.57 2.57 0 01.638-.976c.275-.283.607-.499.976-.635.299-.116.75-.255 1.577-.292.897-.04 1.166-.05 3.434-.05 2.272 0 2.54.01 3.434.05.83.037 1.279.176 1.578.292.368.136.704.352.976.635.282.275.498.607.634.976.116.299.256.75.293 1.577.04.897.05 1.166.05 3.434 0 2.269-.01 2.534-.05 3.43z"/><path d="M8.532 4.135a4.368 4.368 0 000 8.734 4.368 4.368 0 000-8.734zm0 7.2a2.833 2.833 0 110-5.667 2.833 2.833 0 010 5.667zm5.558-7.373a1.02 1.02 0 11-2.038 0 1.02 1.02 0 012.039 0z"/></g><defs><clipPath id="jclip0"><path d="M0 0h17v17H0z"/></clipPath></defs></symbol><symbol viewBox="0 0 6 2" id="minus" xmlns="http://www.w3.org/2000/svg"><path d="M3.492 1.487h2.315V.521H.21v.966h3.281z"/></symbol><symbol viewBox="0 0 16 12" id="paginate-left" xmlns="http://www.w3.org/2000/svg"><path d="M15.087 5.25c.415 0 .744.336.735.75a.769.769 0 01-.765.75l.03-1.5zM.387 6.53A.75.75 0 01.41 5.47L5.28.698a.75.75 0 011.06 0 .75.75 0 01-.021 1.06L1.989 6l4.157 4.242a.75.75 0 01-.021 1.06.75.75 0 01-1.06 0L.387 6.53zm14.67.22H.914l.03-1.5h14.143l-.03 1.5z"/></symbol><symbol viewBox="0 0 16 12" id="paginate-right" xmlns="http://www.w3.org/2000/svg"><path d="M.913 5.25A.732.732 0 00.178 6c.008.414.35.75.765.75l-.03-1.5zm14.7 1.28a.75.75 0 00-.022-1.06L10.72.698a.75.75 0 00-1.06 0 .75.75 0 00.021 1.06L14.011 6l-4.157 4.242a.75.75 0 00.021 1.06.75.75 0 001.06 0l4.677-4.772zm-14.67.22h14.143l-.03-1.5H.913l.03 1.5z"/></symbol><symbol viewBox="0 0 13 13" id="pencil" xmlns="http://www.w3.org/2000/svg"><path d="M8.028 2.183L.875 9.337a.285.285 0 00-.074.13L.008 12.65a.283.283 0 00.273.35.278.278 0 00.068-.008l3.183-.793a.281.281 0 00.13-.074l7.154-7.153-2.788-2.788zm4.56-.975l-.796-.796c-.533-.532-1.46-.532-1.991 0l-.976.975 2.788 2.788.975-.976c.266-.265.412-.62.412-.995a1.4 1.4 0 00-.412-.996z"/></symbol><symbol viewBox="0 0 6 6" id="plus" xmlns="http://www.w3.org/2000/svg"><path d="M5.807 3.487H3.492v2.315h-.967V3.487H.211v-.966h2.314V.2h.967v2.32h2.315v.966z"/></symbol><symbol viewBox="0 0 23 29" id="presonal" xmlns="http://www.w3.org/2000/svg"><path d="M21.525 29a1.133 1.133 0 01-1.132-1.133c0-4.435-3.608-8.043-8.043-8.043h-1.7c-4.435 0-8.043 3.608-8.043 8.043a1.133 1.133 0 01-2.265 0c0-5.684 4.624-10.308 10.308-10.308h1.7c5.684 0 10.308 4.624 10.308 10.308 0 .626-.507 1.133-1.133 1.133zM11.387 15.293c-4.217 0-7.647-3.43-7.647-7.647C3.74 3.43 7.17 0 11.387 0c4.216 0 7.646 3.43 7.646 7.646 0 4.217-3.43 7.647-7.646 7.647zm0-13.027a5.387 5.387 0 00-5.381 5.38 5.387 5.387 0 005.38 5.381 5.387 5.387 0 005.382-5.38 5.387 5.387 0 00-5.381-5.381z"/></symbol><symbol viewBox="0 0 44 45" id="profile-1" xmlns="http://www.w3.org/2000/svg"><circle cx="22" cy="22" r="22"/><path d="M29.03 28.459h-3.38l-.98-3.064h-4.9l-.97 3.064h-3.362l5.014-13.774h3.679L29.03 28.46zm-5.071-5.446l-1.48-4.63a6.03 6.03 0 01-.23-1.239h-.077a5.25 5.25 0 01-.24 1.2l-1.498 4.669h3.525z"/></symbol><symbol viewBox="0 0 23 23" id="vk-1" xmlns="http://www.w3.org/2000/svg"><g clip-path="url(#rclip0)"><path d="M22.795 16.644c-.062-.104-.444-.935-2.284-2.643-1.927-1.788-1.668-1.498.652-4.59 1.413-1.883 1.979-3.033 1.802-3.525-.168-.469-1.208-.345-1.208-.345l-3.456.02s-.256-.034-.447.08c-.185.111-.305.37-.305.37s-.547 1.458-1.278 2.697c-1.54 2.615-2.156 2.753-2.408 2.59-.585-.377-.438-1.52-.438-2.331 0-2.535.383-3.591-.75-3.865-.376-.09-.652-.15-1.614-.16-1.233-.013-2.278.004-2.87.293-.393.192-.696.622-.511.647.229.03.746.14 1.02.513.356.481.343 1.565.343 1.565s.204 2.984-.476 3.354c-.467.255-1.107-.264-2.48-2.638-.703-1.214-1.235-2.559-1.235-2.559s-.102-.25-.284-.383a1.433 1.433 0 00-.532-.215l-3.287.02s-.493.015-.674.23c-.16.19-.013.584-.013.584s2.573 6.02 5.486 9.054c2.673 2.782 5.706 2.6 5.706 2.6h1.374s.416-.047.627-.275c.196-.21.188-.604.188-.604s-.027-1.844.83-2.116c.844-.268 1.928 1.782 3.076 2.572.869.596 1.529.466 1.529.466l3.072-.044s1.607-.099.845-1.362z"/></g><defs><clipPath id="rclip0"><path d="M0 0h23v23H0z"/></clipPath></defs></symbol></svg>