<?xml version="1.0" encoding="utf-8"?><svg xmlns="http://www.w3.org/2000/svg" xmlns:xlink="http://www.w3.org/1999/xlink"><symbol viewBox="0 0 49 49" id="advantage-1" xmlns="http://www.w3.org/2000/svg"><path d="M14.945 35.912C1.85 11.177 41.907 8.834 41.907 8.834c-1.455.78-4.468 3.957-4.879 10.414-.513 8.072 2.311 19.267-16.69 17.966m-6.42 2.083c.685-3.385 4.16-11.77 12.582-18.226"/><path d="M48 24.5C48 37.479 37.479 48 24.5 48S1 37.479 1 24.5 11.521 1 24.5 1c3.694 0 7.188.852 10.298 2.37"/></symbol><symbol viewBox="0 0 48 59" id="advantage-2" xmlns="http://www.w3.org/2000/svg"><path d="M15.837 16.783v6.878a5 5 0 01-1.439 3.51l-9.842 9.987a4.749 4.749 0 00-1.367 3.334 4.75 4.75 0 004.75 4.749h28.445a4.749 4.749 0 004.749-4.75 4.75 4.75 0 00-1.367-3.333l-9.842-9.987a5 5 0 01-1.439-3.51v-6.878"/><path d="M7.494 37.806l3.332-3.594c.947-1.02 2.275-1.631 3.66-1.757 1.981-.179 4.62-.478 5.121-.713a85.62 85.62 0 003.158-1.646c2.036-1.109 4.613-.894 6.318.677l8.138 7.498c.175.161.324.348.442.553.895 1.557-.229 3.498-2.023 3.498H7.714a1.607 1.607 0 01-1.5-2.182l.277-.724a5 5 0 011.002-1.61z"/><rect x="13.425" y="10.236" width="17.472" height="5.797" rx="2.898"/><circle cx="26.539" cy="4.378" r="2.169"/><circle cx="18.513" cy="2.189" r="1.439"/><path d="M1 49.027l45.45-35.676"/></symbol><symbol viewBox="0 0 43 46" id="advantage-3" xmlns="http://www.w3.org/2000/svg"><path d="M4.068 7.53l3.86.088A16.926 16.926 0 0021.5 1.268a.398.398 0 01.629.008 15.864 15.864 0 0013.06 6.342l3.927-.091c1.59-.037 2.913 1.164 2.866 2.755-.204 7.037-2.553 25.438-20.855 34.312 0 0-18.558-9.919-20.035-34.058C.99 8.856 2.385 7.492 4.068 7.53zM21.822 13.013v-2.776m-9.717 11.799H9.329m24.292 0h-2.776m-.322 8.701l-2.454-2.454M15.253 15.467L12.8 13.013m2.453 15.964L12.8 31.431m17.723-17.724l-2.454 2.454M21.822 34.53v-2.777"/><circle cx="21.475" cy="22.383" r="8.62"/><circle cx="23.904" cy="23.424" r="2.72"/><circle cx="17.657" cy="20.648" r="1.332"/></symbol><symbol viewBox="0 0 49 51" id="advantage-4" xmlns="http://www.w3.org/2000/svg"><path d="M11.924 29.7c8.876 1.365 11.607-2.048 11.607-2.048l1.265-1.15a3.53 3.53 0 014.87.116l.068.068c.619.618.966 1.457.966 2.331M23.19 36.869l8.802-8.803a3 3 0 014.243 0l11.193 11.192"/><path d="M1 33.455c11.289-10.1 21.285 2.548 23.69 6.002.37.531.873.955 1.474 1.196l4.929 1.971a3 3 0 001.976.088l5.245-1.573a3.293 3.293 0 001.053-.551c3.76-2.887 6.456-2.456 7.792-1.89.546.232.57.906.13 1.304l-5.717 5.172a5.001 5.001 0 01-1.414.9l-5.01 2.11a4.982 4.982 0 01-1.442.366l-8.284.829a5 5 0 01-2.338-.326l-13.078-5.177a5 5 0 00-4.235.26l-1.699.926"/><mask id="ada"><path d="M26.789 9.549l3.08-3.08a2.614 2.614 0 013.696 3.696l-3.08 3.08 3.234 3.234a2.396 2.396 0 01-3.388 3.388l-3.234-3.234-3.08 3.08a2.614 2.614 0 11-3.697-3.696l3.08-3.08-2.925-2.926a2.396 2.396 0 013.388-3.389l2.926 2.927z"/></mask><path d="M26.789 9.549l-1.06 1.06 1.06 1.06 1.06-1.06-1.06-1.06zm3.696 3.696l-1.06-1.061-1.061 1.06 1.06 1.061 1.061-1.06zm-3.388 3.388l1.06-1.06-1.06-1.061-1.06 1.06 1.06 1.06zM23.4 12.937l1.06 1.06 1.061-1.06-1.06-1.061-1.061 1.06zm5.407-7.53l-3.08 3.08 2.121 2.122 3.08-3.08-2.12-2.121zm3.697 3.697l-3.08 3.08 2.12 2.121 3.08-3.08-2.12-2.121zm-3.08 5.201l3.234 3.235 2.12-2.122-3.233-3.234-2.122 2.121zm1.967 4.501l-3.235-3.234-2.12 2.122 3.233 3.234 2.122-2.122zm-5.356-3.234l-3.08 3.08 2.121 2.122 3.08-3.08-2.12-2.122zm-4.655 1.506l3.08-3.08-2.121-2.122-3.08 3.08 2.121 2.122zm3.08-5.202L21.535 8.95l-2.121 2.121 2.926 2.926 2.121-2.121zm-1.659-4.193l2.926 2.926 2.121-2.121-2.926-2.926-2.121 2.121zM21.535 8.95a.896.896 0 010-1.267l-2.121-2.121a3.896 3.896 0 000 5.51l2.121-2.122zm-.154 9.702a1.114 1.114 0 010-1.575l-2.121-2.12a4.114 4.114 0 000 5.817l2.121-2.122zM32.66 17.54c.35.35.35.918 0 1.267l2.12 2.122a3.896 3.896 0 000-5.51l-2.12 2.122zm-9.703 1.113a1.113 1.113 0 01-1.575 0l-2.121 2.122a4.114 4.114 0 005.817 0l-2.121-2.122zM32.505 7.53c.434.435.434 1.14 0 1.575l2.12 2.121a4.114 4.114 0 000-5.817l-2.12 2.121zm.154 11.277a.896.896 0 01-1.267 0l-2.122 2.122a3.896 3.896 0 005.51 0l-2.121-2.122zM21.535 7.683a.896.896 0 011.267 0l2.121-2.121a3.896 3.896 0 00-5.51 0l2.122 2.121zm9.395-.154a1.114 1.114 0 011.575 0l2.12-2.121a4.114 4.114 0 00-5.817 0l2.122 2.121z" mask="url(#ada)"/><path d="M33.431 30.724h.683m3.414 3.414h.682m-8.193 0h.683m-3.414 4.096h.683m10.924 0h.683m-6.145-1.365h.683"/></symbol><symbol viewBox="0 0 54 53" id="advantage-5" xmlns="http://www.w3.org/2000/svg"><path d="M22.946 14.357l6.123 10.605-6.123 10.604H10.701L4.58 24.962l6.12-10.605h12.245z"/><path d="M41.03 3.507l6.123 10.604-6.123 10.604H28.785l-6.122-10.604 6.122-10.604H41.03z"/><path d="M22.94 34.91l6.123-10.604h12.245l6.123 10.604-6.123 10.605H29.063L22.941 34.91zM7.864 25.063L12.4 17.37m14.248-4.156l4.535-7.693M39.139 42.692L43.674 35M41.237 3.713l1.809-2.26m4.069 12.658h2.26M1 24.51h3.165"/></symbol><symbol viewBox="0 0 41 53" id="advantage-6" xmlns="http://www.w3.org/2000/svg"><path d="M7.5 6V1H34v5l5.5 14v31.5h-38V20l6-14zM15.5 5.5H26"/><path d="M28.235 24.889l-.089.905.906-.086.695-.065.697.183.565.36.284.521.122.567-.071.485-.271.514-.463.434-.841.29-1.213.069-.042.002-.042.007-1.087.185-.086.014-.08.034-.898.38-.051.02-.048.03-.98.597-.045.028-.041.034-.937.773-.018.014-.016.016-5.672 5.293-.018.017-.017.019-1.007 1.073-.045.048-.035.054-.777 1.184-.049.074-.03.083-.5 1.383-.014.041-.01.044-.316 1.361-.277.868-.46.811-.866.584-.72.224-.778-.188-.577-.756-.35-.812-.056-.654.083-.475.188-1.079-1.074.214-.705.141-.564-.083-.542-.331-.512-.683-.13-.844.508-.929 1.134-.391 1.313-.114.043-.004.043-.008 1.352-.276.106-.022.095-.05 1.12-.595.083-.043.07-.064 1.261-1.144.007-.006 6.339-5.887.017-.015.015-.017 1.178-1.236.09-.095.053-.119.578-1.306.03-.07.017-.073.352-1.608.29-1.322.402-.76.81-.422.78.005.86.28.526.378.366.7.092.78-.05.51z"/></symbol><symbol viewBox="0 0 48 35" id="advantage-6-1" xmlns="http://www.w3.org/2000/svg"><path d="M13.786 22.232h-3.37a4.52 4.52 0 01-3.197-1.324l-1.32-1.32a2.477 2.477 0 00-3.337-.15 2.477 2.477 0 00-.857 2.31l.53 3.175a5 5 0 01-.109 2.138l-.696 2.55c-.266.976.011 2.02.727 2.735a2.818 2.818 0 003.609.316l1.49-1.043a4.985 4.985 0 012.859-.901h28.027c.977 0 1.922.355 2.657.998l.813.711a2.79 2.79 0 003.652.019 2.79 2.79 0 00.806-3.071l-.63-1.734a5 5 0 01-.045-3.29l.774-2.321a2.6 2.6 0 00-.802-2.82 2.6 2.6 0 00-3.07-.19l-3.76 2.418a5 5 0 01-2.704.794h-1.36"/><path d="M11.843 19.403l2.6 4.226a4 4 0 003.407 1.903h2.442a4 4 0 003.124-1.501l.685-.856m0 0v-2.357m0 2.357l1.185 1.185a4 4 0 002.829 1.172h1.765a4 4 0 003.407-1.904l2.6-4.225M19.611 15.512l4.09 4.833a.5.5 0 00.777-.018l3.718-4.833a.5.5 0 00-.396-.805h-7.807a.5.5 0 00-.382.823zM12.786 6.86c3.457-2.986 12.635-7.166 21.686 0m-26.4 10.186C2.414 10.446 3.357 1.96 3.357 1.96c2.986-1.1 9.806-2.169 13.2 2.357"/><path d="M39.658 17.063c5.658-6.6 4.715-15.086 4.715-15.086-2.986-1.1-9.806-2.169-13.2 2.357M16.086 10.446h1.886v1.886h-1.886zm13.201 0h1.886v1.886h-1.886z"/></symbol><symbol viewBox="0 0 51 40" id="advantage-7" xmlns="http://www.w3.org/2000/svg"><path d="M36.936 25.747l-.688.595.716.561.502.394.342.552.144.581-.136.51-.27.444-.342.27-.493.166-.567-.004-.733-.333-.854-.724-.032-.027-.035-.023-.849-.57-.072-.048-.081-.03-.846-.319-.052-.02-.055-.011-1.04-.224-.052-.011-.053-.004-1.123-.078-.023-.002h-.023l-7.191-.06h-.025l-.025.002-1.362.079-.065.004-.063.015-1.278.3-.086.02-.08.04-1.217.61-.04.02-.037.026-1.08.712-.733.403-.809.247-.934-.157-.607-.299-.383-.593.091-.85.277-.755.37-.464.353-.262.88-.653-.927-.584-.556-.35-.314-.4-.147-.547.089-.762.432-.624.898-.288.986.45.95.756.034.027.037.023 1.085.677.092.057.104.03 1.132.315.09.025.094.002 1.579.036h.009l8.018.087h.023l.023-.001 1.581-.08.13-.007.12-.05 1.223-.509.07-.03.063-.042 1.262-.856 1.032-.7.733-.247.784.225.506.486.39.722.11.569-.195.682-.427.57-.354.308z"/><path d="M4.278 19.72a1.25 1.25 0 011.218-.97h40.008a1.25 1.25 0 011.218.97l3.266 14.224a.25.25 0 01-.244.306H1.256a.25.25 0 01-.244-.306L4.278 19.72zM7.057 16c-.225-1.554.115-4.474 2.844-5.295.457-.137.638-.823.425-1.25-.268-.533-.06-1.064.674-1.787 1.184-1.168 2.944-.385 3.334 0 .39.384 2.729-6.794 9.875-6.666 6.852.123 10.12 4.722 10.837 6.458a.559.559 0 00.284.298c.65.296 1.687.86 1.873 1.32M35.124 11c.477-.77 2.002-2.231 4.288-1.923 2.86.384 5.588 2.307 5.588 6.41"/></symbol><symbol viewBox="0 0 6 8" id="angle-more" xmlns="http://www.w3.org/2000/svg"><path d="M1 1l4 3-4 3"/></symbol><symbol viewBox="0 0 6 8" id="angle-more-hover" xmlns="http://www.w3.org/2000/svg"><path d="M1 1l4 3-4 3"/></symbol><symbol viewBox="0 0 27 27" id="barley" xmlns="http://www.w3.org/2000/svg"><path d="M26.767.232a.79.79 0 00-1.118 0l-1.973 1.973c-.945-.066-3.293-.064-4.74 1.382-1.445 1.447-1.448 3.795-1.382 4.74l-.79.79c.015-.164.023-.33.023-.498 0-2.092-1.28-3.86-2.057-4.74l1.69-1.69a.791.791 0 10-1.119-1.118l-2.237 2.237-.03.034c-.406.382-2.56 2.54-2.574 5.252a8.334 8.334 0 00-.783-.835.791.791 0 00-1.056 0c-.107.096-2.62 2.38-2.636 5.309a8.33 8.33 0 00-.783-.835.791.791 0 00-1.055 0c-.108.097-2.636 2.395-2.636 5.335 0 2.095 1.282 3.863 2.06 4.742L.23 25.65a.79.79 0 101.12 1.118l3.338-3.338c.879.777 2.647 2.06 4.742 2.06 2.94 0 5.238-2.53 5.335-2.637a.79.79 0 000-1.055 8.355 8.355 0 00-.835-.783c2.928-.015 5.213-2.53 5.31-2.636a.79.79 0 000-1.056 8.328 8.328 0 00-.836-.783c2.009-.01 3.851-1.17 5.286-2.604l2.237-2.237a.791.791 0 10-1.118-1.119l-1.69 1.69c-.88-.777-2.648-2.057-4.74-2.057a5.21 5.21 0 00-.498.024l.79-.791c.166.011.373.021.612.021 1.127 0 2.934-.21 4.128-1.404 1.446-1.446 1.448-3.794 1.382-4.739l1.973-1.973a.791.791 0 000-1.118zM13.625 5.019c.625.726 1.58 2.084 1.58 3.6 0 1.508-.958 2.872-1.583 3.6-.625-.725-1.58-2.083-1.58-3.6 0-1.508.958-2.871 1.583-3.6zm-1.312 8.1c.364.44.663.725.756.811.086.093.37.392.81.756a5.776 5.776 0 00-1.921.355c.213-.593.351-1.24.355-1.921zM9.15 9.494c.624.726 1.58 2.085 1.58 3.6 0 1.509-.959 2.873-1.583 3.601-.625-.726-1.58-2.084-1.58-3.6-.001-1.508.958-2.872 1.583-3.6zm-1.313 8.101c.364.44.663.724.756.81.086.093.371.393.81.757a5.775 5.775 0 00-1.92.354 5.78 5.78 0 00.354-1.92zM4.673 21.17c-.625-.726-1.58-2.084-1.58-3.6 0-1.509.958-2.872 1.583-3.601.625.726 1.58 2.084 1.58 3.6 0 1.508-.958 2.872-1.583 3.6zm4.758 2.737c-1.508 0-2.872-.958-3.6-1.583.725-.625 2.083-1.58 3.6-1.58 1.508 0 2.871.958 3.6 1.583-.726.625-2.084 1.58-3.6 1.58zm4.474-4.474c-1.508 0-2.872-.959-3.6-1.584.726-.624 2.084-1.58 3.6-1.58 1.508 0 2.872.959 3.6 1.583-.726.625-2.084 1.58-3.6 1.58zm4.475-7.638c1.508 0 2.871.958 3.6 1.583-.726.625-2.084 1.58-3.6 1.58-1.508 0-2.872-.958-3.6-1.583.725-.625 2.083-1.58 3.6-1.58zm3.913-4.85c-.858.857-2.336.958-3.174.938-.018-.84.085-2.324.937-3.176.857-.858 2.336-.959 3.173-.938.019.84-.084 2.323-.936 3.175z"/></symbol><symbol viewBox="0 0 12 12" id="beautiful-list" xmlns="http://www.w3.org/2000/svg"><circle cx="6" cy="6" r="6"/><path d="M4.8 3.6L7.2 6 4.8 8.4"/></symbol><symbol viewBox="0 0 194 166" id="bubble-edit" xmlns="http://www.w3.org/2000/svg"><path d="M165.916 58.657a78.818 78.818 0 00-48.828-38.232C75.056 9.106 31.806 34.004 20.487 76.037a78.818 78.818 0 008.708 61.357c.032.055.03.125.063.175.328.543.71 1.031 1.048 1.559.933 1.417 1.856 2.872 2.865 4.269.545.73 1.118 1.466 1.692 2.157.976 1.236 1.952 2.472 3 3.652.72.777 1.468 1.56 2.21 2.342.986 1.023 1.965 2.05 3.006 3.023.883.821 1.808 1.57 2.72 2.346.998.851 1.98 1.697 3.019 2.501 1.039.803 2.113 1.5 3.186 2.242 1.073.743 1.992 1.409 3.036 2.063 1.182.731 2.42 1.383 3.64 2.054 1.017.559 1.992 1.147 3.055 1.665 1.422.702 2.896 1.301 4.365 1.917.907.383 1.778.815 2.705 1.162a79.67 79.67 0 007.444 2.404c2.538.68 5.09 1.217 7.649 1.64.977.163 1.947.225 2.924.346 1.58.202 3.155.42 4.738.523 1.148.074 2.324.039 3.479.086 1.392.029 2.79.082 4.179.04 1.231-.043 2.445-.173 3.661-.268 1.215-.094 2.592-.181 3.88-.349 1.288-.168 2.576-.424 3.864-.657 1.178-.215 2.355-.402 3.529-.67 1.388-.323 2.75-.723 4.116-1.115 1.033-.307 2.059-.563 3.083-.925 1.499-.497 2.962-1.079 4.425-1.662.854-.355 1.704-.652 2.544-1.022 1.568-.689 3.088-1.46 4.616-2.264.556-.289 1.131-.52 1.686-.827.054-.026.088-.087.143-.119 38.157-20.952 52.103-68.869 31.151-107.025zm-39.553 98.664a65.337 65.337 0 01-3.719 1.682 67.155 67.155 0 01-8.395 2.886 272.98 272.98 0 01-3.356.851c-.99.213-1.99.395-2.994.569a61.17 61.17 0 01-3.175.48 57.154 57.154 0 01-3.286.287c-1.005.069-2.012.149-3.018.177-1.176.035-2.386-.003-3.586-.033-.937-.029-1.871-.029-2.81-.093-1.358-.096-2.722-.275-4.094-.449-.777-.104-1.56-.167-2.337-.294a68.68 68.68 0 01-6.435-1.38 68.31 68.31 0 01-6.262-2.022c-.736-.279-1.446-.615-2.171-.915-1.275-.534-2.546-1.061-3.77-1.657-.846-.414-1.654-.881-2.48-1.325a78.284 78.284 0 01-3.122-1.764c-.857-.527-1.69-1.1-2.525-1.663a77.54 77.54 0 01-2.703-1.891c-.876-.649-1.688-1.322-2.51-2.003a68.692 68.692 0 01-2.308-1.99 51.702 51.702 0 01-2.48-2.415 70.384 70.384 0 01-1.891-1.983 62.651 62.651 0 01-2.46-2.842 66.32 66.32 0 01-1.477-1.872 68.881 68.881 0 01-2.38-3.316c-.19-.244-.347-.531-.526-.801 5.207-18.456 21.487-31.622 40.625-32.852a33.42 33.42 0 0027.735 7.431c15.958 10.634 23.474 30.176 18.755 48.764-.284.145-.557.294-.845.433zM86.405 58.993c8.705-8.905 22.98-9.068 31.884-.363 8.905 8.704 9.067 22.98.363 31.884a22.549 22.549 0 01-10.536 6.083c-.027-.007-.06-.016-.101.008a23.874 23.874 0 01-5.068.707c-.305.006-.596.045-.914.036-.583-.005-1.181-.06-1.768-.112a22.828 22.828 0 01-3.282-.535l-.62-.167a22.84 22.84 0 01-3.11-1.177c-.519-.244-1.07-.497-1.587-.787-.27-.148-.496-.326-.774-.487a23.868 23.868 0 01-4.035-3.148l-.09-.059c-8.904-8.704-9.066-22.979-.362-31.884zm53.355 89.686a56.645 56.645 0 00-19.095-45.34c15.762-10.022 20.416-30.924 10.395-46.686-10.022-15.763-30.924-20.416-46.686-10.395-14.819 9.422-19.962 28.616-11.84 44.184a56.647 56.647 0 00-39.206 29.719c-12.998-35.003 4.84-73.915 39.843-86.913 35.002-12.998 73.915 4.84 86.913 39.842A67.606 67.606 0 01162 114.157a67.203 67.203 0 01-22.24 34.522z" opacity=".1"/></symbol><symbol viewBox="0 0 29 27" id="buckwheat" xmlns="http://www.w3.org/2000/svg"><path d="M10.542 10.625C8.268 7.215 13.598 2.681 16.501 1c7.333 9.167 3.666 10.542 2.75 11-1.392.696-2.75.459-4.126-.458-.916.917-3.666.458-4.583-.917zm2.643 8.271c.907-3.998-5.69-6.33-9.002-6.865C.604 23.211 4.52 23.188 5.54 23.29c1.548.153 2.733-.554 3.69-1.9 1.184.529 3.59-.881 3.955-2.493zm2.63 1.834c-.907-3.998 5.69-6.331 9.002-6.865 3.579 11.18-.337 11.156-1.357 11.257-1.548.154-2.733-.553-3.69-1.9-1.184.529-3.59-.88-3.955-2.492z"/><path d="M16.326 4.964a.8.8 0 10-1.485-.594l1.486.594zm-1.866 7.022a.8.8 0 101.331-.888l-1.331.888zm.381-7.616c-.3.75-.815 1.995-1.053 3.343-.238 1.343-.227 2.925.672 4.273l1.331-.888c-.568-.852-.633-1.943-.428-3.106.205-1.158.652-2.25.963-3.028l-1.485-.594zM5.76 15.672a.8.8 0 111.176-1.085L5.76 15.672zm4.25 5.893a.8.8 0 01-1.56-.354l1.56.354zm-3.074-6.978c.548.594 1.474 1.573 2.177 2.747.701 1.17 1.255 2.652.897 4.231l-1.56-.354c.226-.999-.102-2.041-.71-3.054-.604-1.009-1.412-1.87-1.98-2.485l1.176-1.085zm16.304 2.919a.8.8 0 10-1.176-1.086l1.176 1.085zm-4.25 5.893a.8.8 0 001.56-.354l-1.56.354zm3.074-6.979c-.548.594-1.474 1.573-2.177 2.747-.701 1.17-1.256 2.652-.897 4.232l1.56-.354c-.226-1 .102-2.042.71-3.055.604-1.008 1.412-1.87 1.98-2.484l-1.176-1.086z"/></symbol><symbol viewBox="0 0 17 12" id="button-styled-arrow" xmlns="http://www.w3.org/2000/svg"><path d="M1 5.2a.8.8 0 100 1.6V5.2zm15.566 1.366a.8.8 0 000-1.132L11.475.344a.8.8 0 00-1.132 1.13L14.87 6l-4.526 4.525a.8.8 0 001.132 1.132l5.09-5.091zM1 6.8h15V5.2H1v1.6z"/></symbol><symbol viewBox="0 0 30 30" id="cart" xmlns="http://www.w3.org/2000/svg"><g clip-path="url(#apclip0)"><path d="M21.72 29.973H8.28a7.023 7.023 0 01-6.981-6.23L.039 12.685C-.34 9.765 2.097 7.034 5.042 7.08c1.553.061 1.553 2.28 0 2.342a2.66 2.66 0 00-2.01.9 2.66 2.66 0 00-.666 2.098l1.26 11.057a4.682 4.682 0 004.654 4.154h13.44a4.682 4.682 0 004.654-4.153l1.26-11.058a2.66 2.66 0 00-.667-2.098 2.66 2.66 0 00-2.009-.9c-1.553-.062-1.554-2.28 0-2.342 2.944-.046 5.382 2.685 5.003 5.605l-1.26 11.058a7.023 7.023 0 01-6.981 6.23zm-10.94-19.03V6.612c.235-5.672 8.315-5.667 8.548 0v.468h-5.035c-1.554.062-1.553 2.281 0 2.343h6.206c.647 0 1.171-.525 1.171-1.171V6.61c-.364-8.78-12.871-8.773-13.232 0v4.333a1.171 1.171 0 102.342 0zm.644 6.09c0 .809-.656 1.464-1.464 1.464-1.942-.077-1.941-2.85 0-2.928.808 0 1.464.656 1.464 1.464zm3.571-1.464c-.808 0-1.463.656-1.463 1.464.077 1.942 2.85 1.941 2.927 0 0-.808-.655-1.464-1.464-1.464zm5.036 0c-.808 0-1.464.656-1.464 1.464.077 1.942 2.85 1.941 2.928 0 0-.808-.656-1.464-1.464-1.464zM9.96 20.605c-.808 0-1.464.655-1.464 1.464.077 1.942 2.85 1.941 2.928 0 0-.809-.656-1.464-1.464-1.464zm5.035 0c-.808 0-1.463.655-1.463 1.464.077 1.942 2.85 1.941 2.927 0 0-.809-.655-1.464-1.464-1.464zm5.036 0c-.808 0-1.464.655-1.464 1.464.077 1.942 2.85 1.941 2.928 0 0-.809-.656-1.464-1.464-1.464z"/></g><defs><clipPath id="apclip0"><path d="M0 0h30v30H0z"/></clipPath></defs></symbol><symbol viewBox="0 0 30 30" id="cart-white" xmlns="http://www.w3.org/2000/svg"><g clip-path="url(#aqclip0)"><path d="M21.72 29.973H8.28a7.023 7.023 0 01-6.981-6.23L.039 12.685C-.34 9.765 2.097 7.034 5.042 7.08c1.553.061 1.553 2.28 0 2.342a2.66 2.66 0 00-2.01.9 2.66 2.66 0 00-.666 2.098l1.26 11.057a4.682 4.682 0 004.654 4.154h13.44a4.682 4.682 0 004.654-4.153l1.26-11.058a2.66 2.66 0 00-.667-2.098 2.66 2.66 0 00-2.01-.9c-1.552-.062-1.553-2.28 0-2.342 2.945-.046 5.383 2.685 5.004 5.605L28.7 23.743a7.022 7.022 0 01-6.981 6.23zm-10.94-19.03V6.612c.235-5.672 8.315-5.667 8.548 0v.468h-5.035c-1.554.062-1.553 2.281 0 2.343h6.206c.647 0 1.171-.525 1.171-1.171V6.61c-.364-8.78-12.871-8.773-13.233 0v4.333a1.171 1.171 0 102.343 0zm.644 6.09c0 .809-.656 1.464-1.464 1.464-1.942-.077-1.941-2.85 0-2.928.808 0 1.464.656 1.464 1.464zm3.571-1.464c-.808 0-1.463.656-1.463 1.464.077 1.942 2.85 1.941 2.927 0 0-.808-.655-1.464-1.464-1.464zm5.036 0c-.809 0-1.464.656-1.464 1.464.077 1.942 2.85 1.941 2.928 0 0-.808-.656-1.464-1.464-1.464zM9.96 20.605c-.809 0-1.464.655-1.464 1.464.077 1.942 2.85 1.941 2.928 0 0-.809-.656-1.464-1.464-1.464zm5.035 0c-.808 0-1.463.655-1.463 1.464.077 1.942 2.85 1.941 2.927 0 0-.809-.655-1.464-1.464-1.464zm5.036 0c-.809 0-1.464.655-1.464 1.464.077 1.942 2.85 1.941 2.928 0 0-.809-.656-1.464-1.464-1.464z"/></g><defs><clipPath id="aqclip0"><path d="M0 0h30v30H0z"/></clipPath></defs></symbol><symbol viewBox="0 0 10 9" id="checked" xmlns="http://www.w3.org/2000/svg"><path d="M2.207 4.293A1 1 0 00.793 5.707l1.414-1.414zM4 7.5l-.707.707a1 1 0 001.53-.138L4 7.5zm5.322-5.93A1 1 0 007.678.43l1.644 1.14zM.792 5.706l2.5 2.5 1.415-1.414-2.5-2.5L.793 5.707zm4.03 2.362l4.5-6.5L7.678.431l-4.5 6.5 1.644 1.138z"/></symbol><symbol viewBox="0 0 20 23" id="city-location" xmlns="http://www.w3.org/2000/svg"><mask id="asa"><path d="M20 9.842c0 4.428-2.971 8.173-7.059 9.41C12.011 19.532 10 23 10 23s-2.33-3.52-3.387-3.895C2.757 17.74 0 14.108 0 9.842 0 4.406 4.477 0 10 0s10 4.406 10 9.842z"/></mask><path d="M10 23l-1.668 1.104 1.78 2.689 1.618-2.79L10 23zm-3.387-3.895l-.668 1.886.668-1.886zm6.328.147l.58 1.914-.58-1.914zM2 9.842C2 5.541 5.552 2 10 2v-4C3.403-2-2 3.272-2 9.842h4zM10 2c4.448 0 8 3.54 8 7.842h4C22 3.272 16.597-2 10-2v4zm0 21a1168.65 1168.65 0 001.668-1.104l-.001-.001-.002-.003a1.935 1.935 0 00-.03-.044 38.27 38.27 0 00-.377-.55c-.246-.352-.589-.83-.971-1.326a18.682 18.682 0 00-1.255-1.485 7.624 7.624 0 00-.72-.668 3.609 3.609 0 00-1.031-.599l-1.336 3.77c-.178-.063-.23-.127-.133-.049.073.06.185.161.333.316.296.308.636.72.974 1.157a32.098 32.098 0 011.124 1.556l.069.103.016.025.004.005v.001L10 23zm-2.72-5.78C4.183 16.122 2 13.218 2 9.842h-4c0 5.155 3.332 9.514 7.945 11.149l1.336-3.77zM18 9.842c0 3.504-2.353 6.502-5.638 7.495l1.158 3.829C18.41 19.687 22 15.194 22 9.842h-4zm-5.638 7.495c-.507.154-.89.447-1.105.629-.248.21-.476.448-.672.672-.395.45-.784.983-1.112 1.461a32.344 32.344 0 00-1.175 1.849l-.02.034-.005.01a.302.302 0 00-.002.003v.001L10 23l1.73 1.004.003-.006.014-.024a20.79 20.79 0 01.284-.47c.193-.313.455-.725.74-1.14.29-.425.579-.811.823-1.09.123-.14.205-.22.245-.253.072-.061-.044.062-.319.145l-1.158-3.829z" mask="url(#asa)"/><circle cx="10" cy="10" r="3"/></symbol><symbol viewBox="0 0 13 13" id="close" xmlns="http://www.w3.org/2000/svg"><path d="M8.645 6.5l4.022-4.021a1.137 1.137 0 000-1.609L12.13.334a1.137 1.137 0 00-1.609 0L6.5 4.356 2.48.333a1.137 1.137 0 00-1.609 0L.333.87a1.137 1.137 0 000 1.609L4.356 6.5.334 10.522a1.137 1.137 0 000 1.609l.536.536a1.137 1.137 0 001.609 0L6.5 8.645l4.022 4.022a1.137 1.137 0 001.609 0l.536-.536a1.137 1.137 0 000-1.609L8.645 6.5z"/></symbol><symbol viewBox="0 0 155 96" id="empty-cart" xmlns="http://www.w3.org/2000/svg"><path d="M3.587 90v-8.402h3.06c.937 0 1.657.171 2.161.515s.756.828.756 1.453c0 .453-.154.85-.463 1.19-.305.34-.695.576-1.172.709v.023c.598.075 1.075.295 1.43.662.36.368.539.815.539 1.342 0 .77-.275 1.381-.826 1.834-.55.45-1.303.674-2.256.674H3.588zm1.893-7.008v1.992h.832c.39 0 .697-.093.92-.28.227-.192.34-.454.34-.786 0-.617-.461-.926-1.383-.926H5.48zm0 3.399v2.215h1.025c.438 0 .78-.102 1.026-.305.25-.203.375-.48.375-.832 0-.336-.123-.6-.37-.791-.241-.192-.581-.287-1.019-.287H5.48zM19.275 90h-2.062l-.598-1.87h-2.988L13.035 90h-2.05l3.058-8.402h2.244L19.275 90zm-3.093-3.322l-.903-2.825a3.678 3.678 0 01-.14-.755h-.047c-.02.246-.069.49-.147.732l-.914 2.848h2.15zM31.137 90H20.924v-8.402h1.893v6.785h2.267v-6.785h1.887v6.785h2.268v-6.785h1.898V90zm9.916 0h-2.062l-.598-1.87h-2.988L34.813 90h-2.05l3.058-8.402h2.244L41.054 90zm-3.093-3.322l-.903-2.825a3.678 3.678 0 01-.14-.755h-.047a3.2 3.2 0 01-.147.732l-.914 2.848h2.15zM53.603 90h-2.39l-2.45-3.65a3.497 3.497 0 01-.222-.463h-.03V90H46.62v-8.402h1.892v3.972h.03a6.38 6.38 0 01.234-.468l2.32-3.504h2.256l-2.93 4.008L53.604 90zm4.526.147c-1.203 0-2.184-.391-2.941-1.172-.758-.785-1.137-1.807-1.137-3.065 0-1.328.384-2.402 1.154-3.222.77-.82 1.79-1.231 3.059-1.231 1.199 0 2.168.393 2.906 1.178.742.785 1.113 1.82 1.113 3.105 0 1.32-.385 2.385-1.154 3.194-.766.808-1.766 1.213-3 1.213zm.082-7.061c-.664 0-1.191.25-1.582.75-.39.496-.586 1.154-.586 1.975 0 .832.195 1.49.586 1.974.39.484.902.727 1.535.727.652 0 1.17-.235 1.553-.703.383-.473.574-1.127.574-1.963 0-.871-.185-1.55-.557-2.034-.37-.484-.879-.726-1.523-.726zm7.965 4.02V90h-1.892v-8.402h2.964c2.118 0 3.176.892 3.176 2.677 0 .844-.305 1.528-.914 2.051-.605.52-1.416.78-2.431.78h-.903zm0-4.055v2.619h.744c1.008 0 1.512-.442 1.512-1.324 0-.864-.504-1.295-1.512-1.295h-.744zm5.434 6.638v-1.658c.668.45 1.428.674 2.28.674 1.054 0 1.582-.38 1.582-1.142 0-.774-.58-1.16-1.74-1.16h-1.079v-1.419h1.031c1.032 0 1.547-.363 1.547-1.09 0-.663-.44-.996-1.318-.996-.629 0-1.3.2-2.016.598V81.95c.719-.328 1.514-.492 2.385-.492.918 0 1.629.191 2.133.574.508.38.762.895.762 1.547 0 .512-.145.947-.434 1.307-.285.355-.693.596-1.225.72v.03c.598.078 1.065.295 1.4.65.34.352.51.79.51 1.313 0 .808-.292 1.435-.878 1.88-.586.446-1.43.669-2.532.669-1.046 0-1.85-.153-2.408-.458zm15.4.311h-1.786v-4.617c0-.531.02-.985.058-1.36h-.035a8.3 8.3 0 01-.422.698L81.357 90h-1.905v-8.402h1.788v4.646c0 .574-.016.96-.047 1.154h.023c.02-.046.164-.275.434-.685l3.334-5.115h2.027V90zm9.806 0h-1.898v-3.422h-3.48V90h-1.894v-8.402h1.893v3.351h3.48v-3.351h1.899V90zm9.916 0h-2.062l-.598-1.87h-2.988l-.592 1.87h-2.05l3.058-8.402h2.244L106.732 90zm-3.093-3.322l-.903-2.825a3.687 3.687 0 01-.14-.755h-.047c-.02.246-.069.49-.147.732l-.914 2.848h2.151zM119.563 90h-1.892v-6.75h-3.481V90h-1.892v-8.402h7.265V90zm8.991-8.402l-2.631 5.76c-.492 1.078-.957 1.812-1.394 2.203-.438.39-.993.585-1.665.585-.445 0-.808-.064-1.089-.193v-1.728c.32.207.652.31.996.31.472 0 .888-.383 1.248-1.148l-2.76-5.79h2.156l1.395 3.364c.082.203.146.432.193.686h.012a4.04 4.04 0 01.199-.663l1.348-3.386h1.992zm7.362 8.103c-.614.297-1.414.446-2.403.446-1.289 0-2.302-.38-3.041-1.137-.738-.758-1.107-1.768-1.107-3.03 0-1.343.414-2.433 1.242-3.27.832-.835 1.91-1.253 3.234-1.253.821 0 1.512.104 2.075.31v1.823c-.563-.336-1.204-.504-1.922-.504-.789 0-1.426.248-1.91.744-.485.496-.727 1.168-.727 2.016 0 .812.229 1.46.686 1.945.457.48 1.072.72 1.845.72a3.94 3.94 0 002.028-.538V89.7zm7.965-6.562h-2.397V90h-1.898v-6.861h-2.385v-1.541h6.68v1.54zM152.286 90h-2.063l-.598-1.87h-2.988l-.592 1.87h-2.05l3.058-8.402h2.244L152.286 90zm-3.094-3.322l-.903-2.825a3.687 3.687 0 01-.14-.755h-.047a3.18 3.18 0 01-.147.732l-.914 2.848h2.151zM44.334 20.231a4 4 0 013.904-4.87h59.524a4 4 0 013.904 4.87l-6.497 29.14a9.001 9.001 0 01-8.785 7.041H59.616a9 9 0 01-8.785-7.04l-6.497-29.14zM79.371 28.722v14.33m10.392-14.33v14.33m1.462-41.344l4.451 16.614M64.944 1.707l-4.452 16.614m8.488 10.401v14.33"/></symbol><symbol viewBox="0 0 63 63" id="form-success" xmlns="http://www.w3.org/2000/svg"><path d="M31.5 61C47.792 61 61 47.792 61 31.5S47.792 2 31.5 2 2 15.208 2 31.5 15.208 61 31.5 61z"/><path d="M18.09 32.804l9.593 9.593 19.289-20.114"/></symbol><symbol viewBox="0 0 20 20" id="icon-phone" xmlns="http://www.w3.org/2000/svg"><path d="M14.495 12.389l-.008.06c-1.81-.88-2-.997-2.234-.655-.162.237-.635.774-.777.933-.144.157-.287.169-.532.06-.247-.12-1.04-.373-1.979-1.192-.73-.639-1.222-1.422-1.367-1.663-.24-.406.264-.464.723-1.312.083-.169.04-.302-.02-.421-.062-.12-.554-1.301-.76-1.772-.197-.47-.4-.41-.553-.41-.474-.04-.82-.033-1.126.277-1.33 1.424-.994 2.894.143 4.457 2.235 2.853 3.426 3.378 5.603 4.108.588.182 1.124.156 1.548.097.473-.073 1.455-.58 1.66-1.145.21-.567.21-1.037.148-1.145-.06-.108-.222-.169-.47-.277z"/><path d="M17.1 2.874C10.692-3.32.088 1.173.084 9.911c0 1.747.458 3.45 1.33 4.954L0 20l5.28-1.377c6.587 3.559 14.717-1.166 14.72-8.707a9.828 9.828 0 00-2.913-7.009l.013-.033zm1.235 7.015c-.005 6.36-6.988 10.333-12.51 7.086l-.3-.178-3.125.812.837-3.037-.199-.313C-.398 8.79 3.55 1.64 10.06 1.64c2.212 0 4.287.862 5.85 2.425a8.157 8.157 0 012.425 5.825z"/></symbol><symbol viewBox="0 0 29 28" id="ingridient-plus" xmlns="http://www.w3.org/2000/svg"><path d="M21.878 15.218h-5.786v5.786h-2.417v-5.786H7.89V12.8h5.786V7h2.417v5.8h5.786v2.418z"/></symbol><symbol viewBox="0 0 17 17" id="instagram-1" xmlns="http://www.w3.org/2000/svg"><g clip-path="url(#ayclip0)"><path d="M16.983 4.998c-.04-.903-.186-1.524-.395-2.062a4.148 4.148 0 00-.983-1.508 4.185 4.185 0 00-1.504-.98C13.559.24 12.94.093 12.038.053 11.129.01 10.84 0 8.533 0c-2.31 0-2.598.01-3.505.05-.903.04-1.524.186-2.062.395a4.148 4.148 0 00-1.508.983 4.19 4.19 0 00-.98 1.504c-.21.542-.355 1.16-.395 2.063C.04 5.905.03 6.194.03 8.502s.01 2.597.05 3.503c.04.903.186 1.524.395 2.063.216.57.551 1.082.983 1.507.425.432.94.768 1.504.98.542.21 1.16.355 2.063.395.906.04 1.195.05 3.503.05s2.597-.01 3.504-.05c.903-.04 1.524-.186 2.062-.395a4.348 4.348 0 002.488-2.487c.209-.542.355-1.16.395-2.063.04-.906.05-1.195.05-3.503s-.004-2.597-.044-3.504zm-1.53 6.94c-.037.831-.177 1.28-.293 1.578a2.82 2.82 0 01-1.614 1.614c-.299.117-.75.256-1.577.292-.897.04-1.166.05-3.434.05-2.268 0-2.54-.01-3.434-.05-.83-.036-1.279-.175-1.578-.292a2.617 2.617 0 01-.976-.634 2.644 2.644 0 01-.634-.976c-.116-.3-.256-.75-.292-1.578-.04-.896-.05-1.165-.05-3.434 0-2.268.01-2.54.05-3.434.036-.83.176-1.278.292-1.577a2.57 2.57 0 01.638-.976c.275-.283.607-.499.976-.635.299-.116.75-.255 1.577-.292.897-.04 1.166-.05 3.434-.05 2.272 0 2.54.01 3.434.05.83.037 1.279.176 1.578.292.368.136.704.352.976.635.282.275.498.607.634.976.116.299.256.75.293 1.577.04.897.05 1.166.05 3.434 0 2.269-.01 2.534-.05 3.43z"/><path d="M8.532 4.135a4.368 4.368 0 000 8.734 4.368 4.368 0 000-8.734zm0 7.2a2.833 2.833 0 110-5.667 2.833 2.833 0 010 5.667zm5.558-7.373a1.02 1.02 0 11-2.038 0 1.02 1.02 0 012.039 0z"/></g><defs><clipPath id="ayclip0"><path d="M0 0h17v17H0z"/></clipPath></defs></symbol><symbol viewBox="0 0 6 2" id="minus" xmlns="http://www.w3.org/2000/svg"><path d="M3.492 1.487h2.315V.521H.21v.966h3.281z"/></symbol><symbol viewBox="0 0 28 28" id="oat" xmlns="http://www.w3.org/2000/svg"><mask id="baa" maskUnits="userSpaceOnUse" x="0" y="0" width="28" height="28"><path d="M0 0h28v28H0z"/><path d="M26.588 1.867a.434.434 0 10-.043-.866 33 33 0 00-4.371.624 36.432 36.432 0 00-10.282 3.691l-.026.014a28.41 28.41 0 00-1.568.94c-3.145 2.034-5.663 6.068-7.491 11.99a51.344 51.344 0 00-1.804 8.257.434.434 0 10.86.099c.011-.099.785-6.562 3.337-12.285l3.611 2.71a1.865 1.865 0 00-.764.6C6.8 19.292 7.83 23.066 7.95 23.49a.434.434 0 00.85-.118c0-1.41.693-2.39 1.3-3.18.606.79 1.3 1.77 1.3 3.18a.433.433 0 00.85.12c.12-.425 1.15-4.2-.097-5.85a1.945 1.945 0 00-1.62-.77 1.066 1.066 0 00-.397.08L5.57 13.53C6.858 10.86 8.554 8.433 10.767 7c.434-.28.872-.546 1.315-.796l3.172 2.195a1.87 1.87 0 00-.709.576c-1.246 1.652-.216 5.426-.096 5.85a.433.433 0 00.85-.118c0-1.41.693-2.39 1.3-3.18.606.79 1.3 1.77 1.3 3.18a.433.433 0 00.85.119c.12-.425 1.15-4.199-.097-5.85a1.946 1.946 0 00-1.62-.77c-.14.003-.28.032-.409.087l-3.689-2.554a35.863 35.863 0 019.14-3.206l1.061 1.811a1.883 1.883 0 00-1.223.73c-1.247 1.653-.217 5.427-.097 5.85a.433.433 0 00.85-.117c0-1.41.694-2.39 1.3-3.18.607.79 1.3 1.77 1.3 3.18a.433.433 0 00.85.119c.121-.425 1.15-4.199-.097-5.85a1.946 1.946 0 00-1.62-.77 1.054 1.054 0 00-.26.037l-1.165-1.99a30.91 30.91 0 013.614-.485zM8.393 21.287c-.147-1.166-.15-2.47.346-3.125.218-.289.567-.448.927-.423a.255.255 0 01.13.043l.035.027a.591.591 0 01.154.204l.018.04a1.347 1.347 0 01.049.147l.012.043c.009.043.016.087.021.135 0 .011.004.02.005.031.007.065.01.13.01.194a1.843 1.843 0 01-.347.614v.003l-.217.287a8.83 8.83 0 00-1.143 1.78zm3.068-3.125c.496.657.492 1.958.346 3.125a8.842 8.842 0 00-1.137-1.777l-.03-.04c.048-.072.09-.144.13-.216l.017-.033a1.833 1.833 0 00.101-.221 1.39 1.39 0 00.044-.14l.015-.06a.993.993 0 00.02-.195 2.51 2.51 0 00-.035-.424c-.006-.043-.02-.08-.029-.122a2.028 2.028 0 00-.067-.249c-.005-.015-.007-.032-.013-.046a1 1 0 01.638.396v.002zm3.432-5.54c-.147-1.168-.15-2.47.346-3.127a1.07 1.07 0 01.927-.423.25.25 0 01.111.032l.059.04a.599.599 0 01.149.202l.018.038a1.132 1.132 0 01.049.15l.012.043c.009.044.016.087.021.136 0 .01.004.02.005.03.006.065.01.13.01.194a1.843 1.843 0 01-.347.614v.003a18.99 18.99 0 01-.219.287 8.824 8.824 0 00-1.141 1.78zm3.068-3.127c.496.658.492 1.959.346 3.125a8.839 8.839 0 00-1.137-1.777l-.03-.039c.048-.073.09-.144.13-.217.006-.01.01-.021.017-.032a1.86 1.86 0 00.101-.222 1.36 1.36 0 00.044-.14l.015-.06a.985.985 0 00.02-.195c0-.142-.011-.283-.035-.424-.006-.043-.02-.08-.028-.121a2.038 2.038 0 00-.068-.25c-.005-.014-.007-.032-.013-.046a1 1 0 01.638.397v.001zm4.298-.773c-.147-1.168-.15-2.47.347-3.126.217-.29.566-.448.927-.424a.26.26 0 01.152.055l.003.002c.004.003.005.008.009.01a.602.602 0 01.154.207l.018.038a1.217 1.217 0 01.05.15l.011.043c.01.044.016.087.022.136 0 .01.003.02.004.03.007.065.01.13.01.195a1.842 1.842 0 01-.347.613v.004a20.11 20.11 0 01-.218.286 8.823 8.823 0 00-1.142 1.78zm3.068-3.126c.496.657.493 1.958.347 3.124a8.833 8.833 0 00-1.137-1.776l-.03-.04c.048-.073.09-.144.13-.216l.016-.033a1.805 1.805 0 00.102-.222c.017-.045.031-.092.043-.14.005-.02.012-.04.015-.06a.985.985 0 00.02-.195c0-.142-.01-.283-.034-.423-.007-.044-.02-.081-.029-.122a2.02 2.02 0 00-.068-.25c-.005-.014-.007-.031-.012-.046a1 1 0 01.637.397v.002z"/></mask><path d="M26.588 1.867a.434.434 0 10-.043-.866 33 33 0 00-4.371.624 36.432 36.432 0 00-10.282 3.691l-.026.014a28.41 28.41 0 00-1.568.94c-3.145 2.034-5.663 6.068-7.491 11.99a51.344 51.344 0 00-1.804 8.257.434.434 0 10.86.099c.011-.099.785-6.562 3.337-12.285l3.611 2.71a1.865 1.865 0 00-.764.6C6.8 19.292 7.83 23.066 7.95 23.49a.434.434 0 00.85-.118c0-1.41.693-2.39 1.3-3.18.606.79 1.3 1.77 1.3 3.18a.433.433 0 00.85.12c.12-.425 1.15-4.2-.097-5.85a1.945 1.945 0 00-1.62-.77 1.066 1.066 0 00-.397.08L5.57 13.53C6.858 10.86 8.554 8.433 10.767 7c.434-.28.872-.546 1.315-.796l3.172 2.195a1.87 1.87 0 00-.709.576c-1.246 1.652-.216 5.426-.096 5.85a.433.433 0 00.85-.118c0-1.41.693-2.39 1.3-3.18.606.79 1.3 1.77 1.3 3.18a.433.433 0 00.85.119c.12-.425 1.15-4.199-.097-5.85a1.946 1.946 0 00-1.62-.77c-.14.003-.28.032-.409.087l-3.689-2.554a35.863 35.863 0 019.14-3.206l1.061 1.811a1.883 1.883 0 00-1.223.73c-1.247 1.653-.217 5.427-.097 5.85a.433.433 0 00.85-.117c0-1.41.694-2.39 1.3-3.18.607.79 1.3 1.77 1.3 3.18a.433.433 0 00.85.119c.121-.425 1.15-4.199-.097-5.85a1.946 1.946 0 00-1.62-.77 1.054 1.054 0 00-.26.037l-1.165-1.99a30.91 30.91 0 013.614-.485zM8.393 21.287c-.147-1.166-.15-2.47.346-3.125.218-.289.567-.448.927-.423a.255.255 0 01.13.043l.035.027a.591.591 0 01.154.204l.018.04a1.347 1.347 0 01.049.147l.012.043c.009.043.016.087.021.135 0 .011.004.02.005.031.007.065.01.13.01.194a1.843 1.843 0 01-.347.614v.003l-.217.287a8.83 8.83 0 00-1.143 1.78zm3.068-3.125c.496.657.492 1.958.346 3.125a8.842 8.842 0 00-1.137-1.777l-.03-.04c.048-.072.09-.144.13-.216l.017-.033a1.833 1.833 0 00.101-.221 1.39 1.39 0 00.044-.14l.015-.06a.993.993 0 00.02-.195 2.51 2.51 0 00-.035-.424c-.006-.043-.02-.08-.029-.122a2.028 2.028 0 00-.067-.249c-.005-.015-.007-.032-.013-.046a1 1 0 01.638.396v.002zm3.432-5.54c-.147-1.168-.15-2.47.346-3.127a1.07 1.07 0 01.927-.423.25.25 0 01.111.032l.059.04a.599.599 0 01.149.202l.018.038a1.132 1.132 0 01.049.15l.012.043c.009.044.016.087.021.136 0 .01.004.02.005.03.006.065.01.13.01.194a1.843 1.843 0 01-.347.614v.003a18.99 18.99 0 01-.219.287 8.824 8.824 0 00-1.141 1.78zm3.068-3.127c.496.658.492 1.959.346 3.125a8.839 8.839 0 00-1.137-1.777l-.03-.039c.048-.073.09-.144.13-.217.006-.01.01-.021.017-.032a1.86 1.86 0 00.101-.222 1.36 1.36 0 00.044-.14l.015-.06a.985.985 0 00.02-.195c0-.142-.011-.283-.035-.424-.006-.043-.02-.08-.028-.121a2.038 2.038 0 00-.068-.25c-.005-.014-.007-.032-.013-.046a1 1 0 01.638.397v.001zm4.298-.773c-.147-1.168-.15-2.47.347-3.126.217-.29.566-.448.927-.424a.26.26 0 01.152.055l.003.002c.004.003.005.008.009.01a.602.602 0 01.154.207l.018.038a1.217 1.217 0 01.05.15l.011.043c.01.044.016.087.022.136 0 .01.003.02.004.03.007.065.01.13.01.195a1.842 1.842 0 01-.347.613v.004a20.11 20.11 0 01-.218.286 8.823 8.823 0 00-1.142 1.78zm3.068-3.126c.496.657.493 1.958.347 3.124a8.833 8.833 0 00-1.137-1.776l-.03-.04c.048-.073.09-.144.13-.216l.016-.033a1.805 1.805 0 00.102-.222c.017-.045.031-.092.043-.14.005-.02.012-.04.015-.06a.985.985 0 00.02-.195c0-.142-.01-.283-.034-.423-.007-.044-.02-.081-.029-.122a2.02 2.02 0 00-.068-.25c-.005-.014-.007-.031-.012-.046a1 1 0 01.637.397v.002z"/><path d="M26.588 1.867a.434.434 0 10-.043-.866 33 33 0 00-4.371.624 36.432 36.432 0 00-10.282 3.691l-.026.014a28.41 28.41 0 00-1.568.94c-3.145 2.034-5.663 6.068-7.491 11.99a51.344 51.344 0 00-1.804 8.257.434.434 0 10.86.099c.011-.099.785-6.562 3.337-12.285l3.611 2.71a1.865 1.865 0 00-.764.6C6.8 19.292 7.83 23.066 7.95 23.49a.434.434 0 00.85-.118c0-1.41.693-2.39 1.3-3.18.606.79 1.3 1.77 1.3 3.18a.433.433 0 00.85.12c.12-.425 1.15-4.2-.097-5.85a1.945 1.945 0 00-1.62-.77 1.066 1.066 0 00-.397.08L5.57 13.53C6.858 10.86 8.554 8.433 10.767 7c.434-.28.872-.546 1.315-.796l3.172 2.195a1.87 1.87 0 00-.709.576c-1.246 1.652-.216 5.426-.096 5.85a.433.433 0 00.85-.118c0-1.41.693-2.39 1.3-3.18.606.79 1.3 1.77 1.3 3.18a.433.433 0 00.85.119c.12-.425 1.15-4.199-.097-5.85a1.946 1.946 0 00-1.62-.77c-.14.003-.28.032-.409.087l-3.689-2.554a35.863 35.863 0 019.14-3.206l1.061 1.811a1.883 1.883 0 00-1.223.73c-1.247 1.653-.217 5.427-.097 5.85a.433.433 0 00.85-.117c0-1.41.694-2.39 1.3-3.18.607.79 1.3 1.77 1.3 3.18a.433.433 0 00.85.119c.121-.425 1.15-4.199-.097-5.85a1.946 1.946 0 00-1.62-.77 1.054 1.054 0 00-.26.037l-1.165-1.99a30.91 30.91 0 013.614-.485zM8.393 21.287c-.147-1.166-.15-2.47.346-3.125.218-.289.567-.448.927-.423a.255.255 0 01.13.043l.035.027a.591.591 0 01.154.204l.018.04a1.347 1.347 0 01.049.147l.012.043c.009.043.016.087.021.135 0 .011.004.02.005.031.007.065.01.13.01.194a1.843 1.843 0 01-.347.614v.003l-.217.287a8.83 8.83 0 00-1.143 1.78zm3.068-3.125c.496.657.492 1.958.346 3.125a8.842 8.842 0 00-1.137-1.777l-.03-.04c.048-.072.09-.144.13-.216l.017-.033a1.833 1.833 0 00.101-.221 1.39 1.39 0 00.044-.14l.015-.06a.993.993 0 00.02-.195 2.51 2.51 0 00-.035-.424c-.006-.043-.02-.08-.029-.122a2.028 2.028 0 00-.067-.249c-.005-.015-.007-.032-.013-.046a1 1 0 01.638.396v.002zm3.432-5.54c-.147-1.168-.15-2.47.346-3.127a1.07 1.07 0 01.927-.423.25.25 0 01.111.032l.059.04a.599.599 0 01.149.202l.018.038a1.132 1.132 0 01.049.15l.012.043c.009.044.016.087.021.136 0 .01.004.02.005.03.006.065.01.13.01.194a1.843 1.843 0 01-.347.614v.003a18.99 18.99 0 01-.219.287 8.824 8.824 0 00-1.141 1.78zm3.068-3.127c.496.658.492 1.959.346 3.125a8.839 8.839 0 00-1.137-1.777l-.03-.039c.048-.073.09-.144.13-.217.006-.01.01-.021.017-.032a1.86 1.86 0 00.101-.222 1.36 1.36 0 00.044-.14l.015-.06a.985.985 0 00.02-.195c0-.142-.011-.283-.035-.424-.006-.043-.02-.08-.028-.121a2.038 2.038 0 00-.068-.25c-.005-.014-.007-.032-.013-.046a1 1 0 01.638.397v.001zm4.298-.773c-.147-1.168-.15-2.47.347-3.126.217-.29.566-.448.927-.424a.26.26 0 01.152.055l.003.002c.004.003.005.008.009.01a.602.602 0 01.154.207l.018.038a1.217 1.217 0 01.05.15l.011.043c.01.044.016.087.022.136 0 .01.003.02.004.03.007.065.01.13.01.195a1.842 1.842 0 01-.347.613v.004a20.11 20.11 0 01-.218.286 8.823 8.823 0 00-1.142 1.78zm3.068-3.126c.496.657.493 1.958.347 3.124a8.833 8.833 0 00-1.137-1.776l-.03-.04c.048-.073.09-.144.13-.216l.016-.033a1.805 1.805 0 00.102-.222c.017-.045.031-.092.043-.14.005-.02.012-.04.015-.06a.985.985 0 00.02-.195c0-.142-.01-.283-.034-.423-.007-.044-.02-.081-.029-.122a2.02 2.02 0 00-.068-.25c-.005-.014-.007-.031-.012-.046a1 1 0 01.637.397v.002z" mask="url(#baa)"/></symbol><symbol viewBox="0 0 16 12" id="paginate-left" xmlns="http://www.w3.org/2000/svg"><path d="M15.087 5.25c.415 0 .744.336.735.75a.769.769 0 01-.765.75l.03-1.5zM.387 6.53A.75.75 0 01.41 5.47L5.28.698a.75.75 0 011.06 0 .75.75 0 01-.021 1.06L1.989 6l4.157 4.242a.75.75 0 01-.021 1.06.75.75 0 01-1.06 0L.387 6.53zm14.67.22H.914l.03-1.5h14.143l-.03 1.5z"/></symbol><symbol viewBox="0 0 16 12" id="paginate-right" xmlns="http://www.w3.org/2000/svg"><path d="M.913 5.25A.732.732 0 00.178 6c.008.414.35.75.765.75l-.03-1.5zm14.7 1.28a.75.75 0 00-.022-1.06L10.72.698a.75.75 0 00-1.06 0 .75.75 0 00.021 1.06L14.011 6l-4.157 4.242a.75.75 0 00.021 1.06.75.75 0 001.06 0l4.677-4.772zm-14.67.22h14.143l-.03-1.5H.913l.03 1.5z"/></symbol><symbol viewBox="0 0 13 13" id="pencil" xmlns="http://www.w3.org/2000/svg"><path d="M8.028 2.183L.875 9.337a.285.285 0 00-.074.13L.008 12.65a.283.283 0 00.273.35.278.278 0 00.068-.008l3.183-.793a.281.281 0 00.13-.074l7.154-7.153-2.788-2.788zm4.56-.975l-.796-.796c-.533-.532-1.46-.532-1.991 0l-.976.975 2.788 2.788.975-.976c.266-.265.412-.62.412-.995a1.4 1.4 0 00-.412-.996z"/></symbol><symbol viewBox="0 0 23 29" id="personal-white" xmlns="http://www.w3.org/2000/svg"><path d="M21.525 29a1.133 1.133 0 01-1.132-1.133c0-4.435-3.608-8.043-8.043-8.043h-1.7c-4.435 0-8.043 3.608-8.043 8.043a1.133 1.133 0 01-2.265 0c0-5.684 4.624-10.308 10.308-10.308h1.7c5.684 0 10.308 4.624 10.308 10.308 0 .626-.507 1.133-1.133 1.133zM11.387 15.293c-4.217 0-7.647-3.43-7.647-7.647C3.74 3.43 7.17 0 11.387 0c4.216 0 7.646 3.43 7.646 7.646 0 4.217-3.43 7.647-7.646 7.647zm0-13.027a5.387 5.387 0 00-5.381 5.38 5.387 5.387 0 005.38 5.381 5.387 5.387 0 005.382-5.38 5.387 5.387 0 00-5.381-5.381z"/></symbol><symbol viewBox="0 0 6 6" id="plus" xmlns="http://www.w3.org/2000/svg"><path d="M5.807 3.487H3.492v2.315h-.967V3.487H.211v-.966h2.314V.2h.967v2.32h2.315v.966z"/></symbol><symbol viewBox="0 0 23 29" id="presonal" xmlns="http://www.w3.org/2000/svg"><path d="M21.525 29a1.133 1.133 0 01-1.132-1.133c0-4.435-3.608-8.043-8.043-8.043h-1.7c-4.435 0-8.043 3.608-8.043 8.043a1.133 1.133 0 01-2.265 0c0-5.684 4.624-10.308 10.308-10.308h1.7c5.684 0 10.308 4.624 10.308 10.308 0 .626-.507 1.133-1.133 1.133zM11.387 15.293c-4.217 0-7.647-3.43-7.647-7.647C3.74 3.43 7.17 0 11.387 0c4.216 0 7.646 3.43 7.646 7.646 0 4.217-3.43 7.647-7.646 7.647zm0-13.027a5.387 5.387 0 00-5.381 5.38 5.387 5.387 0 005.38 5.381 5.387 5.387 0 005.382-5.38 5.387 5.387 0 00-5.381-5.381z"/></symbol><symbol viewBox="0 0 44 45" id="profile-1" xmlns="http://www.w3.org/2000/svg"><circle cx="22" cy="22" r="22"/><path d="M29.03 28.459h-3.38l-.98-3.064h-4.9l-.97 3.064h-3.362l5.014-13.774h3.679L29.03 28.46zm-5.071-5.446l-1.48-4.63a6.03 6.03 0 01-.23-1.239h-.077a5.25 5.25 0 01-.24 1.2l-1.498 4.669h3.525z"/></symbol><symbol viewBox="0 0 28 25" id="rice" xmlns="http://www.w3.org/2000/svg"><path d="M26.203 8.369a4.187 4.187 0 00-2.38-1.137l3.286-3.166-1.16-1.118-1.116 1.076a3.921 3.921 0 00-1.18-2.293L21.856 0l-2.098 2.021a3.907 3.907 0 000 5.665l.637.613-1.64 1.58a3.93 3.93 0 00-1.177-2.295l-1.797-1.731-2.098 2.021a3.907 3.907 0 000 5.665l.637.613-1.637 1.577a3.922 3.922 0 00-1.18-2.292l-1.797-1.732-2.098 2.022a3.907 3.907 0 000 5.664l.637.614-2.699 2.6c-1.11 1.07-2.917 1.07-4.027 0l-.359-.346L0 23.377l.358.345a4.563 4.563 0 003.174 1.265c1.15 0 2.3-.422 3.175-1.265l.528-.51.637.615A4.211 4.211 0 0010.812 25a4.21 4.21 0 002.94-1.173l2.098-2.022-1.797-1.73a4.187 4.187 0 00-2.38-1.137l1.637-1.578.637.614a4.211 4.211 0 002.94 1.173 4.21 4.21 0 002.94-1.173l2.098-2.021-1.797-1.731a4.187 4.187 0 00-2.38-1.137l1.637-1.578.637.614a4.212 4.212 0 002.94 1.173 4.21 4.21 0 002.94-1.173L28 10.1l-1.797-1.731zm-4.648-1.187l-.637-.614a2.365 2.365 0 010-3.429l.938-.903.637.613a2.365 2.365 0 010 3.429l-.938.904zm-6.712 5.239a2.365 2.365 0 010-3.43l.938-.903.637.614a2.365 2.365 0 010 3.428l-.938.904-.637-.613zm-6.075 5.853a2.365 2.365 0 010-3.43l.938-.903.637.613a2.365 2.365 0 010 3.429l-.938.904-.637-.613zm4.762 3.531l-.938.904a2.55 2.55 0 01-1.78.71 2.55 2.55 0 01-1.78-.71l-.636-.613.938-.904a2.55 2.55 0 011.78-.71c.672 0 1.304.252 1.78.71l.636.613zm6.075-5.852l-.938.903a2.55 2.55 0 01-1.78.71 2.549 2.549 0 01-1.78-.71l-.636-.613.938-.904a2.55 2.55 0 011.78-.71 2.55 2.55 0 011.78.71l.636.614zm5.137-4.95a2.55 2.55 0 01-1.78.71 2.55 2.55 0 01-1.78-.71l-.636-.613.938-.903a2.55 2.55 0 011.78-.71c.672 0 1.304.252 1.779.71l.637.613-.938.904z"/></symbol><symbol viewBox="0 0 43 31" id="rye" xmlns="http://www.w3.org/2000/svg"><path d="M4.569 24.986c1.237.433 2.934.334 5.042-.296 1.456-.434 3.087-1.131 4.565-1.944 1.226 1.524 2.897 2.496 4.766 2.758 2.104.296 4.22-.334 5.959-1.771a.747.747 0 00.161-.966l-.03-.047c1.42-.193 2.795-.804 3.978-1.783a.747.747 0 00.162-.965l-.03-.047c1.42-.194 2.794-.804 3.978-1.783a.747.747 0 00.161-.966l-.03-.047c1.42-.194 2.793-.804 3.976-1.782a.747.747 0 00.162-.966 8.122 8.122 0 00-2.274-2.443c1.725-1.371 2.843-3.427 3.122-5.806a.747.747 0 00-.55-.81c-1.748-.464-3.502-.414-5.08.114-.508.17-.997.392-1.463.66a8.122 8.122 0 00-1.436-3.018.748.748 0 00-.958-.204c-1.345.743-2.416 1.798-3.117 3.046l-.034-.046a.748.748 0 00-.959-.205c-1.345.743-2.416 1.798-3.116 3.045l-.033-.045a.747.747 0 00-.958-.205c-1.347.744-2.418 1.798-3.118 3.046l-.033-.045a.748.748 0 00-.959-.205c-1.921 1.061-3.271 2.736-3.8 4.716-.49 1.836-.234 3.784.717 5.523-2.87 1.558-6.457 2.714-8.277 2.076a.747.747 0 10-.494 1.41zm27.57-9.287c-1.179-1.213-2.665-1.98-4.256-2.21l1.808-1.23c2.28-.513 4.578.392 6.042 2.341-1.099.745-2.347 1.128-3.594 1.1zm-.795-7.958c1.49-1.068 3.376-1.464 5.303-1.12-.388 1.923-1.45 3.533-2.989 4.525a7.14 7.14 0 00-2.89-.524c.393-.92.584-1.897.576-2.88zm-4.79-.26c.43-1.17 1.245-2.192 2.342-2.943 1.274 2.079 1.27 4.55-.046 6.484l-1.807 1.23c.37-1.566.205-3.23-.49-4.772zm5.072 9.914c-1.1.745-2.349 1.128-3.595 1.1-1.178-1.214-2.665-1.98-4.257-2.211l1.808-1.23c2.28-.512 4.578.392 6.043 2.341zm-9.18-7.119c.428-1.17 1.242-2.191 2.34-2.943 1.274 2.08 1.27 4.55-.046 6.485l-1.807 1.23c.37-1.566.206-3.23-.488-4.772zm5.07 9.915c-1.099.745-2.347 1.128-3.595 1.1-1.178-1.214-2.664-1.98-4.256-2.212l1.808-1.23c2.281-.512 4.58.392 6.044 2.342zm-9.18-7.119c.429-1.17 1.244-2.192 2.342-2.944 1.273 2.08 1.268 4.552-.047 6.486l-1.807 1.23c.37-1.566.205-3.23-.488-4.772zm5.07 9.915c-1.294.877-2.783 1.244-4.256 1.037-1.431-.201-2.721-.932-3.696-2.08l1.91-1.299c2.281-.512 4.58.392 6.043 2.342zm-9.338-6.626c.369-1.38 1.247-2.58 2.5-3.437 1.274 2.08 1.268 4.552-.047 6.486l-1.908 1.298c-.733-1.382-.928-2.911-.545-4.347z"/></symbol><symbol viewBox="0 0 16 12" id="slider-arrow-next" xmlns="http://www.w3.org/2000/svg"><path d="M.913 5.25A.732.732 0 00.178 6a.77.77 0 00.765.75l-.03-1.5zm14.7 1.28a.75.75 0 00-.022-1.06L10.722.698a.75.75 0 00-1.06 0 .75.75 0 00.02 1.06L14.013 6l-4.158 4.242a.75.75 0 00.022 1.06.75.75 0 001.06 0l4.677-4.772zm-14.67.22h14.144l-.03-1.5H.913l.03 1.5z"/></symbol><symbol viewBox="0 0 16 12" id="slider-arrow-prev" xmlns="http://www.w3.org/2000/svg"><path d="M15.087 5.25c.414 0 .743.336.735.75a.769.769 0 01-.765.75l.03-1.5zM.387 6.53A.75.75 0 01.41 5.47L5.278.698a.75.75 0 011.06 0 .75.75 0 01-.02 1.06L1.987 6l4.158 4.242a.75.75 0 01-.022 1.06.75.75 0 01-1.06 0L.387 6.53zm14.67.22H.913l.03-1.5h14.144l-.03 1.5z"/></symbol><symbol viewBox="0 0 23 23" id="vk-1" xmlns="http://www.w3.org/2000/svg"><g clip-path="url(#bmclip0)"><path d="M22.795 16.644c-.062-.104-.444-.935-2.284-2.643-1.927-1.788-1.668-1.498.652-4.59 1.413-1.883 1.979-3.033 1.802-3.525-.168-.469-1.208-.345-1.208-.345l-3.456.02s-.256-.034-.447.08c-.185.111-.305.37-.305.37s-.547 1.458-1.278 2.697c-1.54 2.615-2.156 2.753-2.408 2.59-.585-.377-.438-1.52-.438-2.331 0-2.535.383-3.591-.75-3.865-.376-.09-.652-.15-1.614-.16-1.233-.013-2.278.004-2.87.293-.393.192-.696.622-.511.647.229.03.746.14 1.02.513.356.481.343 1.565.343 1.565s.204 2.984-.476 3.354c-.467.255-1.107-.264-2.48-2.638-.703-1.214-1.235-2.559-1.235-2.559s-.102-.25-.284-.383a1.433 1.433 0 00-.532-.215l-3.287.02s-.493.015-.674.23c-.16.19-.013.584-.013.584s2.573 6.02 5.486 9.054c2.673 2.782 5.706 2.6 5.706 2.6h1.374s.416-.047.627-.275c.196-.21.188-.604.188-.604s-.027-1.844.83-2.116c.844-.268 1.928 1.782 3.076 2.572.869.596 1.529.466 1.529.466l3.072-.044s1.607-.099.845-1.362z"/></g><defs><clipPath id="bmclip0"><path d="M0 0h23v23H0z"/></clipPath></defs></symbol><symbol viewBox="0 0 31 31" id="wheat" xmlns="http://www.w3.org/2000/svg"><path d="M20.068 20.691a.703.703 0 00.02-.633 4.996 4.996 0 00-.502-.81c3.355-.103 4.84-2.66 5.107-3.182a.702.702 0 00.02-.633c-.044-.095-.831-1.74-2.7-2.644.4-.243.799-.55 1.186-.938 2.478-2.478 1.69-5.443 1.507-6.013a.702.702 0 00-.433-.463c-.136-.05-3.373-1.191-6.057 1.493a6.312 6.312 0 00-.94 1.188c-.902-1.874-2.552-2.664-2.647-2.708a.703.703 0 00-.634.02c-.521.268-3.078 1.752-3.182 5.107a4.993 4.993 0 00-.81-.502.703.703 0 00-.633.02c-.532.274-3.186 1.814-3.186 5.319 0 2.028.883 3.395 1.727 4.238.312.313.618.552.872.727L5.532 23.53a.703.703 0 10.994.994l3.252-3.253c.176.256.418.565.733.88.843.844 2.211 1.728 4.239 1.728 3.504 0 5.045-2.654 5.318-3.187zm-9.736-1.963a4.678 4.678 0 01-.624.479c-.65-.413-2.119-1.602-2.118-3.895 0-2.259 1.425-3.447 2.12-3.893.407.262 1.14.833 1.627 1.788a4.606 4.606 0 01.49 2.104c-.001 1.434-.575 2.435-1.163 3.086l-.332.331zm4.625-4.625a4.68 4.68 0 01-.624.479 4.67 4.67 0 01-1.607-1.74c-.044-.1-.09-.196-.138-.29a4.641 4.641 0 01-.374-1.865c0-2.259 1.426-3.447 2.12-3.893.647.416 2.117 1.611 2.117 3.893l-.001.043a6.218 6.218 0 00-.01.271 4.45 4.45 0 01-1.151 2.771l-.332.332zm2.997-1.989a4.777 4.777 0 01-.1-1.258c.046-.876.35-1.988 1.355-2.994 1.62-1.62 3.497-1.424 4.249-1.258.177.806.345 2.655-1.253 4.253-.95.95-1.987 1.275-2.835 1.348a6.79 6.79 0 00-.47.017 4.714 4.714 0 01-.946-.108zm-1.839 2.825a4.448 4.448 0 012.849-1.312c.146 0 .297-.004.455-.015 2.261.018 3.438 1.469 3.849 2.113-.445.695-1.633 2.122-3.893 2.122-.73 0-1.347-.149-1.863-.372a5.574 5.574 0 00-.295-.141 4.668 4.668 0 01-1.737-1.605c.128-.202.333-.484.622-.777l.013-.013zm-1.365 7.533c-2.294 0-3.482-1.47-3.895-2.117.413-.644 1.61-2.12 3.895-2.12.731 0 1.35.15 1.867.375.093.048.19.094.289.138a4.672 4.672 0 011.737 1.602c-.445.695-1.633 2.122-3.893 2.122z"/></symbol></svg>