<svg width="45" height="45" viewBox="0 0 45 45" fill="none" xmlns="http://www.w3.org/2000/svg">
<path d="M35.9583 5.57437C32.3637 1.97965 27.5836 0 22.4996 0C17.4164 0 12.6363 1.97965 9.04166 5.57437C5.44702 9.1691 3.46729 13.9491 3.46729 19.0331C3.46729 29.3172 13.1917 37.8713 18.4155 42.4667C19.1413 43.1046 19.7686 43.6565 20.2678 44.123C20.8934 44.7073 21.6965 44.9999 22.4997 44.9999C23.3028 44.9999 24.1059 44.7073 24.7324 44.123C25.2316 43.6564 25.8589 43.1046 26.5847 42.4667C31.8085 37.8712 41.5329 29.3172 41.5329 19.0331C41.5327 13.9491 39.5531 9.1691 35.9583 5.57437ZM22.4996 26.7014C17.875 26.7014 14.1125 22.9389 14.1125 18.3135C14.1125 13.689 17.875 9.92645 22.4996 9.92645C27.125 9.92645 30.8875 13.689 30.8875 18.3135C30.8875 22.9389 27.125 26.7014 22.4996 26.7014Z" fill="#FFC700"/>
<path d="M41.5327 19.0331C41.5327 29.3172 31.8084 37.8713 26.5846 42.4667C25.8588 43.1046 25.2314 43.6565 24.7323 44.123C24.1058 44.7073 23.3027 44.9999 22.4995 44.9999V26.7014C27.1249 26.7014 30.8874 22.9389 30.8874 18.3135C30.8874 13.689 27.1249 9.92645 22.4995 9.92645V0C27.5835 0 32.3637 1.97965 35.9583 5.57437C39.5529 9.1691 41.5327 13.9491 41.5327 19.0331Z" fill="#FFC700"/>
</svg>
