<svg width="41" height="53" viewBox="0 0 41 53" fill="none" xmlns="http://www.w3.org/2000/svg">
<path d="M7.5 6V1H34V6L39.5 20V51.5H1.5V20L7.5 6Z" stroke="#FFC700" stroke-width="1.5"/>
<path d="M15.5 5.5H26" stroke="#FFA800" stroke-width="1.5" stroke-linecap="round"/>
<path d="M28.2348 24.8885L28.1462 25.7936L29.0516 25.7083L29.7468 25.6428L30.4441 25.8258L31.009 26.186L31.2928 26.7072L31.4147 27.2741L31.344 27.7592L31.073 28.2734L30.6097 28.7074L29.7687 28.9974L28.5557 29.0655L28.5136 29.0679L28.472 29.075L27.385 29.2597L27.2992 29.2743L27.2191 29.3081L26.3211 29.6871L26.2697 29.7087L26.2222 29.7377L25.2426 30.335L25.1969 30.3628L25.1557 30.3968L24.2191 31.1695L24.2014 31.1841L24.1847 31.1997L18.5131 36.4933L18.4949 36.5103L18.4778 36.5285L17.4707 37.6021L17.4263 37.6495L17.3906 37.7038L16.6135 38.8883L16.5652 38.962L16.5353 39.0449L16.0358 40.4275L16.0206 40.4695L16.0105 40.513L15.6951 41.8741L15.418 42.7423L14.9579 43.5531L14.0918 44.1369L13.3714 44.361L12.5942 44.1728L12.0169 43.4172L11.6667 42.6055L11.6108 41.9505L11.6937 41.476L11.8822 40.3972L10.8082 40.6114L10.1032 40.752L9.53855 40.6694L8.99658 40.338L8.48471 39.6552L8.3545 38.8114L8.86326 37.882L9.99746 37.4907L11.3104 37.3771L11.3535 37.3734L11.3958 37.3647L12.7478 37.0886L12.8536 37.067L12.949 37.0164L14.0693 36.4224L14.1522 36.3785L14.2218 36.3154L15.4835 35.1712L15.4836 35.1712L15.4901 35.1652L21.8289 29.2784L21.8457 29.2627L21.8615 29.2461L23.0392 28.0099L23.1292 27.9155L23.182 27.7962L23.7602 26.4901L23.7909 26.4208L23.8071 26.3468L24.1589 24.7387L24.1589 24.7384L24.4487 23.4168L24.8509 22.6563L25.6612 22.2347L26.4415 22.2395L27.301 22.5205L27.8267 22.8978L28.1931 23.5989L28.2848 24.3784L28.2348 24.8885Z" stroke="#CB7C06" stroke-width="1.5"/>
</svg>
