<svg width="51" height="40" viewBox="0 0 51 40" fill="none" xmlns="http://www.w3.org/2000/svg">
<path d="M36.9357 25.7465L36.2484 26.342L36.9639 26.9034L37.4655 27.297L37.8079 27.8494L37.9524 28.4301L37.8164 28.9404L37.5458 29.3842L37.2039 29.6534L36.7112 29.8201L36.1436 29.8164L35.4106 29.4829L34.5573 28.7595L34.5252 28.7322L34.4902 28.7088L33.6413 28.1393L33.5691 28.0909L33.4877 28.0602L32.642 27.742L32.5899 27.7224L32.5355 27.7107L31.4956 27.4872L31.4434 27.4759L31.3901 27.4722L30.2673 27.3941L30.2444 27.3925L30.2215 27.3923L23.03 27.3326L23.0051 27.3323L22.9802 27.3338L21.6179 27.413L21.5531 27.4168L21.4898 27.4317L20.2115 27.7323L20.1257 27.7524L20.0469 27.7919L18.8287 28.4029L18.7888 28.4229L18.7516 28.4475L17.6728 29.1602L16.9395 29.5633L16.1304 29.8095L15.1962 29.6529L14.5895 29.3541L14.2058 28.7606L14.297 27.9102L14.5741 27.1556L14.9445 26.692L15.2973 26.4301L16.1767 25.7773L15.2501 25.1934L14.6944 24.8431L14.3802 24.4435L14.2329 23.8957L14.3217 23.134L14.7542 22.5101L15.6515 22.2219L16.6383 22.6711L17.5884 23.4282L17.6222 23.4552L17.6589 23.4781L18.7441 24.1551L18.8358 24.2122L18.9398 24.2412L20.0721 24.5567L20.1625 24.5819L20.2564 24.5841L21.8349 24.6199L21.8349 24.6199L21.8438 24.62L29.8624 24.7066L29.8854 24.7069L29.9083 24.7057L31.489 24.626L31.6193 24.6194L31.7397 24.5693L32.9619 24.06L33.0319 24.0309L33.0946 23.9883L34.3573 23.1316L34.3575 23.1314L35.3895 22.4319L36.122 22.185L36.9064 22.4101L37.4121 22.8959L37.8026 23.6183L37.9113 24.1865L37.7166 24.8694L37.2904 25.4393L36.9357 25.7465Z" stroke="#CB7C06" stroke-width="1.5"/>
<path d="M4.27761 19.7203C4.40798 19.1525 4.91332 18.75 5.49591 18.75H45.5041C46.0867 18.75 46.592 19.1525 46.7224 19.7203L49.9881 33.9441C50.024 34.1006 49.905 34.25 49.7444 34.25H1.25561C1.09495 34.25 0.975999 34.1006 1.01195 33.9441L4.27761 19.7203Z" stroke="#FFC700" stroke-width="1.5" stroke-linecap="round"/>
<path d="M7.05716 16C6.83208 14.4457 7.17233 11.5259 9.90136 10.7051C10.3578 10.5679 10.5394 9.88165 10.3258 9.45552C10.0581 8.92163 10.2666 8.39116 11 7.66761C12.1836 6.5 13.944 7.28304 14.3338 7.66761C14.7236 8.05218 17.0626 0.873506 24.2094 1.0017C31.0607 1.12459 34.3295 5.72434 35.0459 7.4597C35.1005 7.59184 35.1998 7.69872 35.3299 7.75803C35.9791 8.05406 37.0169 8.6175 37.2035 9.0777M35.1245 11.0006C35.6009 10.2314 37.1256 8.77004 39.4125 9.0777C42.2712 9.46227 45 11.3851 45 15.4872" stroke="#F8A900" stroke-width="1.5" stroke-linecap="round"/>
</svg>
