<svg width="48" height="35" viewBox="0 0 48 35" fill="none" xmlns="http://www.w3.org/2000/svg">
<path d="M13.7861 22.232H10.4155C9.21662 22.232 8.06684 21.7557 7.2191 20.908L5.89953 19.5884C4.99369 18.6826 3.54657 18.617 2.56244 19.4371V19.4371C1.8867 20.0002 1.56031 20.8794 1.70492 21.7471L2.23422 24.9229C2.35289 25.6349 2.31599 26.3641 2.12607 27.0605L1.43037 29.6114C1.16424 30.5872 1.44138 31.6308 2.15658 32.346V32.346C3.12366 33.3131 4.64545 33.4463 5.76588 32.662L7.25554 31.6193C8.09358 31.0326 9.09179 30.718 10.1147 30.718H38.142C39.1195 30.718 40.0639 31.0728 40.7995 31.7165L41.6119 32.4273C42.6554 33.3404 44.2112 33.3484 45.264 32.446V32.446C46.146 31.69 46.4671 30.4666 46.0702 29.3749L45.4396 27.6407C45.054 26.5805 45.0384 25.4211 45.3951 24.3509L46.1689 22.0296C46.5073 21.0143 46.189 19.8954 45.3668 19.2103V19.2103C44.4947 18.4834 43.2517 18.4067 42.2967 19.0206L38.5364 21.4379C37.7299 21.9564 36.7914 22.232 35.8326 22.232H34.4725" stroke="#CB7C06" stroke-width="1.5"/>
<path d="M11.8432 19.4033L14.4433 23.6285C15.1713 24.8115 16.4609 25.5321 17.8499 25.5321H20.2924C21.5076 25.5321 22.6568 24.9797 23.4159 24.0309L24.1007 23.1749M24.1007 23.1749V20.8177M24.1007 23.1749L25.2864 24.3605C26.0365 25.1107 27.0539 25.5321 28.1148 25.5321H29.8801C31.2691 25.5321 32.5587 24.8115 33.2867 23.6285L35.8868 19.4033" stroke="#FFC700" stroke-width="1.5" stroke-linecap="round"/>
<path d="M19.6112 15.5119L23.7005 20.3447C23.9063 20.588 24.2842 20.5792 24.4785 20.3266L28.196 15.4938C28.449 15.165 28.2146 14.689 27.7997 14.689H19.9929C19.5672 14.689 19.3362 15.187 19.6112 15.5119Z" stroke="#FFA800" stroke-width="1.5"/>
<path d="M12.7861 6.85952C16.2433 3.87371 25.4208 -0.306421 34.4725 6.85952" stroke="#FFC700" stroke-width="1.5" stroke-linecap="round"/>
<path d="M8.07164 17.0461C2.41437 10.4459 3.35721 1.95992 3.35721 1.95992C6.34302 0.859882 13.1632 -0.208723 16.5576 4.31713" stroke="#FFC700" stroke-width="1.5" stroke-linecap="round"/>
<path d="M39.6584 17.0632C45.3157 10.463 44.3728 1.97701 44.3728 1.97701C41.387 0.876972 34.5668 -0.191633 31.1724 4.33422" stroke="#FFC700" stroke-width="1.5" stroke-linecap="round"/>
<rect x="16.0862" y="10.4458" width="1.88577" height="1.88577" fill="#CB7C06"/>
<rect x="29.2866" y="10.4458" width="1.88577" height="1.88577" fill="#CB7C06"/>
</svg>
