<svg width="49" height="51" viewBox="0 0 49 51" fill="none" xmlns="http://www.w3.org/2000/svg">
<path d="M11.9241 29.6999C20.8 31.0654 23.531 27.6516 23.531 27.6516L24.7958 26.5018C26.19 25.2344 28.3338 25.2854 29.6661 26.6177L29.7344 26.686C30.3527 27.3043 30.7 28.1428 30.7 29.0171V29.0171" stroke="#CB7C06" stroke-width="1.5"/>
<path d="M23.1896 36.8687L31.9925 28.0659C33.164 26.8943 35.0635 26.8943 36.2351 28.0659L47.4276 39.2584" stroke="#FFC700" stroke-width="1.5"/>
<path d="M1 33.4548C12.2888 23.3544 22.2849 36.0034 24.6895 39.4568C25.0594 39.9881 25.5627 40.4123 26.1637 40.6527L31.0928 42.6244C31.7226 42.8763 32.4193 42.9073 33.069 42.7124L38.3144 41.1388C38.6964 41.0242 39.0512 40.8306 39.3674 40.5877C43.1262 37.7013 45.8227 38.132 47.1589 38.6989C47.7045 38.9304 47.7281 39.6041 47.2886 40.0018L41.572 45.174C41.1546 45.5516 40.6764 45.8561 40.1577 46.0745L35.1489 48.1834C34.689 48.3771 34.2027 48.5008 33.7062 48.5504L25.4223 49.3788C24.6282 49.4582 23.8266 49.3464 23.0845 49.0527L10.0056 43.8756C8.62558 43.3293 7.07415 43.4244 5.77114 44.1352L4.07241 45.0617" stroke="#FFA800" stroke-width="1.5"/>
<mask id="path-4-inside-1" fill="white">
<path d="M26.7888 9.54851L29.869 6.46834C30.8897 5.44767 32.5445 5.44767 33.5652 6.46834C34.5859 7.48902 34.5859 9.14386 33.5652 10.1645L30.485 13.2447L33.7192 16.4789C34.6548 17.4145 34.6548 18.9314 33.7192 19.8671C32.7836 20.8027 31.2667 20.8027 30.331 19.8671L27.0969 16.6329L24.0167 19.713C22.996 20.7337 21.3412 20.7337 20.3205 19.713C19.2998 18.6924 19.2998 17.0375 20.3205 16.0168L23.4007 12.9367L20.4745 10.0105C19.5389 9.07491 19.5389 7.55797 20.4745 6.62235C21.4101 5.68673 22.9271 5.68673 23.8627 6.62235L26.7888 9.54851Z"/>
</mask>
<path d="M26.7888 9.54851L25.7282 10.6092L26.7888 11.6698L27.8495 10.6092L26.7888 9.54851ZM30.485 13.2447L29.4244 12.184L28.3637 13.2447L29.4244 14.3054L30.485 13.2447ZM27.0969 16.6329L28.1575 15.5722L27.0969 14.5116L26.0362 15.5722L27.0969 16.6329ZM23.4007 12.9367L24.4613 13.9973L25.522 12.9367L24.4613 11.876L23.4007 12.9367ZM28.8083 5.40768L25.7282 8.48785L27.8495 10.6092L30.9297 7.529L28.8083 5.40768ZM32.5045 9.10388L29.4244 12.184L31.5457 14.3054L34.6259 11.2252L32.5045 9.10388ZM29.4244 14.3054L32.6586 17.5395L34.7799 15.4182L31.5457 12.184L29.4244 14.3054ZM31.3917 18.8064L28.1575 15.5722L26.0362 17.6935L29.2704 20.9277L31.3917 18.8064ZM26.0362 15.5722L22.956 18.6524L25.0774 20.7737L28.1575 17.6935L26.0362 15.5722ZM21.3812 17.0775L24.4613 13.9973L22.34 11.876L19.2598 14.9562L21.3812 17.0775ZM24.4613 11.876L21.5352 8.94987L19.4139 11.0712L22.34 13.9973L24.4613 11.876ZM22.802 7.68301L25.7282 10.6092L27.8495 8.48785L24.9234 5.56169L22.802 7.68301ZM21.5352 8.94987C21.1853 8.60004 21.1853 8.03284 21.5352 7.68301L19.4139 5.56169C17.8924 7.0831 17.8924 9.54978 19.4139 11.0712L21.5352 8.94987ZM21.3812 18.6524C20.9463 18.2175 20.9463 17.5124 21.3812 17.0775L19.2598 14.9562C17.6534 16.5627 17.6534 19.1672 19.2598 20.7737L21.3812 18.6524ZM32.6586 17.5395C33.0084 17.8894 33.0084 18.4566 32.6586 18.8064L34.7799 20.9277C36.3013 19.4063 36.3013 16.9396 34.7799 15.4182L32.6586 17.5395ZM22.956 18.6524C22.5211 19.0873 21.8161 19.0873 21.3812 18.6524L19.2598 20.7737C20.8663 22.3802 23.4709 22.3802 25.0774 20.7737L22.956 18.6524ZM32.5045 7.529C32.9394 7.96389 32.9394 8.66899 32.5045 9.10388L34.6259 11.2252C36.2323 9.61874 36.2323 7.01415 34.6259 5.40768L32.5045 7.529ZM32.6586 18.8064C32.3087 19.1562 31.7415 19.1562 31.3917 18.8064L29.2704 20.9277C30.7918 22.4491 33.2585 22.4491 34.7799 20.9277L32.6586 18.8064ZM21.5352 7.68301C21.885 7.33318 22.4522 7.33318 22.802 7.68301L24.9234 5.56169C23.4019 4.04029 20.9353 4.04028 19.4139 5.56169L21.5352 7.68301ZM30.9297 7.529C31.3646 7.09411 32.0697 7.09411 32.5045 7.529L34.6259 5.40768C33.0194 3.80122 30.4148 3.80122 28.8083 5.40768L30.9297 7.529Z" fill="#CB7C06" mask="url(#path-4-inside-1)"/>
<path d="M33.431 30.7241H34.1138" stroke="#FFA800" stroke-width="2" stroke-linecap="round" stroke-linejoin="round"/>
<path d="M37.5276 34.1379H38.2103" stroke="#FFA800" stroke-width="2" stroke-linecap="round" stroke-linejoin="round"/>
<path d="M30.0173 34.1379H30.7" stroke="#FFA800" stroke-width="2" stroke-linecap="round" stroke-linejoin="round"/>
<path d="M27.2862 38.2344H27.969" stroke="#FFA800" stroke-width="2" stroke-linecap="round" stroke-linejoin="round"/>
<path d="M38.8931 38.2344H39.5759" stroke="#FFA800" stroke-width="2" stroke-linecap="round" stroke-linejoin="round"/>
<path d="M33.431 36.8689H34.1138" stroke="#FFA800" stroke-width="2" stroke-linecap="round" stroke-linejoin="round"/>
</svg>
