<svg width="48" height="59" viewBox="0 0 48 59" fill="none" xmlns="http://www.w3.org/2000/svg">
<path d="M15.8371 16.783V23.6612C15.8371 24.9747 15.3202 26.2354 14.3983 27.1709L4.55564 37.1583C3.67996 38.0468 3.18908 39.2443 3.18908 40.4918V40.4918C3.18908 43.1147 5.31533 45.2409 7.9382 45.2409H36.3839C39.0068 45.2409 41.133 43.1147 41.133 40.4918V40.4918C41.133 39.2443 40.6421 38.0468 39.7665 37.1583L29.9238 27.1709C29.0019 26.2354 28.485 24.9747 28.485 23.6612V16.783" stroke="#FFC700" stroke-width="1.5"/>
<path d="M7.49424 37.8057L10.8263 34.2119C11.7725 33.1914 13.1006 32.5809 14.4866 32.4555C16.4671 32.2763 19.1061 31.9767 19.6071 31.7415C19.94 31.5852 21.2957 30.8957 22.7651 30.0956C24.8008 28.9872 27.3782 29.2022 29.0828 30.7728L37.2211 38.2712C37.3957 38.4321 37.5448 38.6187 37.6631 38.8245C38.5576 40.3806 37.4344 42.322 35.6395 42.322H7.71454C6.82718 42.322 6.10784 41.6027 6.10784 40.7153C6.10784 40.5188 6.14391 40.3239 6.21424 40.1403L6.49188 39.4159C6.72021 38.8201 7.06045 38.2735 7.49424 37.8057Z" stroke="#FFA800" stroke-width="1.5"/>
<rect x="13.4251" y="10.2361" width="17.472" height="5.79691" rx="2.89846" stroke="#FFA800" stroke-width="1.5"/>
<circle cx="26.5392" cy="4.37824" r="2.16877" stroke="#CB7C06" stroke-width="1.5"/>
<circle cx="18.5126" cy="2.18907" r="1.43907" stroke="#FFA800" stroke-width="1.5"/>
<path d="M0.999974 49.0273L46.4505 13.3509" stroke="#CB7C06" stroke-width="1.5" stroke-linecap="round"/>
</svg>
