<svg width="54" height="53" viewBox="0 0 54 53" fill="none" xmlns="http://www.w3.org/2000/svg">
<path d="M22.9462 14.3571L29.0687 24.9616L22.9462 35.5661L10.7012 35.5661L4.57866 24.9616L10.7012 14.3571L22.9462 14.3571Z" stroke="#FFC700" stroke-width="1.5" stroke-linecap="round"/>
<path d="M41.0304 3.50655L47.1529 14.111L41.0304 24.7155L28.7853 24.7155L22.6628 14.111L28.7853 3.50655L41.0304 3.50655Z" stroke="#FFC700" stroke-width="1.5" stroke-linecap="round"/>
<path d="M22.9409 34.9101L29.0634 24.3056L41.3084 24.3056L47.4309 34.9101L41.3084 45.5145L29.0634 45.5145L22.9409 34.9101Z" stroke="#FFC700" stroke-width="1.5" stroke-linecap="round"/>
<path d="M7.86435 25.0625L12.3995 17.3701" stroke="#FFA800" stroke-width="1.5" stroke-linecap="round"/>
<path d="M26.6483 13.2136L31.1835 5.52122" stroke="#FFA800" stroke-width="1.5" stroke-linecap="round"/>
<path d="M39.1389 42.6924L43.674 35" stroke="#CB7C06" stroke-width="1.5" stroke-linecap="round"/>
<path d="M41.2373 3.71267L43.0457 1.45215" stroke="#FFC700" stroke-width="1.5" stroke-linecap="round"/>
<path d="M47.1147 14.1111H49.3752" stroke="#FFC700" stroke-width="1.5" stroke-linecap="round"/>
<path d="M1 24.5095H4.16473" stroke="#FFC700" stroke-width="1.5" stroke-linecap="round"/>
</svg>
