<svg width="43" height="46" viewBox="0 0 43 46" fill="none" xmlns="http://www.w3.org/2000/svg">
<path d="M4.06816 7.53043L7.92768 7.61815C13.185 7.73763 18.2163 5.37452 21.5014 1.26817C21.6634 1.06572 21.974 1.06909 22.1296 1.2765C25.2036 5.37521 30.0678 7.73705 35.1898 7.61793L39.1166 7.52661C40.7071 7.48962 42.0296 8.69135 41.9833 10.2816C41.7785 17.319 39.4302 35.7204 21.1283 44.594C21.1283 44.594 2.57049 34.6751 1.09313 10.5363C0.990289 8.85589 2.38506 7.49218 4.06816 7.53043Z" stroke="#FFC700" stroke-width="1.5"/>
<path d="M21.8219 13.0131V10.2368" stroke="#CB7C06" stroke-width="1.5" stroke-linecap="round"/>
<path d="M12.105 22.0364L9.32867 22.0364" stroke="#CB7C06" stroke-width="1.5" stroke-linecap="round"/>
<path d="M33.6214 22.0364L30.845 22.0364" stroke="#CB7C06" stroke-width="1.5" stroke-linecap="round"/>
<path d="M30.5229 30.7369L28.069 28.283" stroke="#CB7C06" stroke-width="1.5" stroke-linecap="round"/>
<path d="M15.2532 15.4671L12.7992 13.0132" stroke="#CB7C06" stroke-width="1.5" stroke-linecap="round"/>
<path d="M15.2532 28.9772L12.7992 31.4312" stroke="#CB7C06" stroke-width="1.5" stroke-linecap="round"/>
<path d="M30.5229 13.7074L28.069 16.1614" stroke="#CB7C06" stroke-width="1.5" stroke-linecap="round"/>
<path d="M21.8219 34.5295V31.7532" stroke="#CB7C06" stroke-width="1.5" stroke-linecap="round"/>
<circle cx="21.4753" cy="22.3833" r="8.62008" stroke="#CB7C06" stroke-width="1.5"/>
<circle cx="23.9043" cy="23.4245" r="2.7204" stroke="#FFA800" stroke-width="1.5"/>
<circle cx="17.6575" cy="20.6479" r="1.33224" stroke="#FFC700" stroke-width="1.5"/>
</svg>
