<svg width="27" height="27" viewBox="0 0 27 27" fill="none" xmlns="http://www.w3.org/2000/svg">
<path d="M26.7673 0.231732C26.4585 -0.0772266 25.9576 -0.0772265 25.6487 0.231627L23.6756 2.20461C22.731 2.13853 20.3832 2.14112 18.9369 3.58746C17.4906 5.03375 17.488 7.38156 17.5541 8.32615L16.7631 9.11708C16.7787 8.9534 16.7874 8.78745 16.7874 8.61929C16.7874 6.5265 15.5069 4.75949 14.7296 3.87955L16.42 2.18916C16.7289 1.88025 16.7289 1.37945 16.42 1.07055C16.1112 0.76164 15.6104 0.76164 15.3014 1.07055L13.0642 3.30787C13.0534 3.31869 13.0438 3.33029 13.0337 3.34157C12.6283 3.72383 10.4736 5.88285 10.4599 8.5935C10.0448 8.09255 9.71412 7.79224 9.67668 7.7587C9.37632 7.48976 8.92176 7.48976 8.62135 7.7587C8.51404 7.85483 6.00023 10.1397 5.98541 13.068C5.57025 12.567 5.23962 12.2667 5.20218 12.2332C4.90182 11.9643 4.44726 11.9643 4.14685 12.2332C4.03922 12.3296 1.51054 14.6276 1.51054 17.5684C1.51054 19.6629 2.793 21.4309 3.57017 22.3102L0.23168 25.6487C-0.0772265 25.9576 -0.0772265 26.4584 0.23168 26.7673C0.540533 27.0763 1.04139 27.0763 1.35029 26.7673L4.68878 23.4288C5.56798 24.206 7.3361 25.4884 9.43058 25.4884C12.3714 25.4884 14.6694 22.9598 14.7658 22.8521C15.0348 22.5518 15.0348 22.0972 14.7658 21.7968C14.7322 21.7594 14.4319 21.4287 13.931 21.0136C16.8592 20.9987 19.1441 18.4849 19.2402 18.3776C19.5092 18.0773 19.5092 17.6227 19.2402 17.3223C19.2067 17.2849 18.9064 16.9542 18.4054 16.5391C20.4139 16.5289 22.2564 15.3696 23.6911 13.9348L25.9283 11.6976C26.2372 11.3887 26.2372 10.8879 25.9283 10.579C25.6195 10.2701 25.1186 10.2701 24.8097 10.579L23.1193 12.2694C22.2394 11.4921 20.4724 10.2116 18.3796 10.2116C18.2114 10.2116 18.0455 10.2202 17.8818 10.2359L18.6728 9.44492C18.838 9.45647 19.0455 9.46596 19.2843 9.46596C20.4106 9.46596 22.2181 9.25551 23.4115 8.06207C24.8577 6.61578 24.8603 4.26797 24.7943 3.32338L26.7673 1.35034C27.0762 1.04144 27.0762 0.540639 26.7673 0.231732ZM13.625 5.01888C14.25 5.74495 15.2055 7.10313 15.2055 8.6194C15.2055 10.1274 14.2469 11.4911 13.6221 12.2199C12.9971 11.4938 12.0416 10.1357 12.0416 8.6194C12.0416 7.11141 13.0001 5.74764 13.625 5.01888ZM12.3127 13.1197C12.6769 13.5593 12.9758 13.8441 13.069 13.93C13.1549 14.0231 13.4397 14.3221 13.8793 14.6864C13.1975 14.6898 12.5506 14.8285 11.958 15.041C12.1705 14.4485 12.3092 13.8015 12.3127 13.1197ZM9.15051 9.49333C9.7755 10.2194 10.731 11.5776 10.731 13.0938C10.731 14.6018 9.77244 15.9656 9.14756 16.6944C8.52258 15.9683 7.56707 14.6101 7.56707 13.0938C7.56701 11.5858 8.52564 10.2221 9.15051 9.49333ZM7.83816 17.5943C8.20233 18.0337 8.50117 18.3185 8.5944 18.4045C8.6802 18.4975 8.96506 18.7965 9.40474 19.1609C8.72296 19.1643 8.07604 19.303 7.48354 19.5155C7.69595 18.9229 7.83468 18.276 7.83816 17.5943ZM4.67306 21.1689C4.04808 20.4428 3.09257 19.0846 3.09257 17.5683C3.09257 16.0603 4.05114 14.6965 4.67602 13.9678C5.301 14.6939 6.25651 16.0521 6.25651 17.5683C6.25651 19.0763 5.29799 20.4401 4.67306 21.1689ZM9.43063 23.9064C7.92264 23.9064 6.55893 22.9478 5.83012 22.323C6.55619 21.698 7.91436 20.7425 9.43063 20.7425C10.9386 20.7425 12.3023 21.701 13.0311 22.3259C12.3051 22.9509 10.9469 23.9064 9.43063 23.9064ZM13.9051 19.4319C12.3971 19.4319 11.0334 18.4733 10.3046 17.8484C11.0307 17.2235 12.3889 16.2679 13.9051 16.2679C15.4132 16.2679 16.7769 17.2265 17.5056 17.8514C16.7795 18.4763 15.4213 19.4319 13.9051 19.4319ZM18.3796 11.7935C19.8876 11.7934 21.2513 12.752 21.98 13.3769C21.254 14.0018 19.8958 14.9574 18.3796 14.9574C16.8716 14.9574 15.5079 13.9988 14.7791 13.374C15.5052 12.749 16.8633 11.7935 18.3796 11.7935ZM22.2929 6.94335C21.4351 7.80115 19.9572 7.90229 19.1192 7.88188C19.1008 7.04217 19.2037 5.55802 20.0556 4.70607C20.9135 3.84828 22.3916 3.74708 23.2293 3.76754C23.2476 4.60731 23.1448 6.09141 22.2929 6.94335Z" fill="#C4C4C4"/>
</svg>
