<svg width="194" height="166" viewBox="0 0 194 166" fill="none" xmlns="http://www.w3.org/2000/svg">
<g opacity="0.1">
<path d="M165.916 58.6573C155.548 39.7769 137.905 25.9621 117.088 20.4254C75.0562 9.10613 31.8059 34.0039 20.4865 76.0365C14.8895 96.8202 18.0359 118.989 29.1945 137.394C29.2265 137.449 29.2253 137.519 29.2584 137.569C29.5855 138.112 29.9684 138.6 30.3056 139.128C31.2389 140.545 32.1619 142 33.1708 143.397C33.7162 144.127 34.2891 144.863 34.8628 145.554C35.8388 146.79 36.8148 148.026 37.8639 149.206C38.5838 149.983 39.3309 150.766 40.0722 151.548C41.0585 152.571 42.0382 153.598 43.0788 154.571C43.9621 155.392 44.8872 156.141 45.7999 156.917C46.7973 157.768 47.7786 158.614 48.8178 159.418C49.857 160.221 50.9311 160.918 52.0041 161.66C53.077 162.403 53.9957 163.069 55.0403 163.723C56.2218 164.454 57.4591 165.106 58.6798 165.777C59.6971 166.336 60.6717 166.924 61.735 167.442C63.1573 168.144 64.6309 168.743 66.1 169.359C67.007 169.742 67.8775 170.174 68.8053 170.521C71.2335 171.435 73.7121 172.245 76.2493 172.925C78.7865 173.605 81.3385 174.142 83.8976 174.565C84.8753 174.728 85.845 174.79 86.8218 174.911C88.4019 175.113 89.9772 175.331 91.5604 175.434C92.7076 175.508 93.8842 175.473 95.0387 175.52C96.4315 175.549 97.8293 175.602 99.2179 175.56C100.449 175.517 101.663 175.387 102.879 175.292C104.094 175.198 105.471 175.111 106.759 174.943C108.047 174.775 109.335 174.519 110.623 174.286C111.801 174.071 112.978 173.884 114.152 173.616C115.54 173.293 116.902 172.893 118.268 172.501C119.301 172.194 120.327 171.938 121.351 171.576C122.85 171.079 124.313 170.497 125.776 169.914C126.63 169.559 127.48 169.262 128.32 168.892C129.888 168.203 131.408 167.432 132.936 166.628C133.492 166.339 134.067 166.108 134.622 165.801C134.676 165.775 134.71 165.714 134.765 165.682C172.922 144.73 186.868 96.813 165.916 58.6573ZM126.363 157.321C125.139 157.926 123.893 158.48 122.644 159.003C121.909 159.308 121.175 159.607 120.429 159.886C119.253 160.335 118.07 160.742 116.878 161.117C116.011 161.392 115.132 161.647 114.249 161.889C113.145 162.177 112.025 162.46 110.893 162.74C109.903 162.953 108.903 163.135 107.899 163.309C106.896 163.484 105.792 163.661 104.724 163.789C103.657 163.918 102.536 164.008 101.438 164.076C100.433 164.145 99.4256 164.225 98.42 164.253C97.2437 164.288 96.0343 164.25 94.8342 164.22C93.8967 164.191 92.963 164.191 92.0233 164.127C90.6657 164.031 89.3015 163.852 87.9304 163.678C87.1529 163.574 86.3705 163.511 85.593 163.384C83.4482 163.025 81.2981 162.577 79.1584 162.004C77.0187 161.431 74.9328 160.744 72.8959 159.982C72.1596 159.703 71.4503 159.367 70.7249 159.067C69.45 158.533 68.1791 158.006 66.9558 157.41C66.1095 156.996 65.301 156.529 64.4747 156.085C63.4205 155.511 62.3719 154.938 61.3529 154.321C60.4963 153.794 59.6635 153.221 58.828 152.658C57.9142 152.04 57.0016 151.416 56.1251 150.767C55.2487 150.118 54.437 149.445 53.6156 148.764C52.7941 148.083 52.0583 147.454 51.307 146.774C50.4587 145.998 49.6285 145.198 48.8263 144.359C48.1837 143.708 47.5493 143.048 46.9358 142.376C46.0914 141.455 45.2702 140.512 44.4759 139.534C43.9692 138.92 43.4836 138.294 42.9991 137.662C42.179 136.584 41.3788 135.477 40.6199 134.346C40.4285 134.102 40.2718 133.815 40.0935 133.545C45.2997 115.089 61.5804 101.923 80.7177 100.693C88.3734 107.218 98.5604 109.947 108.453 108.124C124.411 118.758 131.927 138.3 127.208 156.888C126.924 157.033 126.651 157.182 126.363 157.321ZM86.4054 58.9925C95.1098 50.0878 109.385 49.9255 118.289 58.63C127.194 67.3344 127.356 81.6093 118.652 90.514C115.764 93.4685 112.119 95.5727 108.116 96.5968C108.089 96.5895 108.056 96.5807 108.015 96.6045C106.356 97.0213 104.657 97.2587 102.947 97.3124C102.642 97.3183 102.351 97.3569 102.033 97.3476C101.45 97.3433 100.852 97.2881 100.265 97.2357C99.1599 97.1375 98.0627 96.9584 96.9833 96.7006L96.3625 96.5343C95.2987 96.2178 94.2591 95.8243 93.2526 95.3567C92.7343 95.1128 92.1834 94.8603 91.6662 94.5699C91.3965 94.4217 91.1698 94.2443 90.8924 94.0825C89.4384 93.181 88.0856 92.1261 86.8571 90.9353L86.7679 90.8765C77.8632 82.172 77.7009 67.8972 86.4054 58.9925ZM139.76 148.679C140.633 131.446 133.603 114.755 120.665 103.339C136.427 93.317 141.081 72.4149 131.06 56.6527C121.038 40.8904 100.136 36.2369 84.3736 46.2584C69.5555 55.6798 64.4124 74.8741 72.5347 90.442C55.6217 93.8603 41.1886 104.8 33.328 120.161C20.3298 85.1582 38.168 46.2458 73.1707 33.2477C108.173 20.2496 147.086 38.0877 160.084 73.0904C164.97 86.2484 165.64 100.601 162 114.157C158.37 127.703 150.594 139.774 139.76 148.679Z" fill="#9C9C9C"/>
</g>
</svg>
