<svg width="29" height="27" viewBox="0 0 29 27" fill="none" xmlns="http://www.w3.org/2000/svg">
<path d="M10.542 10.6253C8.268 7.21425 13.5977 2.68061 16.5006 1C23.8341 10.167 20.1674 11.542 19.2507 12.0004C17.8592 12.6961 16.5006 12.4587 15.1255 11.542C14.2088 12.4587 11.4587 12.0004 10.542 10.6253Z" stroke="#C4C4C4" stroke-width="1.6" stroke-linejoin="round"/>
<path d="M13.1847 18.8963C14.0916 14.8983 7.49487 12.5653 4.18338 12.0314C0.604275 23.2119 4.52033 23.1878 5.54023 23.2888C7.08835 23.4421 8.27282 22.7355 9.23015 21.3884C10.4136 21.9176 12.8191 20.508 13.1847 18.8963Z" stroke="#C4C4C4" stroke-width="1.6" stroke-linejoin="round"/>
<path d="M15.8153 20.7297C14.9084 16.7317 21.5051 14.3987 24.8166 13.8647C28.3957 25.0453 24.4797 25.0211 23.4598 25.1222C21.9117 25.2755 20.7272 24.5689 19.7698 23.2218C18.5864 23.751 16.1809 22.3413 15.8153 20.7297Z" stroke="#C4C4C4" stroke-width="1.6" stroke-linejoin="round"/>
<path d="M16.3265 4.96392C16.4906 4.55369 16.2911 4.08812 15.8808 3.92403C15.4706 3.75994 15.005 3.95947 14.841 4.3697L16.3265 4.96392ZM14.4598 11.9858C14.7048 12.3534 15.2015 12.4528 15.5692 12.2077C15.9368 11.9626 16.0361 11.4659 15.791 11.0983L14.4598 11.9858ZM14.841 4.3697C14.5409 5.11994 14.0259 6.36523 13.7876 7.71303C13.5502 9.05554 13.5613 10.6381 14.4598 11.9858L15.791 11.0983C15.2228 10.2459 15.1575 9.15475 15.3631 7.99163C15.5679 6.83379 16.0155 5.74151 16.3265 4.96392L14.841 4.3697Z" fill="#C4C4C4"/>
<path d="M5.76032 15.6721C5.46064 15.3475 5.48087 14.8414 5.80552 14.5417C6.13018 14.242 6.6363 14.2622 6.93599 14.5869L5.76032 15.6721ZM10.0102 21.5654C9.91241 21.9963 9.48387 22.2663 9.05299 22.1686C8.62211 22.0708 8.35205 21.6423 8.4498 21.2114L10.0102 21.5654ZM6.93599 14.5869C7.48408 15.1806 8.40953 16.1601 9.11317 17.3341C9.81405 18.5035 10.3685 19.9858 10.0102 21.5654L8.4498 21.2114C8.67642 20.2124 8.34802 19.1698 7.74079 18.1567C7.13632 17.1481 6.32838 16.2875 5.76032 15.6721L6.93599 14.5869Z" fill="#C4C4C4"/>
<path d="M23.2397 17.5055C23.5394 17.1809 23.5191 16.6747 23.1945 16.3751C22.8698 16.0754 22.3637 16.0956 22.064 16.4203L23.2397 17.5055ZM18.9898 23.3988C19.0876 23.8297 19.5161 24.0997 19.947 24.002C20.3779 23.9042 20.6479 23.4757 20.5502 23.0448L18.9898 23.3988ZM22.064 16.4203C21.5159 17.014 20.5905 17.9935 19.8868 19.1675C19.186 20.3369 18.6315 21.8191 18.9898 23.3988L20.5502 23.0448C20.3236 22.0458 20.652 21.0032 21.2592 19.99C21.8637 18.9815 22.6716 18.1209 23.2397 17.5055L22.064 16.4203Z" fill="#C4C4C4"/>
</svg>
