<svg width="17" height="12" viewBox="0 0 17 12" fill="none" xmlns="http://www.w3.org/2000/svg">
<path d="M1 5.2C0.558172 5.2 0.2 5.55817 0.2 6C0.2 6.44183 0.558172 6.8 1 6.8L1 5.2ZM16.5657 6.56568C16.8781 6.25326 16.8781 5.74673 16.5657 5.43431L11.4745 0.343145C11.1621 0.0307255 10.6556 0.0307256 10.3431 0.343145C10.0307 0.655564 10.0307 1.1621 10.3431 1.47452L14.8686 6L10.3431 10.5255C10.0307 10.8379 10.0307 11.3444 10.3431 11.6569C10.6556 11.9693 11.1621 11.9693 11.4745 11.6569L16.5657 6.56568ZM1 6.8L16 6.8L16 5.2L1 5.2L1 6.8Z" fill="#CB7C06"/>
</svg>
