<svg width="30" height="30" viewBox="0 0 30 30" fill="none" xmlns="http://www.w3.org/2000/svg">
<g clip-path="url(#clip0)">
<path d="M21.7199 29.9733H8.28016C4.70508 29.9733 1.70387 27.2947 1.29904 23.7426L0.0389447 12.6851C-0.339829 9.7642 2.09734 7.03374 5.04205 7.07952C6.59485 7.14095 6.59544 9.35989 5.04199 9.42155C4.26418 9.42155 3.55055 9.74113 3.0326 10.3215C2.51465 10.9018 2.27792 11.647 2.36598 12.4198L3.62614 23.4775C3.89601 25.8455 5.89679 27.6313 8.28016 27.6313H21.7199C24.1032 27.6313 26.1041 25.8456 26.3739 23.4776L27.634 12.4199C27.722 11.6471 27.4853 10.9019 26.9674 10.3216C26.4494 9.74119 25.7358 9.42161 24.958 9.42161C23.4054 9.36036 23.4043 7.14124 24.958 7.07952C27.9024 7.03356 30.3401 9.76484 29.961 12.6851L28.7009 23.7427C28.2961 27.2948 25.2949 29.9733 21.7199 29.9733ZM10.7797 10.9439V6.61105C11.0151 0.939222 19.095 0.943613 19.3283 6.61105V7.07947H14.2928C12.7391 7.1413 12.7402 9.36025 14.2928 9.42155H20.4993C21.1461 9.42155 21.6704 8.89727 21.6704 8.25051V6.61105C21.3059 -2.16867 8.79881 -2.16187 8.4376 6.61105V10.9439C8.4376 11.5907 8.96188 12.1149 9.60865 12.1149C10.2554 12.1149 10.7797 11.5907 10.7797 10.9439ZM11.4238 17.0333C11.4238 17.8418 10.7684 18.4971 9.95996 18.4971C8.01825 18.42 8.01878 15.6463 9.95996 15.5695C10.7684 15.5695 11.4238 16.2249 11.4238 17.0333ZM14.9954 15.5695C14.187 15.5695 13.5316 16.2249 13.5316 17.0333C13.6088 18.975 16.3824 18.9745 16.4592 17.0333C16.4592 16.2249 15.8039 15.5695 14.9954 15.5695ZM20.0309 15.5695C19.2225 15.5695 18.5671 16.2249 18.5671 17.0333C18.6442 18.975 21.4179 18.9745 21.4947 17.0333C21.4947 16.2249 20.8394 15.5695 20.0309 15.5695ZM9.95996 20.605C9.15153 20.605 8.49615 21.2604 8.49615 22.0688C8.57327 24.0105 11.3469 24.01 11.4238 22.0688C11.4238 21.2604 10.7684 20.605 9.95996 20.605ZM14.9954 20.605C14.187 20.605 13.5316 21.2604 13.5316 22.0688C13.6088 24.0105 16.3824 24.01 16.4592 22.0688C16.4592 21.2604 15.8039 20.605 14.9954 20.605ZM20.0309 20.605C19.2225 20.605 18.5671 21.2604 18.5671 22.0688C18.6442 24.0105 21.4179 24.01 21.4947 22.0688C21.4947 21.2604 20.8394 20.605 20.0309 20.605Z" fill="black"/>
</g>
<defs>
<clipPath id="clip0">
<rect width="30" height="30" fill="white"/>
</clipPath>
</defs>
</svg>
