<svg width="30" height="30" viewBox="0 0 30 30" fill="none" xmlns="http://www.w3.org/2000/svg">
<g clip-path="url(#clip0)">
<path d="M21.7197 29.9733H8.28003C4.70496 29.9733 1.70375 27.2947 1.29892 23.7426L0.0388226 12.6851C-0.339951 9.7642 2.09722 7.03374 5.04193 7.07952C6.59473 7.14095 6.59531 9.35989 5.04187 9.42155C4.26406 9.42155 3.55043 9.74113 3.03248 10.3215C2.51452 10.9018 2.2778 11.647 2.36586 12.4198L3.62602 23.4775C3.89589 25.8455 5.89667 27.6313 8.28003 27.6313H21.7197C24.1031 27.6313 26.1039 25.8456 26.3738 23.4776L27.6339 12.4199C27.7219 11.6471 27.4852 10.9019 26.9672 10.3216C26.4493 9.74119 25.7357 9.42161 24.9578 9.42161C23.4053 9.36036 23.4042 7.14124 24.9578 7.07952C27.9023 7.03356 30.34 9.76484 29.9608 12.6851L28.7007 23.7427C28.296 27.2948 25.2948 29.9733 21.7197 29.9733ZM10.7796 10.9439V6.61105C11.015 0.939222 19.0948 0.943613 19.3282 6.61105V7.07947H14.2927C12.739 7.1413 12.7401 9.36025 14.2927 9.42155H20.4992C21.146 9.42155 21.6703 8.89727 21.6703 8.25051V6.61105C21.3058 -2.16867 8.79869 -2.16187 8.43748 6.61105V10.9439C8.43748 11.5907 8.96176 12.1149 9.60852 12.1149C10.2553 12.1149 10.7796 11.5907 10.7796 10.9439ZM11.4236 17.0333C11.4236 17.8418 10.7683 18.4971 9.95984 18.4971C8.01813 18.42 8.01866 15.6463 9.95984 15.5695C10.7683 15.5695 11.4236 16.2249 11.4236 17.0333ZM14.9953 15.5695C14.1869 15.5695 13.5315 16.2249 13.5315 17.0333C13.6086 18.975 16.3823 18.9745 16.4591 17.0333C16.4591 16.2249 15.8037 15.5695 14.9953 15.5695ZM20.0308 15.5695C19.2224 15.5695 18.567 16.2249 18.567 17.0333C18.6441 18.975 21.4178 18.9745 21.4946 17.0333C21.4946 16.2249 20.8392 15.5695 20.0308 15.5695ZM9.95984 20.605C9.15141 20.605 8.49603 21.2604 8.49603 22.0688C8.57315 24.0105 11.3468 24.01 11.4236 22.0688C11.4236 21.2604 10.7683 20.605 9.95984 20.605ZM14.9953 20.605C14.1869 20.605 13.5315 21.2604 13.5315 22.0688C13.6086 24.0105 16.3823 24.01 16.4591 22.0688C16.4591 21.2604 15.8037 20.605 14.9953 20.605ZM20.0308 20.605C19.2224 20.605 18.567 21.2604 18.567 22.0688C18.6441 24.0105 21.4178 24.01 21.4946 22.0688C21.4946 21.2604 20.8392 20.605 20.0308 20.605Z" fill="white"/>
</g>
<defs>
<clipPath id="clip0">
<rect width="30" height="30" fill="white"/>
</clipPath>
</defs>
</svg>
