<svg width="10" height="9" viewBox="0 0 10 9" fill="none" xmlns="http://www.w3.org/2000/svg">
<path d="M2.20711 4.29289C1.81658 3.90237 1.18342 3.90237 0.792893 4.29289C0.402369 4.68342 0.402369 5.31658 0.792893 5.70711L2.20711 4.29289ZM4 7.5L3.29289 8.20711C3.50257 8.41678 3.79448 8.52259 4.08981 8.49596C4.38513 8.46933 4.65341 8.31301 4.82219 8.06921L4 7.5ZM9.32219 1.56921C9.63656 1.11513 9.52329 0.492174 9.06921 0.177808C8.61513 -0.136558 7.99217 -0.0232942 7.67781 0.43079L9.32219 1.56921ZM0.792893 5.70711L3.29289 8.20711L4.70711 6.79289L2.20711 4.29289L0.792893 5.70711ZM4.82219 8.06921L9.32219 1.56921L7.67781 0.43079L3.17781 6.93079L4.82219 8.06921Z" fill="#FFC700"/>
</svg>
