<svg width="20" height="23" viewBox="0 0 20 23" fill="none" xmlns="http://www.w3.org/2000/svg">
<mask id="path-1-inside-1" fill="white">
<path d="M20 9.8421C20 14.2703 17.0286 18.0155 12.9412 19.2516C12.0113 19.5328 10 23 10 23C10 23 7.67058 19.48 6.61279 19.1053C2.75699 17.7393 0 14.1076 0 9.8421C0 4.40646 4.47715 0 10 0C15.5228 0 20 4.40646 20 9.8421Z"/>
</mask>
<path d="M10 23L8.33214 24.1037L10.1118 26.793L11.73 24.0036L10 23ZM6.61279 19.1053L5.94494 20.9905L6.61279 19.1053ZM12.9412 19.2516L13.5201 21.166L12.9412 19.2516ZM2 9.8421C2 5.54092 5.55159 2 10 2V-2C3.40271 -2 -2 3.272 -2 9.8421H2ZM10 2C14.4484 2 18 5.54092 18 9.8421H22C22 3.272 16.5973 -2 10 -2V2ZM10 23C11.6679 21.8963 11.6678 21.8961 11.6677 21.896C11.6676 21.8959 11.6675 21.8957 11.6674 21.8956C11.6672 21.8953 11.667 21.895 11.6667 21.8946C11.6662 21.8938 11.6656 21.8928 11.6648 21.8916C11.6632 21.8892 11.661 21.8859 11.6583 21.8819C11.6529 21.8737 11.6453 21.8623 11.6356 21.8478C11.6162 21.8189 11.5884 21.7776 11.5532 21.7256C11.4827 21.6217 11.3821 21.4747 11.2584 21.2978C11.0122 20.9458 10.669 20.4674 10.287 19.972C9.91016 19.4833 9.47006 18.9444 9.03155 18.4873C8.81256 18.2591 8.5687 18.0246 8.31241 17.8193C8.07985 17.633 7.72284 17.3767 7.28065 17.2201L5.94494 20.9905C5.7672 20.9275 5.71436 20.8632 5.81166 20.9412C5.88523 21.0001 5.9969 21.102 6.14504 21.2565C6.44081 21.5648 6.78139 21.9762 7.11916 22.4143C7.45175 22.8457 7.75702 23.2708 7.98061 23.5905C8.09181 23.7494 8.18142 23.8804 8.24251 23.9705C8.27303 24.0155 8.29634 24.0502 8.31159 24.0729C8.31921 24.0843 8.3248 24.0927 8.32827 24.0979C8.33 24.1005 8.3312 24.1023 8.33185 24.1033C8.33217 24.1038 8.33236 24.1041 8.33241 24.1041C8.33243 24.1042 8.33242 24.1042 8.33238 24.1041C8.33235 24.1041 8.33229 24.104 8.33228 24.104C8.33222 24.1039 8.33214 24.1037 10 23ZM7.28065 17.2201C4.18228 16.1224 2 13.2177 2 9.8421H-2C-2 14.9974 1.33169 19.3562 5.94494 20.9905L7.28065 17.2201ZM18 9.8421C18 13.3463 15.6472 16.3438 12.3622 17.3373L13.5201 21.166C18.4101 19.6872 22 15.1943 22 9.8421H18ZM12.3622 17.3373C11.8553 17.4906 11.4725 17.7836 11.2567 17.966C11.0089 18.1755 10.7812 18.414 10.5848 18.6382C10.1904 19.0885 9.80101 19.6215 9.47291 20.0995C9.13905 20.5859 8.84014 21.0574 8.62629 21.4043C8.51876 21.5788 8.43131 21.724 8.37008 21.8268C8.33943 21.8782 8.31527 21.9192 8.29835 21.948C8.28989 21.9624 8.28324 21.9737 8.27848 21.9819C8.2761 21.986 8.2742 21.9892 8.27279 21.9917C8.27208 21.9929 8.27149 21.9939 8.27103 21.9947C8.2708 21.9951 8.27059 21.9954 8.27042 21.9957C8.27034 21.9959 8.27024 21.9961 8.27019 21.9961C8.2701 21.9963 8.27001 21.9964 10 23C11.73 24.0036 11.7299 24.0037 11.7299 24.0038C11.7298 24.0038 11.7298 24.0039 11.7298 24.004C11.7297 24.004 11.7297 24.0041 11.7297 24.004C11.7297 24.004 11.7299 24.0038 11.7301 24.0033C11.7307 24.0024 11.7317 24.0007 11.7331 23.9982C11.736 23.9932 11.7408 23.9851 11.7473 23.974C11.7603 23.9519 11.7802 23.9181 11.8064 23.8741C11.8588 23.7862 11.9357 23.6584 12.0313 23.5034C12.2236 23.1914 12.4856 22.7786 12.7708 22.3631C13.0618 21.9391 13.3495 21.5526 13.5938 21.2737C13.7168 21.1333 13.7988 21.0548 13.839 21.0208C13.9111 20.9599 13.7946 21.083 13.5201 21.166L12.3622 17.3373Z" fill="#FFC700" mask="url(#path-1-inside-1)"/>
<circle cx="10" cy="10" r="3" stroke="white" stroke-width="2"/>
</svg>
