<svg width="155" height="96" viewBox="0 0 155 96" fill="none" xmlns="http://www.w3.org/2000/svg">
<path d="M3.5875 90V81.5977H6.6461C7.5836 81.5977 8.3043 81.7695 8.8082 82.1133C9.31211 82.457 9.56406 82.9414 9.56406 83.5664C9.56406 84.0195 9.40977 84.416 9.10117 84.7559C8.79649 85.0957 8.40586 85.332 7.9293 85.4648V85.4883C8.52695 85.5625 9.00352 85.7832 9.35899 86.1504C9.71836 86.5176 9.89805 86.9648 9.89805 87.4922C9.89805 88.2617 9.62266 88.873 9.07188 89.3262C8.5211 89.7754 7.76914 90 6.81602 90H3.5875ZM5.48008 82.9922V84.9844H6.31211C6.70274 84.9844 7.00938 84.8906 7.23203 84.7031C7.4586 84.5117 7.57188 84.25 7.57188 83.918C7.57188 83.3008 7.11094 82.9922 6.18906 82.9922H5.48008ZM5.48008 86.3906V88.6055H6.50547C6.94297 88.6055 7.28477 88.5039 7.53086 88.3008C7.78086 88.0977 7.90586 87.8203 7.90586 87.4688C7.90586 87.1328 7.78281 86.8691 7.53672 86.6777C7.29453 86.4863 6.95469 86.3906 6.51719 86.3906H5.48008ZM19.2754 90H17.2129L16.6152 88.1309H13.627L13.0352 90H10.9844L14.043 81.5977H16.2871L19.2754 90ZM16.1816 86.6777L15.2793 83.8535C15.2129 83.6426 15.166 83.3906 15.1387 83.0977H15.0918C15.0723 83.3438 15.0234 83.5879 14.9453 83.8301L14.0313 86.6777H16.1816ZM31.1371 90H20.9242V81.5977H22.8168V88.3828H25.0844V81.5977H26.9711V88.3828H29.2387V81.5977H31.1371V90ZM41.0535 90H38.991L38.3934 88.1309H35.4051L34.8133 90H32.7625L35.8211 81.5977H38.0652L41.0535 90ZM37.9598 86.6777L37.0574 83.8535C36.991 83.6426 36.9441 83.3906 36.9168 83.0977H36.8699C36.8504 83.3438 36.8016 83.5879 36.7234 83.8301L35.8094 86.6777H37.9598ZM53.6031 90H51.2125L48.7633 86.3496C48.7164 86.2793 48.6422 86.125 48.5406 85.8867H48.5113V90H46.6188V81.5977H48.5113V85.5703H48.5406C48.5875 85.4609 48.6656 85.3047 48.775 85.1016L51.0953 81.5977H53.3512L50.4215 85.6055L53.6031 90ZM58.1289 90.1465C56.9258 90.1465 55.9453 89.7559 55.1875 88.9746C54.4297 88.1895 54.0508 87.168 54.0508 85.9102C54.0508 84.582 54.4355 83.5078 55.2051 82.6875C55.9746 81.8672 56.9941 81.457 58.2637 81.457C59.4629 81.457 60.4316 81.8496 61.1699 82.6348C61.9121 83.4199 62.2832 84.4551 62.2832 85.7402C62.2832 87.0605 61.8984 88.125 61.1289 88.9336C60.3633 89.7422 59.3633 90.1465 58.1289 90.1465ZM58.2109 83.0859C57.5469 83.0859 57.0195 83.3359 56.6289 83.8359C56.2383 84.332 56.043 84.9902 56.043 85.8105C56.043 86.6426 56.2383 87.3008 56.6289 87.7852C57.0195 88.2695 57.5312 88.5117 58.1641 88.5117C58.8164 88.5117 59.334 88.2773 59.7168 87.8086C60.0996 87.3359 60.291 86.6816 60.291 85.8457C60.291 84.9746 60.1055 84.2969 59.7344 83.8125C59.3633 83.3281 58.8555 83.0859 58.2109 83.0859ZM66.1762 87.1055V90H64.2836V81.5977H67.2484C69.3656 81.5977 70.4242 82.4902 70.4242 84.2754C70.4242 85.1191 70.1195 85.8027 69.5102 86.3262C68.9047 86.8457 68.0941 87.1055 67.0785 87.1055H66.1762ZM66.1762 83.0508V85.6699H66.9203C67.9281 85.6699 68.432 85.2285 68.432 84.3457C68.432 83.4824 67.9281 83.0508 66.9203 83.0508H66.1762ZM71.6102 89.6895V88.0312C72.2781 88.4805 73.0379 88.7051 73.8895 88.7051C74.9441 88.7051 75.4715 88.3242 75.4715 87.5625C75.4715 86.7891 74.8914 86.4023 73.7313 86.4023H72.6531V84.9844H73.6844C74.7156 84.9844 75.2313 84.6211 75.2313 83.8945C75.2313 83.2305 74.7918 82.8984 73.9129 82.8984C73.284 82.8984 72.6121 83.0977 71.8973 83.4961V81.9492C72.616 81.6211 73.4109 81.457 74.282 81.457C75.2 81.457 75.9109 81.6484 76.4148 82.0312C76.9227 82.4102 77.1766 82.9258 77.1766 83.5781C77.1766 84.0898 77.032 84.5254 76.743 84.8848C76.4578 85.2402 76.0496 85.4805 75.5184 85.6055V85.6348C76.116 85.7129 76.5828 85.9297 76.9188 86.2852C77.2586 86.6367 77.4285 87.0742 77.4285 87.5977C77.4285 88.4062 77.1356 89.0332 76.5496 89.4785C75.9637 89.9238 75.1199 90.1465 74.0184 90.1465C72.9715 90.1465 72.1688 89.9941 71.6102 89.6895ZM87.0109 90H85.2238V85.3828C85.2238 84.8516 85.2434 84.3984 85.2824 84.0234H85.2473C85.1652 84.1836 85.0246 84.416 84.8254 84.7207L81.3566 90H79.4523V81.5977H81.2395V86.2441C81.2395 86.8184 81.2238 87.2031 81.1926 87.3984H81.216C81.2355 87.3516 81.3801 87.123 81.6496 86.7129L84.9836 81.5977H87.0109V90ZM96.816 90H94.9176V86.5781H91.4371V90H89.5445V81.5977H91.4371V84.9492H94.9176V81.5977H96.816V90ZM106.732 90H104.67L104.072 88.1309H101.084L100.492 90H98.4414L101.5 81.5977H103.744L106.732 90ZM103.639 86.6777L102.736 83.8535C102.67 83.6426 102.623 83.3906 102.596 83.0977H102.549C102.529 83.3438 102.48 83.5879 102.402 83.8301L101.488 86.6777H103.639ZM119.563 90H117.671V83.25H114.19V90H112.298V81.5977H119.563V90ZM128.554 81.5977L125.923 87.3574C125.431 88.4355 124.966 89.1699 124.529 89.5605C124.091 89.9512 123.536 90.1465 122.864 90.1465C122.419 90.1465 122.056 90.082 121.775 89.9531V88.2246C122.095 88.4316 122.427 88.5352 122.771 88.5352C123.243 88.5352 123.659 88.1523 124.019 87.3867L121.259 81.5977H123.415L124.81 84.9609C124.892 85.1641 124.956 85.3926 125.003 85.6465H125.015C125.058 85.4355 125.124 85.2148 125.214 84.9844L126.562 81.5977H128.554ZM135.916 89.7012C135.302 89.998 134.502 90.1465 133.513 90.1465C132.224 90.1465 131.211 89.7676 130.472 89.0098C129.734 88.252 129.365 87.2422 129.365 85.9805C129.365 84.6367 129.779 83.5469 130.607 82.7109C131.439 81.875 132.517 81.457 133.841 81.457C134.662 81.457 135.353 81.5605 135.916 81.7676V83.5898C135.353 83.2539 134.712 83.0859 133.994 83.0859C133.205 83.0859 132.568 83.334 132.084 83.8301C131.599 84.3262 131.357 84.998 131.357 85.8457C131.357 86.6582 131.586 87.3066 132.043 87.791C132.5 88.2715 133.115 88.5117 133.888 88.5117C134.627 88.5117 135.302 88.332 135.916 87.9727V89.7012ZM143.881 83.1387H141.484V90H139.586V83.1387H137.201V81.5977H143.881V83.1387ZM152.286 90H150.223L149.625 88.1309H146.637L146.045 90H143.995L147.053 81.5977H149.297L152.286 90ZM149.192 86.6777L148.289 83.8535C148.223 83.6426 148.176 83.3906 148.149 83.0977H148.102C148.082 83.3438 148.034 83.5879 147.955 83.8301L147.041 86.6777H149.192Z" fill="#E5E5E5"/>
<path d="M44.3336 20.2314C43.7764 17.7326 45.6776 15.3608 48.2377 15.3608H107.762C110.322 15.3608 112.224 17.7326 111.666 20.2314L105.169 49.3712C104.251 53.4859 100.6 56.4124 96.3843 56.4124H59.6157C55.3999 56.4124 51.749 53.4859 50.8315 49.3712L44.3336 20.2314Z" stroke="#E5E5E5" stroke-width="2"/>
<line x1="79.3711" y1="28.7217" x2="79.3711" y2="43.0516" stroke="#E5E5E5" stroke-width="2" stroke-linecap="round" stroke-linejoin="round"/>
<line x1="89.7627" y1="28.7217" x2="89.7627" y2="43.0516" stroke="#E5E5E5" stroke-width="2" stroke-linecap="round" stroke-linejoin="round"/>
<line x1="91.2247" y1="1.70796" x2="95.6764" y2="18.3219" stroke="#E5E5E5" stroke-width="2" stroke-linecap="round" stroke-linejoin="round"/>
<line x1="1" y1="-1" x2="18.2" y2="-1" transform="matrix(-0.258819 0.965926 0.965926 0.258819 66.1689 1)" stroke="#E5E5E5" stroke-width="2" stroke-linecap="round" stroke-linejoin="round"/>
<line x1="68.9795" y1="28.7217" x2="68.9795" y2="43.0516" stroke="#E5E5E5" stroke-width="2" stroke-linecap="round" stroke-linejoin="round"/>
</svg>
