<svg width="20" height="20" viewBox="0 0 20 20" fill="none" xmlns="http://www.w3.org/2000/svg">
<path d="M14.4948 12.3889L14.4874 12.4492C12.6767 11.5689 12.4873 11.4516 12.2534 11.7938C12.0912 12.0307 11.6185 12.568 11.4761 12.7271C11.332 12.8837 11.1887 12.8957 10.9441 12.7873C10.6971 12.6668 9.90411 12.4138 8.96538 11.5946C8.23416 10.9561 7.74338 10.173 7.59845 9.93203C7.35718 9.52563 7.86196 9.4678 8.32144 8.61965C8.40379 8.45098 8.36179 8.31846 8.30086 8.19879C8.2391 8.07831 7.7475 6.89765 7.54164 6.42699C7.34401 5.95794 7.14062 6.01737 6.98828 6.01737C6.51397 5.97721 6.1673 5.98364 5.8618 6.29366C4.53275 7.71849 4.8679 9.1883 6.00508 10.7513C8.23992 13.6041 9.43063 14.1294 11.6078 14.8587C12.1958 15.041 12.7318 15.0153 13.1559 14.9559C13.6286 14.8828 14.6109 14.3768 14.816 13.8106C15.026 13.2443 15.026 12.7745 14.9642 12.666C14.9033 12.5576 14.7419 12.4974 14.4948 12.3889Z" fill="white"/>
<path d="M17.1 2.87448C10.6925 -3.31958 0.0883333 1.17284 0.0841667 9.91101C0.0841667 11.6576 0.541667 13.361 1.41333 14.8651L0 20L5.27917 18.6234C11.8667 22.1816 19.9967 17.4567 20 9.91601C20 7.2694 18.9667 4.77861 17.0875 2.90697L17.1 2.87448ZM18.335 9.88852C18.33 16.2492 11.3475 20.2217 5.825 16.9751L5.525 16.7967L2.4 17.6092L3.2375 14.5718L3.03833 14.2593C-0.398333 8.78854 3.55 1.63866 10.06 1.63866C12.2717 1.63866 14.3475 2.50115 15.9108 4.06362C17.4733 5.61276 18.335 7.68855 18.335 9.88852Z" fill="#FFC700"/>
</svg>
