<svg width="17" height="17" viewBox="0 0 17 17" fill="none" xmlns="http://www.w3.org/2000/svg">
<g clip-path="url(#clip0)">
<path d="M16.9834 4.99805C16.9435 4.09477 16.7975 3.47378 16.5882 2.93568C16.3724 2.3645 16.0403 1.85312 15.6052 1.42801C15.18 0.996288 14.6653 0.660819 14.1007 0.44833C13.5595 0.239083 12.9418 0.0930128 12.0385 0.0531873C11.1285 0.00998882 10.8396 0 8.53152 0C6.22345 0 5.93455 0.00998882 5.0279 0.0498144C4.12463 0.08964 3.50364 0.23584 2.96567 0.444957C2.39436 0.660819 1.88298 0.992916 1.45787 1.42801C1.02615 1.85312 0.69081 2.36787 0.478191 2.93243C0.268945 3.47378 0.122874 4.0914 0.0830487 4.99467C0.0398503 5.90469 0.0298615 6.19359 0.0298615 8.50166C0.0298615 10.8097 0.0398503 11.0986 0.0796758 12.0053C0.119501 12.9085 0.265701 13.5295 0.474948 14.0676C0.69081 14.6388 1.02615 15.1502 1.45787 15.5753C1.88298 16.007 2.39773 16.3425 2.96229 16.555C3.50364 16.7642 4.12126 16.9103 5.02466 16.9501C5.93118 16.9901 6.22021 16.9999 8.52827 16.9999C10.8363 16.9999 11.1252 16.9901 12.0319 16.9501C12.9352 16.9103 13.5562 16.7642 14.0941 16.555C15.2366 16.1133 16.1399 15.21 16.5816 14.0676C16.7907 13.5263 16.9369 12.9085 16.9767 12.0053C17.0166 11.0986 17.0266 10.8097 17.0266 8.50166C17.0266 6.19359 17.0232 5.90469 16.9834 4.99805ZM15.4525 11.9389C15.4159 12.7691 15.2764 13.2174 15.1602 13.5163C14.8745 14.2569 14.2868 14.8447 13.5462 15.1304C13.2473 15.2466 12.7957 15.386 11.9687 15.4225C11.072 15.4624 10.8031 15.4723 8.53489 15.4723C6.26665 15.4723 5.99436 15.4624 5.10094 15.4225C4.2707 15.386 3.82237 15.2466 3.52348 15.1304C3.15494 14.9941 2.81947 14.7783 2.54717 14.496C2.26489 14.2203 2.04903 13.8882 1.91282 13.5197C1.79659 13.2208 1.65713 12.7691 1.62068 11.9422C1.58072 11.0456 1.57086 10.7765 1.57086 8.50828C1.57086 6.24003 1.58072 5.96774 1.62068 5.07445C1.65713 4.24421 1.79659 3.79588 1.91282 3.497C2.04903 3.12832 2.26489 2.79298 2.55055 2.52056C2.82608 2.23828 3.15818 2.02241 3.52686 1.88633C3.82574 1.7701 4.27745 1.63064 5.10431 1.59406C6.00097 1.55424 6.27002 1.54425 8.53813 1.54425C10.8097 1.54425 11.0787 1.55424 11.9721 1.59406C12.8023 1.63064 13.2507 1.7701 13.5495 1.88633C13.9181 2.02241 14.2536 2.23828 14.5258 2.52056C14.8081 2.79622 15.024 3.12832 15.1602 3.497C15.2764 3.79588 15.4159 4.24746 15.4525 5.07445C15.4923 5.97111 15.5023 6.24003 15.5023 8.50828C15.5023 10.7765 15.4923 11.0422 15.4525 11.9389Z" fill="white"/>
<path d="M8.53152 4.13477C6.12058 4.13477 4.16446 6.09076 4.16446 8.50183C4.16446 10.9129 6.12058 12.8689 8.53152 12.8689C10.9426 12.8689 12.8986 10.9129 12.8986 8.50183C12.8986 6.09076 10.9426 4.13477 8.53152 4.13477ZM8.53152 11.3346C6.96743 11.3346 5.69872 10.0661 5.69872 8.50183C5.69872 6.9376 6.96743 5.66902 8.53152 5.66902C10.0957 5.66902 11.3643 6.9376 11.3643 8.50183C11.3643 10.0661 10.0957 11.3346 8.53152 11.3346Z" fill="white"/>
<path d="M14.0909 3.96189C14.0909 4.5249 13.6344 4.9814 13.0713 4.9814C12.5082 4.9814 12.0517 4.5249 12.0517 3.96189C12.0517 3.39876 12.5082 2.94238 13.0713 2.94238C13.6344 2.94238 14.0909 3.39876 14.0909 3.96189Z" fill="white"/>
</g>
<defs>
<clipPath id="clip0">
<rect width="17" height="17" fill="white"/>
</clipPath>
</defs>
</svg>
