<svg width="28" height="28" viewBox="0 0 28 28" fill="none" xmlns="http://www.w3.org/2000/svg">
<mask id="path-1-outside-1" maskUnits="userSpaceOnUse" x="0" y="0" width="28" height="28" fill="black">
<rect fill="white" width="28" height="28"/>
<path d="M26.5878 1.8672C26.8273 1.8553 27.0115 1.65158 26.9994 1.41216C26.9875 1.17294 26.7838 0.988463 26.5446 1.00056C25.1049 1.10887 23.6739 1.31139 22.2606 1.60715C22.2312 1.61012 22.202 1.61627 22.1739 1.6254C18.5808 2.33195 15.1146 3.57607 11.8924 5.31608C11.8836 5.32124 11.8747 5.32461 11.8664 5.33036C11.3389 5.62414 10.8147 5.93695 10.2977 6.27019C7.15311 8.30378 4.6345 12.3376 2.80679 18.2599C1.97962 20.958 1.37621 23.7199 1.00289 26.5172C0.989599 26.6314 1.02253 26.7463 1.09394 26.8364C1.16555 26.9264 1.26989 26.9843 1.38414 26.9974C1.40041 26.999 1.41687 27 1.43314 27C1.65312 26.9996 1.83799 26.8346 1.86299 26.616C1.87429 26.5172 2.64811 20.0538 5.19964 14.3309L8.81141 17.0409C8.50792 17.1695 8.2441 17.3764 8.04653 17.6402C6.79982 19.2929 7.82992 23.0667 7.94953 23.49C8.00269 23.6759 8.17269 23.804 8.36589 23.8042C8.38632 23.8042 8.40656 23.8028 8.42659 23.8003C8.64023 23.7703 8.79931 23.5878 8.79971 23.3722C8.79971 21.9626 9.49299 20.9827 10.0998 20.1921C10.7064 20.9824 11.3996 21.9617 11.3996 23.3722C11.3994 23.5884 11.5587 23.7715 11.7728 23.8016C11.793 23.8042 11.8132 23.8054 11.8335 23.8054C12.0269 23.8054 12.1967 23.6773 12.2498 23.4914C12.3708 23.0667 13.3995 19.2929 12.1528 17.6414C11.7702 17.1367 11.166 16.8497 10.533 16.8723C10.3967 16.8733 10.2618 16.9003 10.1357 16.9521L5.57097 13.5288C6.85894 10.8594 8.55493 8.43152 10.7683 6.99897C11.2017 6.71829 11.6399 6.45268 12.083 6.20255L15.255 8.3982C14.9749 8.52852 14.7315 8.72629 14.5465 8.97364C13.2998 10.6264 14.3299 14.4002 14.4495 14.8235C14.5026 15.0095 14.6726 15.1377 14.8658 15.1377C14.8863 15.1377 14.9065 15.1365 14.9265 15.1339C15.1402 15.1038 15.2992 14.9213 15.2996 14.7056C15.2996 13.2961 15.9929 12.3164 16.5997 11.5255C17.2063 12.3158 17.8996 13.2953 17.8996 14.7056C17.8994 14.9219 18.0587 15.1051 18.2727 15.1351C18.2929 15.1377 18.3132 15.1391 18.3334 15.1391C18.5268 15.1389 18.6966 15.0107 18.7498 14.8249C18.8708 14.4002 19.8995 10.6264 18.6528 8.97503C18.2701 8.4702 17.6659 8.18337 17.0329 8.20579C16.8925 8.20777 16.7536 8.23733 16.6243 8.29247L12.935 5.73839C15.8225 4.2612 18.8971 3.18252 22.0747 2.5319L23.1363 4.34313C22.6486 4.41692 22.2094 4.67935 21.913 5.07369C20.6665 6.72642 21.6964 10.5002 21.816 10.9237C21.8692 11.1096 22.0392 11.2377 22.2324 11.2377C22.2528 11.2377 22.2731 11.2365 22.2931 11.234C22.5067 11.204 22.6658 11.0215 22.6662 10.8057C22.6662 9.39615 23.3595 8.41645 23.9663 7.62559C24.5729 8.41605 25.2661 9.39535 25.2661 10.8057C25.2661 11.0219 25.4252 11.2052 25.6393 11.2351C25.6595 11.2377 25.6797 11.2391 25.7 11.2391C25.8934 11.2389 26.0632 11.1108 26.1163 10.9249C26.2373 10.5002 27.266 6.72642 26.0193 5.07507C25.6367 4.57025 25.0325 4.28342 24.3995 4.30583C24.3118 4.30702 24.2244 4.31912 24.1397 4.34194L22.9739 2.3512C24.168 2.11892 25.3747 1.95725 26.5878 1.8672ZM8.39287 21.2878C8.24588 20.1205 8.24251 18.8178 8.73941 18.1619C8.95701 17.8733 9.30573 17.7142 9.66636 17.739C9.71277 17.7413 9.7578 17.7562 9.79628 17.7822L9.83139 17.8088C9.89685 17.8649 9.94922 17.9347 9.98493 18.0133C9.99088 18.0258 9.99703 18.0383 10.0026 18.0522C10.0083 18.0661 10.0186 18.0917 10.026 18.1129C10.0355 18.141 10.0442 18.171 10.052 18.1996C10.0559 18.2148 10.0603 18.2285 10.0637 18.243C10.0728 18.2862 10.0797 18.3295 10.0855 18.3781C10.0855 18.389 10.0889 18.3981 10.0897 18.4092C10.0966 18.4737 10.0998 18.5384 10.0998 18.603C10.0248 18.828 9.90697 19.0362 9.75304 19.2166V19.2201C9.68203 19.3153 9.60705 19.4125 9.53643 19.5066C9.08515 20.0522 8.70132 20.6505 8.39287 21.2878ZM11.4607 18.1619C11.957 18.8192 11.9535 20.1201 11.8075 21.2866C11.5006 20.6511 11.1188 20.0546 10.6701 19.5099L10.6397 19.4705C10.6881 19.3977 10.7306 19.3262 10.7696 19.2538C10.7762 19.2429 10.781 19.2322 10.7869 19.2213C10.8161 19.1672 10.842 19.113 10.8645 19.0593C10.8728 19.0394 10.8809 19.0194 10.8885 18.9999C10.9053 18.9541 10.9198 18.9073 10.9317 18.8599C10.9365 18.8401 10.943 18.82 10.9468 18.7998C10.9597 18.7355 10.9666 18.6703 10.9672 18.6048C10.9672 18.4628 10.9557 18.321 10.9325 18.1809C10.9256 18.1377 10.9127 18.1004 10.9035 18.0591C10.8863 17.9748 10.8637 17.8915 10.8359 17.81C10.8307 17.7953 10.829 17.778 10.8234 17.7636C11.0793 17.808 11.3078 17.9502 11.4607 18.1601V18.1619ZM14.8928 12.6215C14.7458 11.4539 14.7424 10.1515 15.2393 9.49533C15.4569 9.20671 15.8057 9.04763 16.1663 9.07242C16.2052 9.07421 16.2433 9.08512 16.2772 9.10416L16.3357 9.14482C16.399 9.20037 16.4497 9.2688 16.4849 9.34557C16.4908 9.35806 16.497 9.37056 16.5025 9.38444C16.5083 9.39833 16.5186 9.42392 16.5259 9.44514C16.5354 9.47331 16.5442 9.50326 16.5519 9.53401C16.5559 9.54908 16.5602 9.56297 16.5636 9.57725C16.5727 9.62069 16.5797 9.66393 16.5854 9.71253C16.5854 9.72324 16.5888 9.73237 16.5896 9.74367C16.5965 9.80794 16.5997 9.87261 16.5997 9.93747C16.5247 10.1624 16.4069 10.3707 16.253 10.551V10.5544C16.182 10.6498 16.107 10.7468 16.0342 10.8408C15.5837 11.3865 15.2005 11.9843 14.8928 12.6215ZM17.9607 9.49533C18.457 10.1527 18.4534 11.4535 18.3074 12.6201C18.0005 11.9845 17.6187 11.3881 17.17 10.8434L17.1397 10.8041C17.188 10.7313 17.2305 10.6597 17.2696 10.5873C17.2761 10.5766 17.2809 10.5657 17.2868 10.555C17.316 10.5006 17.342 10.4465 17.3644 10.3929C17.3727 10.3729 17.3809 10.353 17.3884 10.3334C17.4053 10.2876 17.4197 10.241 17.4316 10.1936C17.4364 10.1735 17.4429 10.1537 17.4467 10.1333C17.4596 10.069 17.4666 10.0037 17.4671 9.93826C17.4671 9.79624 17.4556 9.65461 17.4324 9.51437C17.4255 9.47113 17.4126 9.43384 17.4035 9.39278C17.3862 9.30827 17.3636 9.22516 17.3358 9.14363C17.3307 9.12876 17.3289 9.1115 17.3233 9.09722C17.5792 9.14165 17.8077 9.28368 17.9607 9.49374V9.49533ZM22.2594 8.72153C22.1124 7.55418 22.109 6.25155 22.6059 5.59557C22.8235 5.30676 23.1722 5.14767 23.5329 5.17247C23.588 5.17406 23.641 5.1931 23.6846 5.22682L23.688 5.2294C23.6916 5.23237 23.6931 5.23674 23.6967 5.23971C23.7626 5.29644 23.8153 5.36666 23.8514 5.44561C23.8574 5.45811 23.8635 5.4706 23.8691 5.48449C23.8748 5.49837 23.8852 5.52396 23.8925 5.54519C23.902 5.57335 23.9107 5.60331 23.9185 5.63405C23.9224 5.64913 23.9268 5.66301 23.9302 5.6773C23.9393 5.72074 23.9462 5.76398 23.952 5.81258C23.952 5.82349 23.9554 5.83261 23.9562 5.84372C23.9631 5.90819 23.9663 5.97285 23.9663 6.03752C23.8913 6.26246 23.7735 6.47074 23.6195 6.65104V6.65461C23.5485 6.74983 23.4736 6.84702 23.4008 6.94105C22.9503 7.48654 22.5672 8.08439 22.2594 8.72153ZM25.3272 5.59557C25.8235 6.25294 25.82 7.55358 25.674 8.72014C25.3671 8.08459 24.9853 7.48812 24.5366 6.94363L24.5062 6.90415C24.5546 6.83135 24.5971 6.75975 24.6362 6.68754C24.6427 6.67663 24.6475 6.66572 24.6534 6.65501C24.6826 6.60086 24.7086 6.54671 24.731 6.49295C24.7393 6.47292 24.7474 6.45308 24.755 6.43344C24.7718 6.38762 24.7863 6.34101 24.7982 6.2936C24.803 6.27357 24.8095 6.25373 24.8133 6.2333C24.8262 6.16903 24.8331 6.10377 24.8337 6.03831C24.8337 5.89629 24.8222 5.75466 24.799 5.61461C24.7921 5.57117 24.7792 5.53388 24.77 5.49282C24.7528 5.40832 24.7302 5.32521 24.7024 5.24368C24.6972 5.2288 24.6955 5.21155 24.6899 5.19726C24.9458 5.2417 25.1743 5.38392 25.3272 5.59379V5.59557Z"/>
</mask>
<path d="M26.5878 1.8672C26.8273 1.8553 27.0115 1.65158 26.9994 1.41216C26.9875 1.17294 26.7838 0.988463 26.5446 1.00056C25.1049 1.10887 23.6739 1.31139 22.2606 1.60715C22.2312 1.61012 22.202 1.61627 22.1739 1.6254C18.5808 2.33195 15.1146 3.57607 11.8924 5.31608C11.8836 5.32124 11.8747 5.32461 11.8664 5.33036C11.3389 5.62414 10.8147 5.93695 10.2977 6.27019C7.15311 8.30378 4.6345 12.3376 2.80679 18.2599C1.97962 20.958 1.37621 23.7199 1.00289 26.5172C0.989599 26.6314 1.02253 26.7463 1.09394 26.8364C1.16555 26.9264 1.26989 26.9843 1.38414 26.9974C1.40041 26.999 1.41687 27 1.43314 27C1.65312 26.9996 1.83799 26.8346 1.86299 26.616C1.87429 26.5172 2.64811 20.0538 5.19964 14.3309L8.81141 17.0409C8.50792 17.1695 8.2441 17.3764 8.04653 17.6402C6.79982 19.2929 7.82992 23.0667 7.94953 23.49C8.00269 23.6759 8.17269 23.804 8.36589 23.8042C8.38632 23.8042 8.40656 23.8028 8.42659 23.8003C8.64023 23.7703 8.79931 23.5878 8.79971 23.3722C8.79971 21.9626 9.49299 20.9827 10.0998 20.1921C10.7064 20.9824 11.3996 21.9617 11.3996 23.3722C11.3994 23.5884 11.5587 23.7715 11.7728 23.8016C11.793 23.8042 11.8132 23.8054 11.8335 23.8054C12.0269 23.8054 12.1967 23.6773 12.2498 23.4914C12.3708 23.0667 13.3995 19.2929 12.1528 17.6414C11.7702 17.1367 11.166 16.8497 10.533 16.8723C10.3967 16.8733 10.2618 16.9003 10.1357 16.9521L5.57097 13.5288C6.85894 10.8594 8.55493 8.43152 10.7683 6.99897C11.2017 6.71829 11.6399 6.45268 12.083 6.20255L15.255 8.3982C14.9749 8.52852 14.7315 8.72629 14.5465 8.97364C13.2998 10.6264 14.3299 14.4002 14.4495 14.8235C14.5026 15.0095 14.6726 15.1377 14.8658 15.1377C14.8863 15.1377 14.9065 15.1365 14.9265 15.1339C15.1402 15.1038 15.2992 14.9213 15.2996 14.7056C15.2996 13.2961 15.9929 12.3164 16.5997 11.5255C17.2063 12.3158 17.8996 13.2953 17.8996 14.7056C17.8994 14.9219 18.0587 15.1051 18.2727 15.1351C18.2929 15.1377 18.3132 15.1391 18.3334 15.1391C18.5268 15.1389 18.6966 15.0107 18.7498 14.8249C18.8708 14.4002 19.8995 10.6264 18.6528 8.97503C18.2701 8.4702 17.6659 8.18337 17.0329 8.20579C16.8925 8.20777 16.7536 8.23733 16.6243 8.29247L12.935 5.73839C15.8225 4.2612 18.8971 3.18252 22.0747 2.5319L23.1363 4.34313C22.6486 4.41692 22.2094 4.67935 21.913 5.07369C20.6665 6.72642 21.6964 10.5002 21.816 10.9237C21.8692 11.1096 22.0392 11.2377 22.2324 11.2377C22.2528 11.2377 22.2731 11.2365 22.2931 11.234C22.5067 11.204 22.6658 11.0215 22.6662 10.8057C22.6662 9.39615 23.3595 8.41645 23.9663 7.62559C24.5729 8.41605 25.2661 9.39535 25.2661 10.8057C25.2661 11.0219 25.4252 11.2052 25.6393 11.2351C25.6595 11.2377 25.6797 11.2391 25.7 11.2391C25.8934 11.2389 26.0632 11.1108 26.1163 10.9249C26.2373 10.5002 27.266 6.72642 26.0193 5.07507C25.6367 4.57025 25.0325 4.28342 24.3995 4.30583C24.3118 4.30702 24.2244 4.31912 24.1397 4.34194L22.9739 2.3512C24.168 2.11892 25.3747 1.95725 26.5878 1.8672ZM8.39287 21.2878C8.24588 20.1205 8.24251 18.8178 8.73941 18.1619C8.95701 17.8733 9.30573 17.7142 9.66636 17.739C9.71277 17.7413 9.7578 17.7562 9.79628 17.7822L9.83139 17.8088C9.89685 17.8649 9.94922 17.9347 9.98493 18.0133C9.99088 18.0258 9.99703 18.0383 10.0026 18.0522C10.0083 18.0661 10.0186 18.0917 10.026 18.1129C10.0355 18.141 10.0442 18.171 10.052 18.1996C10.0559 18.2148 10.0603 18.2285 10.0637 18.243C10.0728 18.2862 10.0797 18.3295 10.0855 18.3781C10.0855 18.389 10.0889 18.3981 10.0897 18.4092C10.0966 18.4737 10.0998 18.5384 10.0998 18.603C10.0248 18.828 9.90697 19.0362 9.75304 19.2166V19.2201C9.68203 19.3153 9.60705 19.4125 9.53643 19.5066C9.08515 20.0522 8.70132 20.6505 8.39287 21.2878ZM11.4607 18.1619C11.957 18.8192 11.9535 20.1201 11.8075 21.2866C11.5006 20.6511 11.1188 20.0546 10.6701 19.5099L10.6397 19.4705C10.6881 19.3977 10.7306 19.3262 10.7696 19.2538C10.7762 19.2429 10.781 19.2322 10.7869 19.2213C10.8161 19.1672 10.842 19.113 10.8645 19.0593C10.8728 19.0394 10.8809 19.0194 10.8885 18.9999C10.9053 18.9541 10.9198 18.9073 10.9317 18.8599C10.9365 18.8401 10.943 18.82 10.9468 18.7998C10.9597 18.7355 10.9666 18.6703 10.9672 18.6048C10.9672 18.4628 10.9557 18.321 10.9325 18.1809C10.9256 18.1377 10.9127 18.1004 10.9035 18.0591C10.8863 17.9748 10.8637 17.8915 10.8359 17.81C10.8307 17.7953 10.829 17.778 10.8234 17.7636C11.0793 17.808 11.3078 17.9502 11.4607 18.1601V18.1619ZM14.8928 12.6215C14.7458 11.4539 14.7424 10.1515 15.2393 9.49533C15.4569 9.20671 15.8057 9.04763 16.1663 9.07242C16.2052 9.07421 16.2433 9.08512 16.2772 9.10416L16.3357 9.14482C16.399 9.20037 16.4497 9.2688 16.4849 9.34557C16.4908 9.35806 16.497 9.37056 16.5025 9.38444C16.5083 9.39833 16.5186 9.42392 16.5259 9.44514C16.5354 9.47331 16.5442 9.50326 16.5519 9.53401C16.5559 9.54908 16.5602 9.56297 16.5636 9.57725C16.5727 9.62069 16.5797 9.66393 16.5854 9.71253C16.5854 9.72324 16.5888 9.73237 16.5896 9.74367C16.5965 9.80794 16.5997 9.87261 16.5997 9.93747C16.5247 10.1624 16.4069 10.3707 16.253 10.551V10.5544C16.182 10.6498 16.107 10.7468 16.0342 10.8408C15.5837 11.3865 15.2005 11.9843 14.8928 12.6215ZM17.9607 9.49533C18.457 10.1527 18.4534 11.4535 18.3074 12.6201C18.0005 11.9845 17.6187 11.3881 17.17 10.8434L17.1397 10.8041C17.188 10.7313 17.2305 10.6597 17.2696 10.5873C17.2761 10.5766 17.2809 10.5657 17.2868 10.555C17.316 10.5006 17.342 10.4465 17.3644 10.3929C17.3727 10.3729 17.3809 10.353 17.3884 10.3334C17.4053 10.2876 17.4197 10.241 17.4316 10.1936C17.4364 10.1735 17.4429 10.1537 17.4467 10.1333C17.4596 10.069 17.4666 10.0037 17.4671 9.93826C17.4671 9.79624 17.4556 9.65461 17.4324 9.51437C17.4255 9.47113 17.4126 9.43384 17.4035 9.39278C17.3862 9.30827 17.3636 9.22516 17.3358 9.14363C17.3307 9.12876 17.3289 9.1115 17.3233 9.09722C17.5792 9.14165 17.8077 9.28368 17.9607 9.49374V9.49533ZM22.2594 8.72153C22.1124 7.55418 22.109 6.25155 22.6059 5.59557C22.8235 5.30676 23.1722 5.14767 23.5329 5.17247C23.588 5.17406 23.641 5.1931 23.6846 5.22682L23.688 5.2294C23.6916 5.23237 23.6931 5.23674 23.6967 5.23971C23.7626 5.29644 23.8153 5.36666 23.8514 5.44561C23.8574 5.45811 23.8635 5.4706 23.8691 5.48449C23.8748 5.49837 23.8852 5.52396 23.8925 5.54519C23.902 5.57335 23.9107 5.60331 23.9185 5.63405C23.9224 5.64913 23.9268 5.66301 23.9302 5.6773C23.9393 5.72074 23.9462 5.76398 23.952 5.81258C23.952 5.82349 23.9554 5.83261 23.9562 5.84372C23.9631 5.90819 23.9663 5.97285 23.9663 6.03752C23.8913 6.26246 23.7735 6.47074 23.6195 6.65104V6.65461C23.5485 6.74983 23.4736 6.84702 23.4008 6.94105C22.9503 7.48654 22.5672 8.08439 22.2594 8.72153ZM25.3272 5.59557C25.8235 6.25294 25.82 7.55358 25.674 8.72014C25.3671 8.08459 24.9853 7.48812 24.5366 6.94363L24.5062 6.90415C24.5546 6.83135 24.5971 6.75975 24.6362 6.68754C24.6427 6.67663 24.6475 6.66572 24.6534 6.65501C24.6826 6.60086 24.7086 6.54671 24.731 6.49295C24.7393 6.47292 24.7474 6.45308 24.755 6.43344C24.7718 6.38762 24.7863 6.34101 24.7982 6.2936C24.803 6.27357 24.8095 6.25373 24.8133 6.2333C24.8262 6.16903 24.8331 6.10377 24.8337 6.03831C24.8337 5.89629 24.8222 5.75466 24.799 5.61461C24.7921 5.57117 24.7792 5.53388 24.77 5.49282C24.7528 5.40832 24.7302 5.32521 24.7024 5.24368C24.6972 5.2288 24.6955 5.21155 24.6899 5.19726C24.9458 5.2417 25.1743 5.38392 25.3272 5.59379V5.59557Z" fill="#C4C4C4"/>
<path d="M26.5878 1.8672C26.8273 1.8553 27.0115 1.65158 26.9994 1.41216C26.9875 1.17294 26.7838 0.988463 26.5446 1.00056C25.1049 1.10887 23.6739 1.31139 22.2606 1.60715C22.2312 1.61012 22.202 1.61627 22.1739 1.6254C18.5808 2.33195 15.1146 3.57607 11.8924 5.31608C11.8836 5.32124 11.8747 5.32461 11.8664 5.33036C11.3389 5.62414 10.8147 5.93695 10.2977 6.27019C7.15311 8.30378 4.6345 12.3376 2.80679 18.2599C1.97962 20.958 1.37621 23.7199 1.00289 26.5172C0.989599 26.6314 1.02253 26.7463 1.09394 26.8364C1.16555 26.9264 1.26989 26.9843 1.38414 26.9974C1.40041 26.999 1.41687 27 1.43314 27C1.65312 26.9996 1.83799 26.8346 1.86299 26.616C1.87429 26.5172 2.64811 20.0538 5.19964 14.3309L8.81141 17.0409C8.50792 17.1695 8.2441 17.3764 8.04653 17.6402C6.79982 19.2929 7.82992 23.0667 7.94953 23.49C8.00269 23.6759 8.17269 23.804 8.36589 23.8042C8.38632 23.8042 8.40656 23.8028 8.42659 23.8003C8.64023 23.7703 8.79931 23.5878 8.79971 23.3722C8.79971 21.9626 9.49299 20.9827 10.0998 20.1921C10.7064 20.9824 11.3996 21.9617 11.3996 23.3722C11.3994 23.5884 11.5587 23.7715 11.7728 23.8016C11.793 23.8042 11.8132 23.8054 11.8335 23.8054C12.0269 23.8054 12.1967 23.6773 12.2498 23.4914C12.3708 23.0667 13.3995 19.2929 12.1528 17.6414C11.7702 17.1367 11.166 16.8497 10.533 16.8723C10.3967 16.8733 10.2618 16.9003 10.1357 16.9521L5.57097 13.5288C6.85894 10.8594 8.55493 8.43152 10.7683 6.99897C11.2017 6.71829 11.6399 6.45268 12.083 6.20255L15.255 8.3982C14.9749 8.52852 14.7315 8.72629 14.5465 8.97364C13.2998 10.6264 14.3299 14.4002 14.4495 14.8235C14.5026 15.0095 14.6726 15.1377 14.8658 15.1377C14.8863 15.1377 14.9065 15.1365 14.9265 15.1339C15.1402 15.1038 15.2992 14.9213 15.2996 14.7056C15.2996 13.2961 15.9929 12.3164 16.5997 11.5255C17.2063 12.3158 17.8996 13.2953 17.8996 14.7056C17.8994 14.9219 18.0587 15.1051 18.2727 15.1351C18.2929 15.1377 18.3132 15.1391 18.3334 15.1391C18.5268 15.1389 18.6966 15.0107 18.7498 14.8249C18.8708 14.4002 19.8995 10.6264 18.6528 8.97503C18.2701 8.4702 17.6659 8.18337 17.0329 8.20579C16.8925 8.20777 16.7536 8.23733 16.6243 8.29247L12.935 5.73839C15.8225 4.2612 18.8971 3.18252 22.0747 2.5319L23.1363 4.34313C22.6486 4.41692 22.2094 4.67935 21.913 5.07369C20.6665 6.72642 21.6964 10.5002 21.816 10.9237C21.8692 11.1096 22.0392 11.2377 22.2324 11.2377C22.2528 11.2377 22.2731 11.2365 22.2931 11.234C22.5067 11.204 22.6658 11.0215 22.6662 10.8057C22.6662 9.39615 23.3595 8.41645 23.9663 7.62559C24.5729 8.41605 25.2661 9.39535 25.2661 10.8057C25.2661 11.0219 25.4252 11.2052 25.6393 11.2351C25.6595 11.2377 25.6797 11.2391 25.7 11.2391C25.8934 11.2389 26.0632 11.1108 26.1163 10.9249C26.2373 10.5002 27.266 6.72642 26.0193 5.07507C25.6367 4.57025 25.0325 4.28342 24.3995 4.30583C24.3118 4.30702 24.2244 4.31912 24.1397 4.34194L22.9739 2.3512C24.168 2.11892 25.3747 1.95725 26.5878 1.8672ZM8.39287 21.2878C8.24588 20.1205 8.24251 18.8178 8.73941 18.1619C8.95701 17.8733 9.30573 17.7142 9.66636 17.739C9.71277 17.7413 9.7578 17.7562 9.79628 17.7822L9.83139 17.8088C9.89685 17.8649 9.94922 17.9347 9.98493 18.0133C9.99088 18.0258 9.99703 18.0383 10.0026 18.0522C10.0083 18.0661 10.0186 18.0917 10.026 18.1129C10.0355 18.141 10.0442 18.171 10.052 18.1996C10.0559 18.2148 10.0603 18.2285 10.0637 18.243C10.0728 18.2862 10.0797 18.3295 10.0855 18.3781C10.0855 18.389 10.0889 18.3981 10.0897 18.4092C10.0966 18.4737 10.0998 18.5384 10.0998 18.603C10.0248 18.828 9.90697 19.0362 9.75304 19.2166V19.2201C9.68203 19.3153 9.60705 19.4125 9.53643 19.5066C9.08515 20.0522 8.70132 20.6505 8.39287 21.2878ZM11.4607 18.1619C11.957 18.8192 11.9535 20.1201 11.8075 21.2866C11.5006 20.6511 11.1188 20.0546 10.6701 19.5099L10.6397 19.4705C10.6881 19.3977 10.7306 19.3262 10.7696 19.2538C10.7762 19.2429 10.781 19.2322 10.7869 19.2213C10.8161 19.1672 10.842 19.113 10.8645 19.0593C10.8728 19.0394 10.8809 19.0194 10.8885 18.9999C10.9053 18.9541 10.9198 18.9073 10.9317 18.8599C10.9365 18.8401 10.943 18.82 10.9468 18.7998C10.9597 18.7355 10.9666 18.6703 10.9672 18.6048C10.9672 18.4628 10.9557 18.321 10.9325 18.1809C10.9256 18.1377 10.9127 18.1004 10.9035 18.0591C10.8863 17.9748 10.8637 17.8915 10.8359 17.81C10.8307 17.7953 10.829 17.778 10.8234 17.7636C11.0793 17.808 11.3078 17.9502 11.4607 18.1601V18.1619ZM14.8928 12.6215C14.7458 11.4539 14.7424 10.1515 15.2393 9.49533C15.4569 9.20671 15.8057 9.04763 16.1663 9.07242C16.2052 9.07421 16.2433 9.08512 16.2772 9.10416L16.3357 9.14482C16.399 9.20037 16.4497 9.2688 16.4849 9.34557C16.4908 9.35806 16.497 9.37056 16.5025 9.38444C16.5083 9.39833 16.5186 9.42392 16.5259 9.44514C16.5354 9.47331 16.5442 9.50326 16.5519 9.53401C16.5559 9.54908 16.5602 9.56297 16.5636 9.57725C16.5727 9.62069 16.5797 9.66393 16.5854 9.71253C16.5854 9.72324 16.5888 9.73237 16.5896 9.74367C16.5965 9.80794 16.5997 9.87261 16.5997 9.93747C16.5247 10.1624 16.4069 10.3707 16.253 10.551V10.5544C16.182 10.6498 16.107 10.7468 16.0342 10.8408C15.5837 11.3865 15.2005 11.9843 14.8928 12.6215ZM17.9607 9.49533C18.457 10.1527 18.4534 11.4535 18.3074 12.6201C18.0005 11.9845 17.6187 11.3881 17.17 10.8434L17.1397 10.8041C17.188 10.7313 17.2305 10.6597 17.2696 10.5873C17.2761 10.5766 17.2809 10.5657 17.2868 10.555C17.316 10.5006 17.342 10.4465 17.3644 10.3929C17.3727 10.3729 17.3809 10.353 17.3884 10.3334C17.4053 10.2876 17.4197 10.241 17.4316 10.1936C17.4364 10.1735 17.4429 10.1537 17.4467 10.1333C17.4596 10.069 17.4666 10.0037 17.4671 9.93826C17.4671 9.79624 17.4556 9.65461 17.4324 9.51437C17.4255 9.47113 17.4126 9.43384 17.4035 9.39278C17.3862 9.30827 17.3636 9.22516 17.3358 9.14363C17.3307 9.12876 17.3289 9.1115 17.3233 9.09722C17.5792 9.14165 17.8077 9.28368 17.9607 9.49374V9.49533ZM22.2594 8.72153C22.1124 7.55418 22.109 6.25155 22.6059 5.59557C22.8235 5.30676 23.1722 5.14767 23.5329 5.17247C23.588 5.17406 23.641 5.1931 23.6846 5.22682L23.688 5.2294C23.6916 5.23237 23.6931 5.23674 23.6967 5.23971C23.7626 5.29644 23.8153 5.36666 23.8514 5.44561C23.8574 5.45811 23.8635 5.4706 23.8691 5.48449C23.8748 5.49837 23.8852 5.52396 23.8925 5.54519C23.902 5.57335 23.9107 5.60331 23.9185 5.63405C23.9224 5.64913 23.9268 5.66301 23.9302 5.6773C23.9393 5.72074 23.9462 5.76398 23.952 5.81258C23.952 5.82349 23.9554 5.83261 23.9562 5.84372C23.9631 5.90819 23.9663 5.97285 23.9663 6.03752C23.8913 6.26246 23.7735 6.47074 23.6195 6.65104V6.65461C23.5485 6.74983 23.4736 6.84702 23.4008 6.94105C22.9503 7.48654 22.5672 8.08439 22.2594 8.72153ZM25.3272 5.59557C25.8235 6.25294 25.82 7.55358 25.674 8.72014C25.3671 8.08459 24.9853 7.48812 24.5366 6.94363L24.5062 6.90415C24.5546 6.83135 24.5971 6.75975 24.6362 6.68754C24.6427 6.67663 24.6475 6.66572 24.6534 6.65501C24.6826 6.60086 24.7086 6.54671 24.731 6.49295C24.7393 6.47292 24.7474 6.45308 24.755 6.43344C24.7718 6.38762 24.7863 6.34101 24.7982 6.2936C24.803 6.27357 24.8095 6.25373 24.8133 6.2333C24.8262 6.16903 24.8331 6.10377 24.8337 6.03831C24.8337 5.89629 24.8222 5.75466 24.799 5.61461C24.7921 5.57117 24.7792 5.53388 24.77 5.49282C24.7528 5.40832 24.7302 5.32521 24.7024 5.24368C24.6972 5.2288 24.6955 5.21155 24.6899 5.19726C24.9458 5.2417 25.1743 5.38392 25.3272 5.59379V5.59557Z" stroke="#C4C4C4" stroke-width="0.6" mask="url(#path-1-outside-1)"/>
</svg>
