<svg width="16" height="12" viewBox="0 0 16 12" fill="none" xmlns="http://www.w3.org/2000/svg">
<path d="M15.0874 5.25015C15.5016 5.25015 15.8306 5.58587 15.8223 6C15.8139 6.41413 15.4713 6.74985 15.0571 6.74985L15.0874 5.25015ZM0.387646 6.53022C0.100669 6.23739 0.110261 5.76261 0.409071 5.46978L5.27846 0.69778C5.57727 0.404947 6.05214 0.404947 6.33912 0.69778C6.62609 0.990614 6.6165 1.46539 6.31769 1.75822L1.98935 6L6.14629 10.2418C6.43326 10.5346 6.42367 11.0094 6.12486 11.3022C5.82605 11.5951 5.35118 11.5951 5.0642 11.3022L0.387646 6.53022ZM15.0571 6.74985L0.913538 6.74985L0.943838 5.25015L15.0874 5.25015L15.0571 6.74985Z" fill="#A2A2A2"/>
</svg>
