<svg width="16" height="12" viewBox="0 0 16 12" fill="none" xmlns="http://www.w3.org/2000/svg">
<path d="M0.912584 5.25015C0.498371 5.25015 0.169367 5.58587 0.177734 6C0.186102 6.41413 0.528671 6.74985 0.942884 6.74985L0.912584 5.25015ZM15.6124 6.53022C15.8993 6.23739 15.8897 5.76261 15.5909 5.46978L10.7215 0.69778C10.4227 0.404947 9.94786 0.404947 9.66088 0.69778C9.37391 0.990614 9.3835 1.46539 9.68231 1.75822L14.0107 6L9.85371 10.2418C9.56674 10.5346 9.57633 11.0094 9.87514 11.3022C10.1739 11.5951 10.6488 11.5951 10.9358 11.3022L15.6124 6.53022ZM0.942884 6.74985L15.0865 6.74985L15.0562 5.25015L0.912584 5.25015L0.942884 6.74985Z" fill="#A2A2A2"/>
</svg>
