<svg width="13" height="13" viewBox="0 0 13 13" fill="none" xmlns="http://www.w3.org/2000/svg">
<path d="M8.0282 2.18335L0.875419 9.33665C0.839433 9.37274 0.813449 9.41831 0.801076 9.46729L0.00825802 12.6495C-0.0154574 12.7453 0.0126918 12.8472 0.0826008 12.9171C0.135497 12.97 0.207571 12.9992 0.281295 12.9992C0.303876 12.9992 0.326973 12.9965 0.349451 12.9908L3.53165 12.1979C3.58125 12.1855 3.62631 12.1596 3.66229 12.1236L10.8157 4.97084L8.0282 2.18335Z" fill="#FFC700"/>
<path d="M12.5879 1.20808L11.7917 0.411862C11.2595 -0.120292 10.3321 -0.119777 9.80052 0.411862L8.8252 1.38719L11.6126 4.17457L12.5879 3.19925C12.8537 2.93354 13.0001 2.57987 13.0001 2.20372C13.0001 1.82757 12.8537 1.4739 12.5879 1.20808Z" fill="#FFC700"/>
</svg>
