<svg width="23" height="29" viewBox="0 0 23 29" fill="none" xmlns="http://www.w3.org/2000/svg">
<path d="M21.5254 29C20.8997 29 20.3926 28.4928 20.3926 27.8672C20.3926 23.4323 16.7845 19.8242 12.3496 19.8242H10.6504C6.21549 19.8242 2.60742 23.4323 2.60742 27.8672C2.60742 28.4928 2.10026 29 1.47461 29C0.848957 29 0.341797 28.4928 0.341797 27.8672C0.341797 22.183 4.96622 17.5586 10.6504 17.5586H12.3496C18.0338 17.5586 22.6582 22.183 22.6582 27.8672C22.6582 28.4928 22.151 29 21.5254 29Z" fill="black"/>
<path d="M11.3867 15.293C7.17045 15.293 3.74023 11.8628 3.74023 7.64648C3.74023 3.43021 7.17045 0 11.3867 0C15.603 0 19.0332 3.43021 19.0332 7.64648C19.0332 11.8628 15.603 15.293 11.3867 15.293ZM11.3867 2.26562C8.41971 2.26562 6.00586 4.67948 6.00586 7.64648C6.00586 10.6135 8.41971 13.0273 11.3867 13.0273C14.3537 13.0273 16.7676 10.6135 16.7676 7.64648C16.7676 4.67948 14.3537 2.26562 11.3867 2.26562Z" fill="black"/>
</svg>
