<svg width="27" height="33" viewBox="0 0 27 33" fill="none" xmlns="http://www.w3.org/2000/svg">
<path d="M25.8448 1.93359H25.9138C26.4478 1.93359 26.8806 1.5008 26.8806 0.966797C26.8806 0.432793 26.4478 0 25.9138 0H3.64925C1.68871 0 0.09375 1.59496 0.09375 3.55575V29.4445C0.09375 31.405 1.68871 33 3.64925 33H23.3248C25.2854 33 26.8806 31.405 26.8806 29.4445V8.7334C26.8806 7.75678 26.4845 6.87106 25.845 6.22778V1.93359H25.8448ZM3.64925 1.93359H23.9112V5.227C23.7204 5.19527 23.5245 5.1779 23.3246 5.1779H3.64925C2.75496 5.1779 2.02734 4.45029 2.02734 3.55575C2.02734 2.66121 2.75496 1.93359 3.64925 1.93359ZM24.947 29.4445C24.947 30.3388 24.2194 31.0664 23.3248 31.0664H3.64925C2.75496 31.0664 2.02734 30.3388 2.02734 29.4445V6.71949C2.51402 6.97 3.06539 7.1115 3.64925 7.1115H23.3248C23.6735 7.1115 23.9965 7.22253 24.2614 7.41035C24.2846 7.42948 24.3085 7.44761 24.3334 7.46448C24.707 7.76182 24.947 8.22004 24.947 8.7334V29.4445Z" fill="white"/>
<path d="M17.1112 12.3229C17.0216 12.3229 16.9315 12.3256 16.8413 12.3309C15.9785 11.4094 14.7627 10.8732 13.487 10.8732C12.2113 10.8732 10.9955 11.4092 10.1329 12.3309C10.0425 12.3256 9.95239 12.3229 9.86276 12.3229C7.33096 12.3229 5.27148 14.3826 5.27148 16.9141C5.27148 19.1141 6.82692 20.9576 8.89596 21.4029V26.3376C8.89596 26.8716 9.32876 27.3044 9.86276 27.3044H17.1115C17.6452 27.3044 18.0783 26.8716 18.0783 26.3376V21.4029C20.1471 20.9578 21.7027 19.1141 21.7027 16.9141C21.7027 14.3826 19.643 12.3229 17.1112 12.3229ZM10.8296 25.3708V24.1978H16.1447V25.3708H10.8296ZM17.1112 19.5718C16.5775 19.5718 16.1444 20.0046 16.1444 20.5386V22.2643H10.8293V20.5386C10.8293 20.0046 10.3965 19.5718 9.86251 19.5718C8.39721 19.5718 7.20508 18.3794 7.20508 16.9141C7.20508 15.4488 8.39721 14.2567 9.86251 14.2567C10.0272 14.2567 10.1951 14.2726 10.3615 14.304C10.7306 14.3738 11.1073 14.2232 11.3266 13.9178C11.8258 13.2222 12.6335 12.8068 13.487 12.8068C14.3405 12.8068 15.1482 13.2222 15.6474 13.9178C15.8667 14.2235 16.2434 14.374 16.6127 14.304C16.7789 14.2726 16.9468 14.2567 17.1115 14.2567C18.5768 14.2567 19.7692 15.4488 19.7692 16.9141C19.7692 18.3794 18.5768 19.5718 17.1112 19.5718Z" fill="white"/>
</svg>
