<svg width="28" height="25" viewBox="0 0 28 25" fill="none" xmlns="http://www.w3.org/2000/svg">
<path d="M26.2032 8.36883C25.5514 7.74089 24.721 7.34807 23.8227 7.23236L27.1092 4.06602L25.949 2.94825L24.8326 4.02386C24.7123 3.1586 24.3046 2.35894 23.6529 1.73121L21.8561 0L19.758 2.02139C18.1369 3.58319 18.1369 6.12429 19.758 7.68604L20.3947 8.29943L18.7558 9.87836C18.6386 9.0386 18.2466 8.22793 17.5781 7.58387L15.7812 5.85271L13.6831 7.87405C12.0621 9.4358 12.0621 11.9769 13.6831 13.5387L14.3198 14.1521L12.6828 15.7292C12.5625 14.864 12.1548 14.0643 11.5032 13.4366L9.70632 11.7054L7.60824 13.7267C5.98714 15.2885 5.98714 17.8297 7.60824 19.3914L8.24487 20.0048L5.54642 22.6045C4.43588 23.6744 2.62904 23.6744 1.51855 22.6044L1.16026 22.2593L0 23.3772L0.358294 23.7223C1.23338 24.5654 2.38292 24.987 3.53241 24.987C4.68194 24.987 5.83143 24.5654 6.70657 23.7223L7.23529 23.2129L7.87241 23.8267C8.65769 24.5833 9.70178 25 10.8123 25C11.9229 25 12.967 24.5834 13.7522 23.8267L15.8502 21.8054L14.0534 20.0743C13.4015 19.4463 12.5712 19.0534 11.6728 18.9377L13.3102 17.3602L13.9473 17.974C14.7326 18.7306 15.7766 19.1473 16.8872 19.1473C17.9977 19.1473 19.0418 18.7306 19.8271 17.974L21.9251 15.9527L20.1282 14.2215C19.4764 13.5936 18.6461 13.2007 17.7476 13.085L19.385 11.5075L20.0221 12.1213C20.8074 12.8778 21.8515 13.2945 22.962 13.2945C24.0726 13.2945 25.1166 12.8779 25.9019 12.1213L28 10.1L26.2032 8.36883ZM21.5549 7.18162L20.9182 6.56822C19.9369 5.62287 19.9369 4.08451 20.9182 3.1391L21.8561 2.23558L22.4927 2.84898C22.9681 3.30693 23.2299 3.91584 23.2299 4.56354C23.2299 5.21108 22.9682 5.81999 22.493 6.27794L21.5549 7.18162ZM14.8433 12.4209C13.862 11.4755 13.862 9.93717 14.8433 8.99181L15.7811 8.08824L16.4179 8.70164C17.399 9.64689 17.3991 11.1849 16.4184 12.1303L15.48 13.0343L14.8433 12.4209ZM8.76839 18.2737C7.78709 17.3283 7.78709 15.7899 8.76839 14.8445L9.70627 13.941L10.3429 14.5544C10.8183 15.0124 11.0801 15.6213 11.0801 16.269C11.0801 16.9163 10.8186 17.5248 10.3438 17.9827L9.40502 18.8871L8.76839 18.2737ZM13.5298 21.8054L12.5919 22.709C12.1165 23.1669 11.4845 23.4192 10.8123 23.4192C10.14 23.4192 9.50795 23.167 9.03256 22.709L8.39588 22.0956L9.33375 21.192C9.80914 20.7341 10.4412 20.4818 11.1135 20.4818C11.7858 20.4818 12.4177 20.734 12.8931 21.192L13.5298 21.8054ZM19.6048 15.9527L18.6669 16.8563C18.1916 17.3142 17.5595 17.5665 16.8872 17.5665C16.215 17.5665 15.5829 17.3143 15.1076 16.8563L14.4709 16.2429L15.4087 15.3393C15.8841 14.8814 16.5162 14.6291 17.1884 14.6291C17.8607 14.6291 18.4928 14.8813 18.9681 15.3393L19.6048 15.9527ZM24.7418 11.0036C24.2664 11.4616 23.6343 11.7138 22.9621 11.7138C22.2898 11.7138 21.6577 11.4616 21.1824 11.0036L20.5457 10.3902L21.4836 9.4866C21.9589 9.02865 22.591 8.77641 23.2633 8.77641C23.9355 8.77641 24.5676 9.02859 25.0429 9.4866L25.6796 10.1L24.7418 11.0036Z" fill="#C4C4C4"/>
</svg>
