<svg width="43" height="31" viewBox="0 0 43 31" fill="none" xmlns="http://www.w3.org/2000/svg">
<path d="M4.56891 24.9856C5.80627 25.4195 7.50269 25.3202 9.61098 24.6903C11.0668 24.2555 12.6983 23.5587 14.1756 22.7464C15.4016 24.27 17.0728 25.2418 18.9424 25.5043C21.0459 25.7996 23.1619 25.1705 24.9007 23.733C25.1872 23.4961 25.2561 23.0847 25.0624 22.7675C25.0526 22.7515 25.0424 22.7362 25.0326 22.7203C26.4524 22.5266 27.8269 21.9164 29.0103 20.9372C29.2967 20.7003 29.3655 20.289 29.1718 19.9719C29.1621 19.9559 29.1518 19.9404 29.142 19.9246C30.5611 19.7308 31.9356 19.1206 33.1196 18.1418C33.4063 17.9049 33.4751 17.4932 33.281 17.1759C33.2713 17.16 33.2612 17.1448 33.2514 17.129C34.6706 16.9354 36.0443 16.3253 37.2272 15.3467C37.5136 15.1097 37.5824 14.6985 37.3887 14.3813C36.7765 13.3784 35.9993 12.5559 35.1149 11.9384C36.8398 10.5669 37.9579 8.51062 38.237 6.13222C38.2804 5.76308 38.0459 5.41819 37.6868 5.32273C35.9392 4.85816 34.1852 4.90768 32.6074 5.43586C32.099 5.60601 31.6097 5.82772 31.1439 6.09608C30.8954 5.0446 30.4163 4.01753 29.7082 3.07806C29.5119 2.81771 29.1742 2.71856 28.8744 2.81889C28.8319 2.83311 28.7902 2.85134 28.7498 2.87367C27.4047 3.61665 26.3335 4.67167 25.6326 5.92018C25.6211 5.90478 25.6103 5.8891 25.5986 5.87368C25.4024 5.61333 25.0647 5.51418 24.7649 5.61451C24.7224 5.62872 24.6807 5.64695 24.6403 5.66929C23.295 6.41239 22.2244 7.46691 21.5245 8.71438C21.5133 8.69929 21.5027 8.68405 21.4914 8.66901C21.2952 8.4084 20.9573 8.30909 20.6574 8.40954C20.615 8.42373 20.5732 8.44196 20.5328 8.46422C19.1865 9.2076 18.1151 10.2624 17.415 11.5101C17.4038 11.495 17.3932 11.4797 17.3819 11.4647C17.1857 11.2041 16.8478 11.1048 16.5479 11.2052C16.5055 11.2194 16.4637 11.2376 16.4234 11.2599C14.5015 12.3211 13.1519 13.9958 12.6234 15.9758C12.133 17.8125 12.3886 19.7601 13.34 21.4994C10.4706 23.0565 6.88301 24.2132 5.06346 23.5751C4.67391 23.4385 4.24728 23.6436 4.11076 24.0331C3.97432 24.4224 4.17936 24.849 4.56891 24.9856ZM32.139 15.6992C30.9603 14.4858 29.4742 13.7195 27.8826 13.4886L29.6908 12.2584C31.9713 11.7459 34.2693 12.6506 35.7334 14.6005C34.6342 15.3449 33.386 15.7277 32.139 15.6992ZM31.3441 7.74124C32.8339 6.67272 34.7201 6.27686 36.6468 6.62158C36.2587 8.54395 35.1978 10.154 33.658 11.1456C32.746 10.7755 31.7673 10.5939 30.7679 10.6217C31.1612 9.70239 31.3524 8.72537 31.3441 7.74124ZM26.5532 7.48043C26.9839 6.31023 27.7985 5.28867 28.8959 4.53751C30.1697 6.61653 30.1651 9.08766 28.85 11.0223L27.0426 12.2519C27.4134 10.6862 27.2477 9.02228 26.5532 7.48043ZM31.6255 17.3955C30.5254 18.1402 29.2771 18.523 28.0307 18.4948C26.8526 17.281 25.3663 16.5145 23.774 16.2839L25.5818 15.054C27.8616 14.5419 30.1599 15.4462 31.6255 17.3955ZM22.4451 10.2763C22.8741 9.10632 23.6883 8.08466 24.7863 7.33313C26.0603 9.41236 26.0556 11.8837 24.7401 13.8184L22.9331 15.0478C23.3039 13.4823 23.1386 11.8184 22.4451 10.2763ZM27.5165 20.1911C26.4171 20.9359 25.1686 21.3188 23.9212 21.2905C22.7431 20.0767 21.257 19.3103 19.6647 19.0795L21.4727 17.8495C23.7542 17.3372 26.0525 18.2415 27.5165 20.1911ZM18.3356 13.072C18.7647 11.9019 19.5795 10.88 20.6784 10.1282C21.951 12.2083 21.9458 14.6801 20.6305 16.6144L18.8236 17.8437C19.1945 16.2781 19.0292 14.6141 18.3356 13.072ZM23.4069 22.9867C22.1122 23.8637 20.6229 24.2305 19.1502 24.0238C17.719 23.8229 16.4287 23.092 15.4535 21.9447L17.3638 20.645C19.645 20.1329 21.9431 21.0373 23.4069 22.9867ZM14.068 16.3611C14.4365 14.981 15.3146 13.7803 16.5688 12.9236C17.8417 15.0039 17.8364 17.4759 16.5206 19.4104L14.6132 20.7081C13.8799 19.3264 13.6847 17.797 14.068 16.3611Z" fill="#C4C4C4"/>
</svg>
