<svg width="16" height="12" viewBox="0 0 16 12" fill="none" xmlns="http://www.w3.org/2000/svg">
<path d="M0.913073 5.25015C0.498859 5.25015 0.169856 5.58587 0.178223 6C0.18659 6.41413 0.529159 6.74985 0.943373 6.74985L0.913073 5.25015ZM15.6128 6.53022C15.8998 6.23739 15.8902 5.76261 15.5914 5.46978L10.722 0.69778C10.4232 0.404947 9.94835 0.404947 9.66137 0.69778C9.3744 0.990614 9.38399 1.46539 9.6828 1.75822L14.0111 6L9.8542 10.2418C9.56722 10.5346 9.57682 11.0094 9.87563 11.3022C10.1744 11.5951 10.6493 11.5951 10.9363 11.3022L15.6128 6.53022ZM0.943373 6.74985L15.087 6.74985L15.0567 5.25015L0.913073 5.25015L0.943373 6.74985Z" fill="#CB7C06"/>
</svg>
