<svg width="16" height="12" viewBox="0 0 16 12" fill="none" xmlns="http://www.w3.org/2000/svg">
<path d="M15.0869 5.25015C15.5011 5.25015 15.8301 5.58587 15.8218 6C15.8134 6.41413 15.4708 6.74985 15.0566 6.74985L15.0869 5.25015ZM0.387157 6.53022C0.10018 6.23739 0.109773 5.76261 0.408583 5.46978L5.27797 0.69778C5.57678 0.404947 6.05165 0.404947 6.33863 0.69778C6.6256 0.990614 6.61601 1.46539 6.3172 1.75822L1.98886 6L6.1458 10.2418C6.43278 10.5346 6.42318 11.0094 6.12437 11.3022C5.82556 11.5951 5.35069 11.5951 5.06371 11.3022L0.387157 6.53022ZM15.0566 6.74985L0.91305 6.74985L0.94335 5.25015L15.0869 5.25015L15.0566 6.74985Z" fill="#CB7C06"/>
</svg>
