<svg width="132" height="132" viewBox="0 0 132 132" fill="none" xmlns="http://www.w3.org/2000/svg">
<path d="M64.8821 9.72148C67.8222 7.02335 72.433 7.38182 74.9209 10.502C76.8644 12.9395 80.2033 13.767 83.0602 12.5192C86.7172 10.9219 90.9618 12.7581 92.3017 16.5169C93.3485 19.4535 96.2378 21.3203 99.3451 21.0677C103.323 20.7444 106.741 23.8593 106.788 27.8496C106.824 30.9669 108.951 33.6707 111.972 34.4407C115.839 35.4264 118.061 39.4825 116.809 43.2718C115.832 46.2321 116.965 49.4799 119.572 51.1891C122.91 53.377 123.694 57.9347 121.28 61.1123C119.394 63.5948 119.412 67.0347 121.323 69.4978C123.769 72.6508 123.031 77.2162 119.716 79.4379C117.126 81.1735 116.026 84.4327 117.033 87.3829C118.323 91.1593 116.143 95.2377 112.286 96.2627C109.273 97.0634 107.174 99.7886 107.169 102.906C107.163 106.897 103.776 110.046 99.7959 109.763C96.6862 109.542 93.8161 111.438 92.7992 114.385C91.4975 118.158 87.2718 120.037 83.5988 118.477C80.7294 117.258 77.3991 118.12 75.4804 120.577C73.0244 123.722 68.4175 124.127 65.45 121.459C63.1318 119.375 59.7022 119.108 57.0896 120.809C53.7455 122.987 49.2565 121.874 47.3162 118.387C45.8004 115.663 42.6432 114.297 39.6199 115.058C35.7499 116.031 31.8654 113.522 31.1625 109.593C30.6133 106.525 28.0707 104.208 24.9642 103.945C20.9878 103.61 18.1287 99.9746 18.7393 96.0311C19.2163 92.9502 17.5638 89.9333 14.7107 88.6765C11.0588 87.0678 9.53495 82.7014 11.3929 79.1697C12.8445 76.4107 12.261 73.0206 9.97069 70.9056C7.03898 68.1983 7.01547 63.5736 9.91951 60.8366C12.1882 58.6984 12.7372 55.3026 11.2577 52.5585C9.36388 49.0459 10.8433 44.6642 14.4787 43.0184C17.3187 41.7327 18.9406 38.6992 18.4322 35.6233C17.7816 31.6862 20.6036 28.0222 24.5763 27.6461C27.68 27.3522 30.199 25.0096 30.7169 21.9353C31.3799 18.0002 35.2386 15.4511 39.1183 16.3853C42.1492 17.1151 45.2923 15.7173 46.7804 12.9778C48.6852 9.47122 53.1626 8.31314 56.5287 10.4564C59.1584 12.1308 62.5851 11.8294 64.8821 9.72148Z" fill="white"/>
<path d="M65.4164 15.2201C67.88 12.9593 71.7435 13.2597 73.8281 15.8741C75.7389 18.2706 79.0215 19.0842 81.8303 17.8573C84.8945 16.519 88.4512 18.0575 89.5739 21.2072C90.6031 24.0943 93.4437 25.9296 96.4986 25.6813C99.8314 25.4103 102.696 28.0204 102.735 31.3639C102.771 34.4287 104.862 37.087 107.832 37.844C111.072 38.6699 112.934 42.0686 111.885 45.2437C110.924 48.1542 112.038 51.3472 114.602 53.0277C117.398 54.8609 118.055 58.6799 116.033 61.3425C114.178 63.7832 114.196 67.1651 116.074 69.5868C118.124 72.2286 117.506 76.0541 114.728 77.9157C112.182 79.6221 111.1 82.8263 112.091 85.7269C113.172 88.8911 111.345 92.3086 108.113 93.1674C105.151 93.9546 103.087 96.6339 103.082 99.699C103.077 103.043 100.239 105.682 96.9041 105.445C93.8468 105.227 91.0249 107.092 90.0252 109.989C88.9345 113.15 85.3937 114.725 82.3161 113.417C79.495 112.219 76.2208 113.066 74.3344 115.482C72.2765 118.117 68.4163 118.457 65.9298 116.221C63.6506 114.172 60.2788 113.91 57.7102 115.582C54.9081 117.407 51.1467 116.475 49.5209 113.553C48.0306 110.874 44.9266 109.532 41.9542 110.279C38.7115 111.095 35.4566 108.992 34.8676 105.701C34.3277 102.684 31.8279 100.406 28.7737 100.148C25.4418 99.8665 23.0462 96.8206 23.5578 93.5162C24.0268 90.4873 22.4021 87.5212 19.5971 86.2856C16.5371 84.9376 15.2602 81.2789 16.8171 78.3197C18.2441 75.6071 17.6705 72.2742 15.4188 70.1947C12.9622 67.9262 12.9425 64.0512 15.3759 61.7578C17.6064 59.6556 18.1461 56.317 16.6915 53.6191C15.1047 50.6759 16.3443 47.0043 19.3904 45.6253C22.1827 44.3613 23.7772 41.3788 23.2774 38.3548C22.7322 35.0558 25.0968 31.9857 28.4256 31.6705C31.477 31.3816 33.9535 29.0784 34.4628 26.056C35.0183 22.7587 38.2516 20.6227 41.5024 21.4055C44.4823 22.123 47.5725 20.7488 49.0355 18.0554C50.6315 15.1172 54.3832 14.1468 57.2037 15.9427C59.7892 17.5889 63.1581 17.2925 65.4164 15.2201Z" fill="white" stroke="#E5E5E5"/>
</svg>
