<svg width="23" height="23" viewBox="0 0 23 23" fill="none" xmlns="http://www.w3.org/2000/svg">
<g clip-path="url(#clip0)">
<path d="M22.795 16.6436C22.7332 16.5401 22.3508 15.7091 20.5107 14.0013C18.5843 12.2129 18.843 12.5033 21.1633 9.41099C22.5765 7.52773 23.1415 6.37764 22.9647 5.88598C22.7965 5.41732 21.7571 5.54096 21.7571 5.54096L18.3011 5.56108C18.3011 5.56108 18.0452 5.52658 17.854 5.64015C17.6685 5.75228 17.5492 6.01105 17.5492 6.01105C17.5492 6.01105 17.0015 7.46879 16.2712 8.708C14.7315 11.323 14.1147 11.461 13.8632 11.2986C13.2781 10.9205 13.4247 9.77758 13.4247 8.96677C13.4247 6.43227 13.8085 5.37563 12.6757 5.10249C12.299 5.01192 12.023 4.95154 11.0613 4.94147C9.8278 4.92854 8.78266 4.94579 8.1918 5.23475C7.7979 5.42738 7.49457 5.85723 7.68002 5.88167C7.9086 5.91186 8.42613 6.02112 8.70072 6.39489C9.05581 6.87649 9.04287 7.96045 9.04287 7.96045C9.04287 7.96045 9.24701 10.9435 8.56702 11.3144C8.0998 11.5688 7.46006 11.0499 6.08715 8.67638C5.38416 7.4616 4.85224 6.11744 4.85224 6.11744C4.85224 6.11744 4.75017 5.86729 4.5676 5.7336C4.34621 5.57115 4.03568 5.51939 4.03568 5.51939L0.749314 5.53952C0.749314 5.53952 0.256215 5.55389 0.0750765 5.7681C-0.0859355 5.9593 0.062138 6.3532 0.062138 6.3532C0.062138 6.3532 2.63545 12.3725 5.54805 15.4073C8.22056 18.189 11.2539 18.0064 11.2539 18.0064H12.6283C12.6283 18.0064 13.0437 17.9604 13.2551 17.7319C13.4506 17.522 13.4434 17.1281 13.4434 17.1281C13.4434 17.1281 13.4161 15.2836 14.2729 15.0119C15.1168 14.7445 16.2007 16.7945 17.3494 17.5838C18.2177 18.1804 18.8775 18.0496 18.8775 18.0496L21.9497 18.0064C21.9497 18.0064 23.5569 17.9073 22.795 16.6436Z" fill="white"/>
</g>
<defs>
<clipPath id="clip0">
<rect width="23" height="23" fill="white"/>
</clipPath>
</defs>
</svg>
