<svg width="31" height="31" viewBox="0 0 31 31" fill="none" xmlns="http://www.w3.org/2000/svg">
<path d="M20.068 20.6912C20.174 20.4974 20.1837 20.2624 20.0888 20.0579C20.0696 20.0166 19.9113 19.685 19.5865 19.2489C22.9413 19.1448 24.4252 16.5877 24.6929 16.0662C24.799 15.8724 24.8087 15.6374 24.7137 15.4329C24.6695 15.3376 23.882 13.6921 22.0136 12.7885C22.4129 12.5457 22.8116 12.2385 23.1989 11.8512C25.6769 9.3732 24.8896 6.40753 24.7063 5.83761C24.6444 5.62558 24.4849 5.4524 24.2732 5.37508C24.1368 5.32519 20.9 4.18371 18.2157 6.86798C17.8276 7.25607 17.5199 7.65575 17.2769 8.05587C16.374 6.18183 14.7242 5.39213 14.6287 5.34785C14.4242 5.25289 14.1892 5.26263 13.9954 5.36867C13.4739 5.63641 10.9168 7.12032 10.8127 10.4751C10.3766 10.1503 10.045 9.99202 10.0037 9.97284C9.79924 9.87788 9.5641 9.88762 9.37035 9.99361C8.838 10.267 6.18395 11.8073 6.18395 15.3118C6.18395 17.3398 7.06747 18.7071 7.91065 19.5503C8.22281 19.8625 8.52891 20.1021 8.78319 20.2775L5.53169 23.529C5.25729 23.8034 5.25724 24.2484 5.53169 24.5228C5.80614 24.7973 6.25113 24.7972 6.52553 24.5228L9.77827 21.2701C9.95413 21.5258 10.1957 21.8353 10.5113 22.1509C11.3544 22.994 12.722 23.8776 14.7498 23.8776C18.2543 23.8775 19.7946 21.2235 20.068 20.6912ZM10.3322 18.7284C10.0957 18.9429 9.87442 19.1009 9.70786 19.2069C9.05868 18.7938 7.58949 17.605 7.58954 15.3118C7.58944 13.0532 9.01475 11.8646 9.71004 11.4194C10.1166 11.6808 10.8492 12.2516 11.3366 13.2072C11.3663 13.2725 11.3969 13.3367 11.4283 13.3994C11.6656 13.9265 11.8258 14.5598 11.8258 15.3117C11.8258 16.7448 11.2522 17.7464 10.6638 18.3969L10.3322 18.7284ZM14.9571 14.1035C14.7205 14.3181 14.4993 14.476 14.3328 14.582C13.9305 14.3261 13.2139 13.7719 12.7265 12.8423C12.6824 12.7429 12.6362 12.6463 12.5881 12.5525C12.3639 12.0356 12.2145 11.4174 12.2144 10.6868C12.2144 8.42821 13.6397 7.23968 14.3349 6.79448C14.981 7.20976 16.4507 8.4054 16.4507 10.6869C16.4507 10.7014 16.45 10.7152 16.4499 10.7295C16.4446 10.822 16.4415 10.9125 16.4403 11.0011C16.3637 12.2673 15.8329 13.1703 15.2887 13.772L14.9571 14.1035ZM17.9543 12.1142C17.8984 11.8586 17.8387 11.4696 17.8487 11.0036C17.8509 10.9549 17.8529 10.9059 17.8542 10.8564C17.9002 9.97999 18.2032 8.86808 19.2095 7.86177C20.8293 6.24196 22.7063 6.43809 23.4576 6.60421C23.6345 7.40982 23.8031 9.25925 22.2051 10.8573C21.2554 11.8069 20.2177 12.1319 19.37 12.2053C19.2089 12.2054 19.0521 12.2115 18.8993 12.2222C18.5075 12.2167 18.1796 12.1642 17.9543 12.1142ZM16.1151 14.9394C16.6978 14.3553 17.6207 13.7342 18.9636 13.6271C19.1095 13.6275 19.2614 13.6229 19.4185 13.6117C21.6804 13.6304 22.8568 15.0808 23.2679 15.7254C22.8232 16.4202 21.6346 17.8471 19.3747 17.8471C18.6454 17.8471 18.0282 17.6983 17.5117 17.4748C17.4165 17.4258 17.3183 17.3788 17.2171 17.334C16.2879 16.8464 15.7345 16.1299 15.4796 15.7291C15.6085 15.5267 15.8128 15.2445 16.1024 14.952C16.1066 14.9478 16.1109 14.9436 16.1151 14.9394ZM14.7498 22.472C12.4561 22.4721 11.2676 21.0026 10.8552 20.3551C11.2683 19.7109 12.4642 18.2357 14.7498 18.2357C15.4811 18.2357 16.0995 18.3854 16.6168 18.6099C16.7104 18.6579 16.8066 18.7041 16.9058 18.748C17.8334 19.2343 18.3868 19.9488 18.643 20.3503C18.1983 21.0452 17.0097 22.4721 14.7498 22.472Z" fill="white"/>
</svg>
